<?xml version="1.0" encoding="UTF-8" standalone="no"?>
<svg width="598px" height="211px" viewBox="0 0 598 211" version="1.1" xmlns="http://www.w3.org/2000/svg" xmlns:xlink="http://www.w3.org/1999/xlink">
    <!-- Generator: Sketch 41.2 (35397) - http://www.bohemiancoding.com/sketch -->
    <title>Group 2</title>
    <desc>Created with Sketch.</desc>
    <defs>
        <linearGradient x1="0%" y1="0%" x2="101.999998%" y2="100.999999%" id="linearGradient-1">
            <stop stop-color="#DBD7FF" offset="0%"></stop>
            <stop stop-color="#C96DD8" offset="100%"></stop>
        </linearGradient>
    </defs>
    <g id="Page-1" stroke="none" stroke-width="1" fill="none" fill-rule="evenodd">
        <g id="Desktop-HD-Copy-5" transform="translate(-121.000000, -414.000000)">
            <g id="Group-2" transform="translate(121.000000, 414.000000)">
                <path d="M593.10304,194.111476 C590.465973,194.111476 588.328561,191.967197 588.328561,189.321949 L588.328561,4.78899567 C588.328561,2.14374698 590.465973,0 593.10304,0 C595.740107,0 597.877519,2.14374698 597.877519,4.78899567 L597.877519,189.321949 C597.877519,191.967197 595.740107,194.111476 593.10304,194.111476 L593.10304,194.111476 Z M572.815774,194.111476 C570.178707,194.111476 568.041295,191.967197 568.041295,189.321949 L568.041295,25.4978787 C568.041295,22.85263 570.178707,20.708883 572.815774,20.708883 C575.452841,20.708883 577.590253,22.85263 577.590253,25.4978787 L577.590253,189.321949 C577.590253,191.967197 575.452841,194.111476 572.815774,194.111476 L572.815774,194.111476 Z M552.529043,194.111476 C549.891976,194.111476 547.75403,191.967197 547.75403,189.321949 L547.75403,40.4541169 C547.75403,37.8088682 549.891976,35.6651212 552.529043,35.6651212 C555.165576,35.6651212 557.303522,37.8088682 557.303522,40.4541169 L557.303522,189.321949 C557.303522,191.967197 555.165576,194.111476 552.529043,194.111476 L552.529043,194.111476 Z M532.241244,194.111476 C529.604177,194.111476 527.466765,191.967197 527.466765,189.321949 L527.466765,52.5337669 C527.466765,49.8885182 529.604177,47.7447712 532.241244,47.7447712 C534.878311,47.7447712 537.015723,49.8885182 537.015723,52.5337669 L537.015723,189.321949 C537.015723,191.967197 534.878311,194.111476 532.241244,194.111476 L532.241244,194.111476 Z M511.953978,194.111476 C509.316911,194.111476 507.179499,191.967197 507.179499,189.321949 L507.179499,66.9145811 C507.179499,64.2698642 509.316911,62.1255854 511.953978,62.1255854 C514.591045,62.1255854 516.728457,64.2698642 516.728457,66.9145811 L516.728457,189.321949 C516.728457,191.967197 514.591045,194.111476 511.953978,194.111476 L511.953978,194.111476 Z M491.667247,194.111476 C489.03018,194.111476 486.892234,191.967197 486.892234,189.321949 L486.892234,70.0788814 C486.892234,67.4341645 489.03018,65.2898857 491.667247,65.2898857 C494.30378,65.2898857 496.441726,67.4341645 496.441726,70.0788814 L496.441726,189.321949 C496.441726,191.967197 494.30378,194.111476 491.667247,194.111476 L491.667247,194.111476 Z M471.379981,194.111476 C468.742914,194.111476 466.605502,191.967197 466.605502,189.321949 L466.605502,57.9986996 C466.605502,55.3539827 468.742914,53.209704 471.379981,53.209704 C474.017048,53.209704 476.15446,55.3539827 476.15446,57.9986996 L476.15446,189.321949 C476.15446,191.967197 474.017048,194.111476 471.379981,194.111476 L471.379981,194.111476 Z M451.092716,194.111476 C448.455649,194.111476 446.318237,191.967197 446.318237,189.321949 L446.318237,76.1187064 C446.318237,73.4739895 448.455649,71.3297107 451.092716,71.3297107 C453.729783,71.3297107 455.867195,73.4739895 455.867195,76.1187064 L455.867195,189.321949 C455.867195,191.967197 453.729783,194.111476 451.092716,194.111476 L451.092716,194.111476 Z M430.804917,194.111476 C428.168384,194.111476 426.030438,191.967197 426.030438,189.321949 L426.030438,81.8713511 C426.030438,79.2261024 428.168384,77.0823555 430.804917,77.0823555 C433.441984,77.0823555 435.57993,79.2261024 435.57993,81.8713511 L435.57993,189.321949 C435.57993,191.967197 433.441984,194.111476 430.804917,194.111476 L430.804917,194.111476 Z M410.518185,194.111476 C407.881118,194.111476 405.743706,191.967197 405.743706,189.321949 L405.743706,77.8444466 C405.743706,75.1997297 407.881118,73.0554509 410.518185,73.0554509 C413.155252,73.0554509 415.292664,75.1997297 415.292664,77.8444466 L415.292664,189.321949 C415.292664,191.967197 413.155252,194.111476 410.518185,194.111476 L410.518185,194.111476 Z M390.23092,194.111476 C387.593853,194.111476 385.456441,191.967197 385.456441,189.321949 L385.456441,93.0889287 C385.456441,90.44368 387.593853,88.299933 390.23092,88.299933 C392.867987,88.299933 395.005399,90.44368 395.005399,93.0889287 L395.005399,189.321949 C395.005399,191.967197 392.867987,194.111476 390.23092,194.111476 L390.23092,194.111476 Z M369.943654,194.111476 C367.307121,194.111476 365.169175,191.967197 365.169175,189.321949 L365.169175,98.8410416 C365.169175,96.1963247 367.307121,94.052046 369.943654,94.052046 C372.580721,94.052046 374.718133,96.1963247 374.718133,98.8410416 L374.718133,189.321949 C374.718133,191.967197 372.580721,194.111476 369.943654,194.111476 L369.943654,194.111476 Z M349.656923,194.111476 C347.019856,194.111476 344.882444,191.967197 344.882444,189.321949 L344.882444,104.593686 C344.882444,101.94897 347.019856,99.8046907 349.656923,99.8046907 C352.293456,99.8046907 354.431402,101.94897 354.431402,104.593686 L354.431402,189.321949 C354.431402,191.967197 352.293456,194.111476 349.656923,194.111476 L349.656923,194.111476 Z M329.369657,194.111476 C326.732591,194.111476 324.595178,191.967197 324.595178,189.321949 L324.595178,93.0889287 C324.595178,90.44368 326.732591,88.299933 329.369657,88.299933 C332.006724,88.299933 334.144137,90.44368 334.144137,93.0889287 L334.144137,189.321949 C334.144137,191.967197 332.006724,194.111476 329.369657,194.111476 L329.369657,194.111476 Z M309.082392,194.111476 C306.445325,194.111476 304.307913,191.967197 304.307913,189.321949 L304.307913,115.235308 C304.307913,112.590591 306.445325,110.446312 309.082392,110.446312 C311.719459,110.446312 313.856871,112.590591 313.856871,115.235308 L313.856871,189.321949 C313.856871,191.967197 311.719459,194.111476 309.082392,194.111476 L309.082392,194.111476 Z M288.795127,194.110944 C286.15806,194.110944 284.020648,191.966666 284.020648,189.321417 L284.020648,132.720859 C284.020648,130.076142 286.15806,127.931864 288.795127,127.931864 C291.432194,127.931864 293.569606,130.076142 293.569606,132.720859 L293.569606,189.321417 C293.569606,191.966666 291.432194,194.110944 288.795127,194.110944 L288.795127,194.110944 Z M268.507861,194.111476 C265.870794,194.111476 263.733382,191.967197 263.733382,189.321949 L263.733382,130.851529 C263.733382,128.20628 265.870794,126.062533 268.507861,126.062533 C271.144928,126.062533 273.28234,128.20628 273.28234,130.851529 L273.28234,189.321949 C273.28234,191.967197 271.144928,194.111476 268.507861,194.111476 L268.507861,194.111476 Z M248.220596,194.112008 C245.584063,194.112008 243.446117,191.967729 243.446117,189.32248 L243.446117,146.958083 C243.446117,144.313367 245.584063,142.169088 248.220596,142.169088 C250.857663,142.169088 252.995075,144.313367 252.995075,146.958083 L252.995075,189.32248 C252.995075,191.967729 250.857663,194.112008 248.220596,194.112008 L248.220596,194.112008 Z M227.933331,194.111476 C225.296264,194.111476 223.158852,191.967197 223.158852,189.321949 L223.158852,130.851529 C223.158852,128.20628 225.296264,126.062533 227.933331,126.062533 C230.570397,126.062533 232.70781,128.20628 232.70781,130.851529 L232.70781,189.321949 C232.70781,191.967197 230.570397,194.111476 227.933331,194.111476 L227.933331,194.111476 Z M207.646065,194.111476 C205.009532,194.111476 202.871586,191.967197 202.871586,189.321949 L202.871586,138.820779 C202.871586,136.175531 205.009532,134.031784 207.646065,134.031784 C210.283132,134.031784 212.421078,136.175531 212.421078,138.820779 L212.421078,189.321949 C212.421078,191.967197 210.283132,194.111476 207.646065,194.111476 L207.646065,194.111476 Z M187.3588,194.111476 C184.721733,194.111476 182.584321,191.967197 182.584321,189.321949 L182.584321,138.820779 C182.584321,136.175531 184.721733,134.031784 187.3588,134.031784 C189.995867,134.031784 192.133279,136.175531 192.133279,138.820779 L192.133279,189.321949 C192.133279,191.967197 189.995867,194.111476 187.3588,194.111476 L187.3588,194.111476 Z M167.072068,194.112008 C164.435001,194.112008 162.297589,191.967729 162.297589,189.32248 L162.297589,128.119063 C162.297589,125.473814 164.435001,123.330067 167.072068,123.330067 C169.709135,123.330067 171.846547,125.473814 171.846547,128.119063 L171.846547,189.32248 C171.846547,191.967729 169.709135,194.112008 167.072068,194.112008 L167.072068,194.112008 Z M146.784803,194.111476 C144.147736,194.111476 142.010324,191.967197 142.010324,189.321949 L142.010324,110.286236 C142.010324,107.641519 144.147736,105.49724 146.784803,105.49724 C149.42187,105.49724 151.559282,107.641519 151.559282,110.286236 L151.559282,189.321949 C151.559282,191.967197 149.42187,194.111476 146.784803,194.111476 L146.784803,194.111476 Z M126.497537,194.111476 C123.860471,194.111476 121.723058,191.967197 121.723058,189.321949 L121.723058,131.054682 C121.723058,128.409434 123.860471,126.265155 126.497537,126.265155 C129.134604,126.265155 131.272017,128.409434 131.272017,131.054682 L131.272017,189.321949 C131.272017,191.967197 129.134604,194.111476 126.497537,194.111476 L126.497537,194.111476 Z M106.210272,194.111476 C103.573205,194.111476 101.435793,191.967197 101.435793,189.321949 L101.435793,121.563377 C101.435793,118.918128 103.573205,116.774381 106.210272,116.774381 C108.847339,116.774381 110.984751,118.918128 110.984751,121.563377 L110.984751,189.321949 C110.984751,191.967197 108.847339,194.111476 106.210272,194.111476 L106.210272,194.111476 Z M85.9230067,194.111476 C83.2864736,194.111476 81.1485277,191.967197 81.1485277,189.321949 L81.1485277,123.660324 C81.1485277,121.015607 83.2864736,118.871328 85.9230067,118.871328 C88.5600737,118.871328 90.6974858,121.015607 90.6974858,123.660324 L90.6974858,189.321949 C90.6974858,191.967197 88.5600737,194.111476 85.9230067,194.111476 L85.9230067,194.111476 Z M65.6357414,194.111476 C62.9986744,194.111476 60.8612623,191.967197 60.8612623,189.321949 L60.8612623,152.278894 C60.8612623,149.633646 62.9986744,147.489899 65.6357414,147.489899 C68.2728083,147.489899 70.4102204,149.633646 70.4102204,152.278894 L70.4102204,189.321949 C70.4102204,191.967197 68.2728083,194.111476 65.6357414,194.111476 L65.6357414,194.111476 Z M45.348476,194.111476 C42.7119429,194.111476 40.5739969,191.967197 40.5739969,189.321949 L40.5739969,132.720859 C40.5739969,130.076142 42.7119429,127.931864 45.348476,127.931864 C47.9855429,127.931864 50.1234888,130.076142 50.1234888,132.720859 L50.1234888,189.321949 C50.1234888,191.967197 47.9855429,194.111476 45.348476,194.111476 L45.348476,194.111476 Z M25.0617444,194.111476 C22.4246775,194.111476 20.2872654,191.967197 20.2872654,189.321949 L20.2872654,161.254339 C20.2872654,158.609622 22.4246775,156.465343 25.0617444,156.465343 C27.6988113,156.465343 29.8362235,158.609622 29.8362235,161.254339 L29.8362235,189.321949 C29.8362235,191.967197 27.6988113,194.111476 25.0617444,194.111476 L25.0617444,194.111476 Z M4.77447904,194.111476 C2.13741213,194.111476 0,191.967197 0,189.321949 L0,175.28841 C0,172.643693 2.13741213,170.499414 4.77447904,170.499414 C7.41154596,170.499414 9.54895809,172.643693 9.54895809,175.28841 L9.54895809,189.321949 C9.54895809,191.967197 7.41154596,194.111476 4.77447904,194.111476 L4.77447904,194.111476 Z" id="Shape" fill="url(#linearGradient-1)"></path>
                <g id="Active" transform="translate(260.000000, 15.000000)" fill="#FFFFFF">
                    <path d="M69.5037712,179.258779 C66.6606882,179.258779 64.3563669,177.092841 64.3563669,174.421536 L64.3563669,77.222864 C64.3563669,74.5510216 66.6606882,72.3856209 69.5037712,72.3856209 C72.3468541,72.3856209 74.6511755,74.5510216 74.6511755,77.222864 L74.6511755,174.421536 C74.6511755,177.092841 72.3468541,179.258779 69.5037712,179.258779 L69.5037712,179.258779 Z" id="Shape"></path>
                    <g id="Triangle" transform="translate(60.505304, 49.264706)">
                        <polygon id="Shape" points="8.68610196 8.01187233 0.642430128 0.00160237447 16.7297738 0.00160237447"></polygon>
                    </g>
                    <path d="M10.332742,31.4082031 L10.332742,29.0351562 C15.2721952,28.6308594 18.1725858,25.9941406 18.1725858,21.828125 C18.1725858,18.2773438 16.1159452,16.1503906 11.8268827,15.0078125 L10.332742,14.6386719 L10.332742,6.04296875 C12.9343045,6.359375 14.6745389,8.02929688 14.7448514,10.2089844 L17.7331327,10.2089844 C17.6100858,6.41210938 14.7272733,3.6875 10.332742,3.31835938 L10.332742,0.875 L7.97727329,0.875 L7.97727329,3.3359375 C3.49485142,3.77539062 0.699929541,6.39453125 0.699929541,10.2441406 C0.699929541,13.5136719 2.80930454,15.8164062 6.57102329,16.8007812 L7.97727329,17.1875 L7.97727329,26.328125 C5.07688267,25.9765625 3.28391392,24.4121094 3.09055454,22.0566406 L0.0846951658,22.0566406 C0.102273291,25.9765625 3.23117954,28.7011719 7.97727329,29.0527344 L7.97727329,31.4082031 L10.332742,31.4082031 Z M15.1315702,22.0742188 C15.1315702,24.640625 13.3913358,26.2226562 10.332742,26.3808594 L10.332742,17.6621094 C13.6550077,18.3652344 15.1315702,19.7539062 15.1315702,22.0742188 Z M3.72336704,10.0683594 C3.72336704,7.85351562 5.51633579,6.18359375 7.97727329,6.04296875 L7.97727329,14.1289062 C5.19992954,13.5488281 3.72336704,12.1601562 3.72336704,10.0683594 Z M28.9303983,29 L31.988992,29 L31.988992,3.63476562 L28.895242,3.63476562 L22.145242,8.48632812 L22.145242,11.8261719 L28.8600858,6.9921875 L28.9303983,6.9921875 L28.9303983,29 Z M47.6862577,29.421875 C53.5925077,29.421875 57.0026639,24.3066406 57.0026639,16.2910156 C57.0026639,8.328125 53.5749295,3.21289062 47.6862577,3.21289062 C41.7975858,3.21289062 38.3346952,8.36328125 38.3346952,16.3085938 C38.3346952,24.3242188 41.7624295,29.421875 47.6862577,29.421875 Z M47.6862577,26.6621094 C43.7136014,26.6621094 41.5163358,22.6191406 41.5163358,16.2910156 C41.5163358,10.1035156 43.7663358,5.99023438 47.6862577,5.99023438 C51.6061795,5.99023438 53.8210233,10.0683594 53.8210233,16.3085938 C53.8210233,22.6367188 51.6413358,26.6621094 47.6862577,26.6621094 Z M63.0319608,33.5175781 L65.6686795,25.4492188 L62.4167264,25.4492188 L60.6589139,33.5175781 L63.0319608,33.5175781 Z M70.3971952,10.9472656 L70.3971952,10.9648438 L73.4557889,10.9648438 L73.4557889,10.9472656 C73.4557889,8.1171875 75.7057889,5.97265625 78.676492,5.97265625 C81.4714139,5.97265625 83.7038358,7.92382812 83.7038358,10.3671875 C83.7038358,12.4765625 82.895242,13.8300781 79.4850858,17.4160156 L70.5553983,26.8203125 L70.5553983,29 L87.2897733,29 L87.2897733,26.1875 L74.9323514,26.1875 L74.9323514,26.1171875 L81.348367,19.4902344 C85.5846952,15.1132812 86.8678983,13.0039062 86.8678983,10.1738281 C86.8678983,6.2890625 83.2995389,3.21289062 78.7643827,3.21289062 C73.9831327,3.21289062 70.3971952,6.51757812 70.3971952,10.9472656 Z M103.373758,29 L106.432351,29 L106.432351,23.7265625 L110.018289,23.7265625 L110.018289,20.9492188 L106.432351,20.9492188 L106.432351,3.63476562 L101.75657,3.63476562 C95.7624295,12.2304688 92.7917264,16.8535156 90.629617,20.8613281 L90.629617,23.7265625 L103.373758,23.7265625 L103.373758,29 Z M93.7585233,20.8789062 C95.7624295,17.3632812 98.5221952,13.1269531 103.321023,6.27148438 L103.373758,6.27148438 L103.373758,20.9492188 L93.7585233,20.9492188 L93.7585233,20.8789062 Z M122.656961,29.4394531 C127.860086,29.4394531 131.639383,25.7832031 131.639383,20.7734375 C131.639383,15.9570312 128.053445,12.3886719 123.219461,12.3886719 C120.072976,12.3886719 117.278055,14.0234375 116.135476,16.5019531 L116.082742,16.5019531 C116.188211,9.75195312 118.596414,5.99023438 122.832742,5.99023438 C125.346414,5.99023438 127.385476,7.46679688 128.071023,9.76953125 L131.28782,9.76953125 C130.479226,5.77929688 127.174539,3.1953125 122.867898,3.1953125 C116.66282,3.1953125 113.024148,8.20507812 113.024148,16.7480469 C113.024148,19.4902344 113.428445,21.7753906 114.272195,23.7265625 C115.836648,27.3828125 118.860086,29.4394531 122.656961,29.4394531 Z M122.621805,26.6269531 C119.369851,26.6269531 116.838601,24.0429688 116.838601,20.7910156 C116.838601,17.5566406 119.317117,15.1660156 122.674539,15.1660156 C126.031961,15.1660156 128.422586,17.5566406 128.422586,20.8789062 C128.422586,24.078125 125.85618,26.6269531 122.621805,26.6269531 Z" id="$10,246"></path>
                </g>
                <polygon id="1" fill="#FFFFFF" points="3.92726601 203.01 6.75726601 203.01 6.75726601 210 5.25726601 210 5.25726601 204.34 3.92726601 204.34"></polygon>
                <path d="M27.1751724,205.735 C27.35184,205.484999 27.4401724,205.243335 27.4401724,205.01 C27.4401724,204.776666 27.3635065,204.581667 27.2101724,204.425 C27.0568383,204.268333 26.8601736,204.19 26.6201724,204.19 C26.1801702,204.19 25.7635077,204.50333 25.3701724,205.13 L24.1201724,204.39 C24.4468407,203.883331 24.8051705,203.500001 25.1951724,203.24 C25.5851744,202.979999 26.0818361,202.85 26.6851724,202.85 C27.2885088,202.85 27.8185035,203.041665 28.2751724,203.425 C28.7318414,203.808335 28.9601724,204.329997 28.9601724,204.99 C28.9601724,205.350002 28.8685067,205.694998 28.6851724,206.025 C28.5018382,206.355002 28.1635082,206.776664 27.6701724,207.29 L26.4101724,208.6 L29.1701724,208.6 L29.1701724,210 L24.2401724,210 L24.2401724,208.84 L26.2901724,206.74 C26.7035078,206.319998 26.9985049,205.985001 27.1751724,205.735 Z" id="2" fill="#FFFFFF"></path>
                <path d="M44.9537192,204.34 L44.9537192,203.01 L49.2337192,203.01 L49.2337192,204.09 L47.8037192,205.72 C48.363722,205.813334 48.797051,206.048331 49.1037192,206.425 C49.4103874,206.801669 49.5637192,207.236664 49.5637192,207.73 C49.5637192,208.463337 49.3153884,209.038331 48.8187192,209.455 C48.3220501,209.871669 47.6870564,210.08 46.9137192,210.08 C46.140382,210.08 45.3570565,209.806669 44.5637192,209.26 L45.2037192,208.02 C45.8637225,208.486669 46.4537166,208.72 46.9737192,208.72 C47.2870541,208.72 47.5453849,208.643334 47.7487192,208.49 C47.9520536,208.336666 48.0537192,208.115001 48.0537192,207.825 C48.0537192,207.534999 47.9370537,207.305001 47.7037192,207.135 C47.4703847,206.964999 47.1470546,206.88 46.7337192,206.88 C46.5137181,206.88 46.2037212,206.943333 45.8037192,207.07 L45.8037192,205.92 L47.1437192,204.34 L44.9537192,204.34 Z" id="3" fill="#FFFFFF"></path>
                <polygon id="4" fill="#FFFFFF" points="66.3887192 206.98 66.3887192 205.76 67.8887192 205.76 67.8887192 206.98 68.6787192 206.98 68.6787192 208.33 67.8887192 208.33 67.8887192 210 66.3887192 210 66.3887192 208.33 63.5787192 208.33 63.5787192 207.14 66.0687192 203.01 67.7687192 203.01 65.3987192 206.98"></polygon>
                <path d="M87.2387192,203.01 L87.2387192,204.36 L84.4787192,204.36 L84.4787192,205.53 C84.6853869,205.47 84.9220512,205.44 85.1887192,205.44 C85.8620559,205.44 86.4420501,205.643331 86.9287192,206.05 C87.4153883,206.456669 87.6587192,207.004997 87.6587192,207.695 C87.6587192,208.385003 87.4070551,208.954998 86.9037192,209.405 C86.4003834,209.855002 85.7787229,210.08 85.0387192,210.08 C84.0920478,210.08 83.3020557,209.730004 82.6687192,209.03 L83.4887192,207.89 C83.5487195,207.95 83.6287187,208.023333 83.7287192,208.11 C83.8287197,208.196667 84.0120512,208.311666 84.2787192,208.455 C84.5453872,208.598334 84.8120512,208.67 85.0787192,208.67 C85.3453872,208.67 85.5820515,208.590001 85.7887192,208.43 C85.9953869,208.269999 86.0987192,208.033335 86.0987192,207.72 C86.0987192,207.406665 85.9870537,207.165001 85.7637192,206.995 C85.5403848,206.824999 85.2520543,206.74 84.8987192,206.74 C84.5453841,206.74 84.1353882,206.866665 83.6687192,207.12 L83.0187192,206.42 L83.0187192,203.01 L87.2387192,203.01 Z" id="5" fill="#FFFFFF"></path>
                <path d="M107.075172,204.19 C106.641837,204.19 106.30684,204.334999 106.070172,204.625 C105.833505,204.915001 105.688506,205.309998 105.635172,205.81 C106.068508,205.529999 106.528503,205.39 107.015172,205.39 C107.668509,205.39 108.213504,205.603331 108.650172,206.03 C109.086841,206.456669 109.305172,207.024996 109.305172,207.735 C109.305172,208.445004 109.070175,209.013331 108.600172,209.44 C108.13017,209.866669 107.538509,210.08 106.825172,210.08 C106.331837,210.08 105.903508,209.985001 105.540172,209.795 C105.176837,209.604999 104.895173,209.340002 104.695172,209 C104.29517,208.339997 104.095172,207.513338 104.095172,206.52 C104.095172,205.879997 104.173505,205.318336 104.330172,204.835 C104.48684,204.351664 104.701838,203.970001 104.975172,203.69 C105.508508,203.129997 106.168502,202.85 106.955172,202.85 C107.281841,202.85 107.593504,202.898333 107.890172,202.995 C108.186841,203.091667 108.415172,203.19 108.575172,203.29 C108.735173,203.390001 108.911838,203.516666 109.105172,203.67 L108.365172,204.77 C108.325172,204.73 108.266839,204.676667 108.190172,204.61 C108.113505,204.543333 107.96184,204.456667 107.735172,204.35 C107.508505,204.243333 107.288507,204.19 107.075172,204.19 Z M106.090172,206.985 C105.880171,207.168334 105.775172,207.406665 105.775172,207.7 C105.775172,207.993335 105.875171,208.244999 106.075172,208.455 C106.275173,208.665001 106.525171,208.77 106.825172,208.77 C107.125174,208.77 107.375171,208.676668 107.575172,208.49 C107.775173,208.303332 107.875172,208.061668 107.875172,207.765 C107.875172,207.468332 107.785173,207.218334 107.605172,207.015 C107.425172,206.811666 107.180174,206.71 106.870172,206.71 C106.560171,206.71 106.300173,206.801666 106.090172,206.985 Z" id="6" fill="#FFFFFF"></path>
                <polygon id="7" fill="#FFFFFF" points="124.733719 205.25 124.733719 203.01 129.783719 203.01 129.783719 204.19 126.953719 210 125.253719 210 127.953719 204.35 126.193719 204.35 126.193719 205.25"></polygon>
                <path d="M146.685172,202.85 C147.378509,202.85 147.95517,203.033332 148.415172,203.4 C148.875175,203.766669 149.105172,204.218331 149.105172,204.755 C149.105172,205.291669 148.898508,205.753331 148.485172,206.14 C149.065175,206.586669 149.355172,207.17333 149.355172,207.9 C149.355172,208.513336 149.108508,209.029998 148.615172,209.45 C148.121837,209.870002 147.47851,210.08 146.685172,210.08 C145.891835,210.08 145.248508,209.870002 144.755172,209.45 C144.261837,209.029998 144.015172,208.513336 144.015172,207.9 C144.015172,207.17333 144.30517,206.586669 144.885172,206.14 C144.46517,205.746665 144.255172,205.283336 144.255172,204.75 C144.255172,204.216664 144.486837,203.766669 144.950172,203.4 C145.413508,203.033332 145.991836,202.85 146.685172,202.85 Z M146.685172,208.78 C146.958507,208.78 147.211838,208.701667 147.445172,208.545 C147.678507,208.388333 147.795172,208.160002 147.795172,207.86 C147.795172,207.559999 147.68184,207.330001 147.455172,207.17 C147.228505,207.009999 146.971841,206.93 146.685172,206.93 C146.398504,206.93 146.14184,207.009999 145.915172,207.17 C145.688505,207.330001 145.575172,207.559999 145.575172,207.86 C145.575172,208.160002 145.691838,208.388333 145.925172,208.545 C146.158507,208.701667 146.411838,208.78 146.685172,208.78 Z M146.685172,205.73 C146.938507,205.73 147.160171,205.650001 147.350172,205.49 C147.540173,205.329999 147.635172,205.131668 147.635172,204.895 C147.635172,204.658332 147.54184,204.460001 147.355172,204.3 C147.168505,204.139999 146.945174,204.06 146.685172,204.06 C146.425171,204.06 146.20184,204.139999 146.015172,204.3 C145.828505,204.460001 145.735172,204.658332 145.735172,204.895 C145.735172,205.131668 145.830171,205.329999 146.020172,205.49 C146.210173,205.650001 146.431838,205.73 146.685172,205.73 Z" id="8" fill="#FFFFFF"></path>
                <path d="M167.290172,208.74 C167.723508,208.74 168.058505,208.595001 168.295172,208.305 C168.53184,208.014999 168.676839,207.620003 168.730172,207.12 C168.303504,207.406668 167.843508,207.55 167.350172,207.55 C166.696836,207.55 166.151841,207.335002 165.715172,206.905 C165.278504,206.474998 165.060172,205.90667 165.060172,205.2 C165.060172,204.49333 165.29517,203.925002 165.765172,203.495 C166.235175,203.064998 166.826836,202.85 167.540172,202.85 C168.033508,202.85 168.461837,202.944999 168.825172,203.135 C169.188508,203.325001 169.473505,203.589998 169.680172,203.93 C170.073508,204.590003 170.270172,205.416662 170.270172,206.41 C170.270172,207.050003 170.19184,207.611664 170.035172,208.095 C169.878505,208.578336 169.66684,208.959999 169.400172,209.24 C168.853503,209.800003 168.190176,210.08 167.410172,210.08 C167.083504,210.08 166.770174,210.031667 166.470172,209.935 C166.170171,209.838333 165.943507,209.741667 165.790172,209.645 C165.636838,209.548333 165.460173,209.423334 165.260172,209.27 L166.040172,208.17 C166.086839,208.21 166.148505,208.261666 166.225172,208.325 C166.301839,208.388334 166.450171,208.473333 166.670172,208.58 C166.890174,208.686667 167.096838,208.74 167.290172,208.74 Z M168.280172,205.95 C168.48684,205.769999 168.590172,205.533335 168.590172,205.24 C168.590172,204.946665 168.490173,204.693334 168.290172,204.48 C168.090171,204.266666 167.840174,204.16 167.540172,204.16 C167.240171,204.16 166.995173,204.254999 166.805172,204.445 C166.615171,204.635001 166.520172,204.876665 166.520172,205.17 C166.520172,205.463335 166.606838,205.711666 166.780172,205.915 C166.953507,206.118334 167.195171,206.22 167.505172,206.22 C167.815174,206.22 168.073505,206.130001 168.280172,205.95 Z" id="9" fill="#FFFFFF"></path>
                <path d="M181.635985,203.01 L184.465985,203.01 L184.465985,210 L182.965985,210 L182.965985,204.34 L181.635985,204.34 L181.635985,203.01 Z M187.445985,206.47 C187.445985,207.170004 187.555984,207.733331 187.775985,208.16 C187.995986,208.586669 188.339316,208.8 188.805985,208.8 C189.272654,208.8 189.615984,208.586669 189.835985,208.16 C190.055986,207.733331 190.165985,207.170004 190.165985,206.47 C190.165985,205.769997 190.055986,205.206669 189.835985,204.78 C189.615984,204.353331 189.272654,204.14 188.805985,204.14 C188.339316,204.14 187.995986,204.353331 187.775985,204.78 C187.555984,205.206669 187.445985,205.769997 187.445985,206.47 Z M186.635985,209.095 C186.155983,208.43833 185.915985,207.561672 185.915985,206.465 C185.915985,205.368328 186.155983,204.49167 186.635985,203.835 C187.115988,203.17833 187.839314,202.85 188.805985,202.85 C189.772657,202.85 190.495983,203.17833 190.975985,203.835 C191.455988,204.49167 191.695985,205.368328 191.695985,206.465 C191.695985,207.561672 191.455988,208.43833 190.975985,209.095 C190.495983,209.75167 189.772657,210.08 188.805985,210.08 C187.839314,210.08 187.115988,209.75167 186.635985,209.095 Z" id="10" fill="#FFFFFF"></path>
                <path d="M203.018079,203.01 L205.848079,203.01 L205.848079,210 L204.348079,210 L204.348079,204.34 L203.018079,204.34 L203.018079,203.01 Z M207.048079,203.01 L209.878079,203.01 L209.878079,210 L208.378079,210 L208.378079,204.34 L207.048079,204.34 L207.048079,203.01 Z" id="11" fill="#FFFFFF"></path>
                <path d="M224.060985,203.01 L226.890985,203.01 L226.890985,210 L225.390985,210 L225.390985,204.34 L224.060985,204.34 L224.060985,203.01 Z M231.295985,205.735 C231.472653,205.484999 231.560985,205.243335 231.560985,205.01 C231.560985,204.776666 231.484319,204.581667 231.330985,204.425 C231.177651,204.268333 230.980986,204.19 230.740985,204.19 C230.300983,204.19 229.884321,204.50333 229.490985,205.13 L228.240985,204.39 C228.567654,203.883331 228.925983,203.500001 229.315985,203.24 C229.705987,202.979999 230.202649,202.85 230.805985,202.85 C231.409322,202.85 231.939316,203.041665 232.395985,203.425 C232.852654,203.808335 233.080985,204.329997 233.080985,204.99 C233.080985,205.350002 232.989319,205.694998 232.805985,206.025 C232.622651,206.355002 232.284321,206.776664 231.790985,207.29 L230.530985,208.6 L233.290985,208.6 L233.290985,210 L228.360985,210 L228.360985,208.84 L230.410985,206.74 C230.824321,206.319998 231.119318,205.985001 231.295985,205.735 Z" id="12" fill="#FFFFFF"></path>
                <path d="M242.604532,203.01 L245.434532,203.01 L245.434532,210 L243.934532,210 L243.934532,204.34 L242.604532,204.34 L242.604532,203.01 Z M247.074532,204.34 L247.074532,203.01 L251.354532,203.01 L251.354532,204.09 L249.924532,205.72 C250.484535,205.813334 250.917864,206.048331 251.224532,206.425 C251.5312,206.801669 251.684532,207.236664 251.684532,207.73 C251.684532,208.463337 251.436201,209.038331 250.939532,209.455 C250.442863,209.871669 249.807869,210.08 249.034532,210.08 C248.261195,210.08 247.477869,209.806669 246.684532,209.26 L247.324532,208.02 C247.984535,208.486669 248.574529,208.72 249.094532,208.72 C249.407867,208.72 249.666198,208.643334 249.869532,208.49 C250.072866,208.336666 250.174532,208.115001 250.174532,207.825 C250.174532,207.534999 250.057867,207.305001 249.824532,207.135 C249.591198,206.964999 249.267867,206.88 248.854532,206.88 C248.634531,206.88 248.324534,206.943333 247.924532,207.07 L247.924532,205.92 L249.264532,204.34 L247.074532,204.34 Z" id="13" fill="#FFFFFF"></path>
                <path d="M262.619532,203.01 L265.449532,203.01 L265.449532,210 L263.949532,210 L263.949532,204.34 L262.619532,204.34 L262.619532,203.01 Z M269.509532,206.98 L269.509532,205.76 L271.009532,205.76 L271.009532,206.98 L271.799532,206.98 L271.799532,208.33 L271.009532,208.33 L271.009532,210 L269.509532,210 L269.509532,208.33 L266.699532,208.33 L266.699532,207.14 L269.189532,203.01 L270.889532,203.01 L268.519532,206.98 L269.509532,206.98 Z" id="14" fill="#FFFFFF"></path>
                <path d="M284.579532,203.01 L287.409532,203.01 L287.409532,210 L285.909532,210 L285.909532,204.34 L284.579532,204.34 L284.579532,203.01 Z M293.359532,203.01 L293.359532,204.36 L290.599532,204.36 L290.599532,205.53 C290.8062,205.47 291.042864,205.44 291.309532,205.44 C291.982869,205.44 292.562863,205.643331 293.049532,206.05 C293.536201,206.456669 293.779532,207.004997 293.779532,207.695 C293.779532,208.385003 293.527868,208.954998 293.024532,209.405 C292.521196,209.855002 291.899536,210.08 291.159532,210.08 C290.212861,210.08 289.422869,209.730004 288.789532,209.03 L289.609532,207.89 C289.669532,207.95 289.749532,208.023333 289.849532,208.11 C289.949533,208.196667 290.132864,208.311666 290.399532,208.455 C290.6662,208.598334 290.932864,208.67 291.199532,208.67 C291.4662,208.67 291.702864,208.590001 291.909532,208.43 C292.1162,208.269999 292.219532,208.033335 292.219532,207.72 C292.219532,207.406665 292.107866,207.165001 291.884532,206.995 C291.661198,206.824999 291.372867,206.74 291.019532,206.74 C290.666197,206.74 290.256201,206.866665 289.789532,207.12 L289.139532,206.42 L289.139532,203.01 L293.359532,203.01 Z" id="15" fill="#FFFFFF"></path>
                <path d="M302.935985,203.01 L305.765985,203.01 L305.765985,210 L304.265985,210 L304.265985,204.34 L302.935985,204.34 L302.935985,203.01 Z M310.195985,204.19 C309.76265,204.19 309.427653,204.334999 309.190985,204.625 C308.954317,204.915001 308.809319,205.309998 308.755985,205.81 C309.189321,205.529999 309.649316,205.39 310.135985,205.39 C310.789322,205.39 311.334316,205.603331 311.770985,206.03 C312.207654,206.456669 312.425985,207.024996 312.425985,207.735 C312.425985,208.445004 312.190988,209.013331 311.720985,209.44 C311.250983,209.866669 310.659322,210.08 309.945985,210.08 C309.452649,210.08 309.02432,209.985001 308.660985,209.795 C308.29765,209.604999 308.015986,209.340002 307.815985,209 C307.415983,208.339997 307.215985,207.513338 307.215985,206.52 C307.215985,205.879997 307.294318,205.318336 307.450985,204.835 C307.607653,204.351664 307.822651,203.970001 308.095985,203.69 C308.629321,203.129997 309.289315,202.85 310.075985,202.85 C310.402654,202.85 310.714317,202.898333 311.010985,202.995 C311.307653,203.091667 311.535984,203.19 311.695985,203.29 C311.855986,203.390001 312.032651,203.516666 312.225985,203.67 L311.485985,204.77 C311.445985,204.73 311.387652,204.676667 311.310985,204.61 C311.234318,204.543333 311.082653,204.456667 310.855985,204.35 C310.629317,204.243333 310.40932,204.19 310.195985,204.19 Z M309.210985,206.985 C309.000984,207.168334 308.895985,207.406665 308.895985,207.7 C308.895985,207.993335 308.995984,208.244999 309.195985,208.455 C309.395986,208.665001 309.645984,208.77 309.945985,208.77 C310.245987,208.77 310.495984,208.676668 310.695985,208.49 C310.895986,208.303332 310.995985,208.061668 310.995985,207.765 C310.995985,207.468332 310.905986,207.218334 310.725985,207.015 C310.545984,206.811666 310.300987,206.71 309.990985,206.71 C309.680984,206.71 309.420986,206.801666 309.210985,206.985 Z" id="16" fill="#FFFFFF"></path>
                <path d="M323.664532,203.01 L326.494532,203.01 L326.494532,210 L324.994532,210 L324.994532,204.34 L323.664532,204.34 L323.664532,203.01 Z M327.854532,205.25 L327.854532,203.01 L332.904532,203.01 L332.904532,204.19 L330.074532,210 L328.374532,210 L331.074532,204.35 L329.314532,204.35 L329.314532,205.25 L327.854532,205.25 Z" id="17" fill="#FFFFFF"></path>
                <path d="M342.875985,203.01 L345.705985,203.01 L345.705985,210 L344.205985,210 L344.205985,204.34 L342.875985,204.34 L342.875985,203.01 Z M349.805985,202.85 C350.499322,202.85 351.075983,203.033332 351.535985,203.4 C351.995988,203.766669 352.225985,204.218331 352.225985,204.755 C352.225985,205.291669 352.019321,205.753331 351.605985,206.14 C352.185988,206.586669 352.475985,207.17333 352.475985,207.9 C352.475985,208.513336 352.229321,209.029998 351.735985,209.45 C351.242649,209.870002 350.599323,210.08 349.805985,210.08 C349.012648,210.08 348.369321,209.870002 347.875985,209.45 C347.382649,209.029998 347.135985,208.513336 347.135985,207.9 C347.135985,207.17333 347.425982,206.586669 348.005985,206.14 C347.585983,205.746665 347.375985,205.283336 347.375985,204.75 C347.375985,204.216664 347.60765,203.766669 348.070985,203.4 C348.534321,203.033332 349.112648,202.85 349.805985,202.85 Z M349.805985,208.78 C350.07932,208.78 350.332651,208.701667 350.565985,208.545 C350.79932,208.388333 350.915985,208.160002 350.915985,207.86 C350.915985,207.559999 350.802653,207.330001 350.575985,207.17 C350.349317,207.009999 350.092653,206.93 349.805985,206.93 C349.519317,206.93 349.262653,207.009999 349.035985,207.17 C348.809317,207.330001 348.695985,207.559999 348.695985,207.86 C348.695985,208.160002 348.812651,208.388333 349.045985,208.545 C349.27932,208.701667 349.532651,208.78 349.805985,208.78 Z M349.805985,205.73 C350.05932,205.73 350.280984,205.650001 350.470985,205.49 C350.660986,205.329999 350.755985,205.131668 350.755985,204.895 C350.755985,204.658332 350.662653,204.460001 350.475985,204.3 C350.289318,204.139999 350.065987,204.06 349.805985,204.06 C349.545984,204.06 349.322653,204.139999 349.135985,204.3 C348.949318,204.460001 348.855985,204.658332 348.855985,204.895 C348.855985,205.131668 348.950984,205.329999 349.140985,205.49 C349.330986,205.650001 349.552651,205.73 349.805985,205.73 Z" id="18" fill="#FFFFFF"></path>
                <path d="M364.940985,203.01 L367.770985,203.01 L367.770985,210 L366.270985,210 L366.270985,204.34 L364.940985,204.34 L364.940985,203.01 Z M371.410985,208.74 C371.844321,208.74 372.179317,208.595001 372.415985,208.305 C372.652653,208.014999 372.797652,207.620003 372.850985,207.12 C372.424316,207.406668 371.964321,207.55 371.470985,207.55 C370.817649,207.55 370.272654,207.335002 369.835985,206.905 C369.399316,206.474998 369.180985,205.90667 369.180985,205.2 C369.180985,204.49333 369.415983,203.925002 369.885985,203.495 C370.355988,203.064998 370.947648,202.85 371.660985,202.85 C372.154321,202.85 372.58265,202.944999 372.945985,203.135 C373.30932,203.325001 373.594318,203.589998 373.800985,203.93 C374.194321,204.590003 374.390985,205.416662 374.390985,206.41 C374.390985,207.050003 374.312653,207.611664 374.155985,208.095 C373.999318,208.578336 373.787653,208.959999 373.520985,209.24 C372.974316,209.800003 372.310989,210.08 371.530985,210.08 C371.204317,210.08 370.890987,210.031667 370.590985,209.935 C370.290984,209.838333 370.064319,209.741667 369.910985,209.645 C369.757651,209.548333 369.580986,209.423334 369.380985,209.27 L370.160985,208.17 C370.207652,208.21 370.269318,208.261666 370.345985,208.325 C370.422652,208.388334 370.570984,208.473333 370.790985,208.58 C371.010986,208.686667 371.217651,208.74 371.410985,208.74 Z M372.400985,205.95 C372.607653,205.769999 372.710985,205.533335 372.710985,205.24 C372.710985,204.946665 372.610986,204.693334 372.410985,204.48 C372.210984,204.266666 371.960987,204.16 371.660985,204.16 C371.360984,204.16 371.115986,204.254999 370.925985,204.445 C370.735984,204.635001 370.640985,204.876665 370.640985,205.17 C370.640985,205.463335 370.727651,205.711666 370.900985,205.915 C371.074319,206.118334 371.315984,206.22 371.625985,206.22 C371.935987,206.22 372.194318,206.130001 372.400985,205.95 Z" id="19" fill="#FFFFFF"></path>
                <path d="M386.883892,205.735 C387.060559,205.484999 387.148892,205.243335 387.148892,205.01 C387.148892,204.776666 387.072226,204.581667 386.918892,204.425 C386.765558,204.268333 386.568893,204.19 386.328892,204.19 C385.888889,204.19 385.472227,204.50333 385.078892,205.13 L383.828892,204.39 C384.15556,203.883331 384.51389,203.500001 384.903892,203.24 C385.293894,202.979999 385.790555,202.85 386.393892,202.85 C386.997228,202.85 387.527223,203.041665 387.983892,203.425 C388.440561,203.808335 388.668892,204.329997 388.668892,204.99 C388.668892,205.350002 388.577226,205.694998 388.393892,206.025 C388.210557,206.355002 387.872227,206.776664 387.378892,207.29 L386.118892,208.6 L388.878892,208.6 L388.878892,210 L383.948892,210 L383.948892,208.84 L385.998892,206.74 C386.412227,206.319998 386.707224,205.985001 386.883892,205.735 Z M391.508892,206.47 C391.508892,207.170004 391.618891,207.733331 391.838892,208.16 C392.058893,208.586669 392.402223,208.8 392.868892,208.8 C393.335561,208.8 393.678891,208.586669 393.898892,208.16 C394.118893,207.733331 394.228892,207.170004 394.228892,206.47 C394.228892,205.769997 394.118893,205.206669 393.898892,204.78 C393.678891,204.353331 393.335561,204.14 392.868892,204.14 C392.402223,204.14 392.058893,204.353331 391.838892,204.78 C391.618891,205.206669 391.508892,205.769997 391.508892,206.47 Z M390.698892,209.095 C390.218889,208.43833 389.978892,207.561672 389.978892,206.465 C389.978892,205.368328 390.218889,204.49167 390.698892,203.835 C391.178894,203.17833 391.90222,202.85 392.868892,202.85 C393.835563,202.85 394.558889,203.17833 395.038892,203.835 C395.518894,204.49167 395.758892,205.368328 395.758892,206.465 C395.758892,207.561672 395.518894,208.43833 395.038892,209.095 C394.558889,209.75167 393.835563,210.08 392.868892,210.08 C391.90222,210.08 391.178894,209.75167 390.698892,209.095 Z" id="20" fill="#FFFFFF"></path>
                <path d="M408.265985,205.735 C408.442653,205.484999 408.530985,205.243335 408.530985,205.01 C408.530985,204.776666 408.454319,204.581667 408.300985,204.425 C408.147651,204.268333 407.950986,204.19 407.710985,204.19 C407.270983,204.19 406.854321,204.50333 406.460985,205.13 L405.210985,204.39 C405.537654,203.883331 405.895983,203.500001 406.285985,203.24 C406.675987,202.979999 407.172649,202.85 407.775985,202.85 C408.379322,202.85 408.909316,203.041665 409.365985,203.425 C409.822654,203.808335 410.050985,204.329997 410.050985,204.99 C410.050985,205.350002 409.959319,205.694998 409.775985,206.025 C409.592651,206.355002 409.254321,206.776664 408.760985,207.29 L407.500985,208.6 L410.260985,208.6 L410.260985,210 L405.330985,210 L405.330985,208.84 L407.380985,206.74 C407.794321,206.319998 408.089318,205.985001 408.265985,205.735 Z M411.110985,203.01 L413.940985,203.01 L413.940985,210 L412.440985,210 L412.440985,204.34 L411.110985,204.34 L411.110985,203.01 Z" id="21" fill="#FFFFFF"></path>
                <path d="M428.308892,205.735 C428.485559,205.484999 428.573892,205.243335 428.573892,205.01 C428.573892,204.776666 428.497226,204.581667 428.343892,204.425 C428.190558,204.268333 427.993893,204.19 427.753892,204.19 C427.313889,204.19 426.897227,204.50333 426.503892,205.13 L425.253892,204.39 C425.58056,203.883331 425.93889,203.500001 426.328892,203.24 C426.718894,202.979999 427.215555,202.85 427.818892,202.85 C428.422228,202.85 428.952223,203.041665 429.408892,203.425 C429.865561,203.808335 430.093892,204.329997 430.093892,204.99 C430.093892,205.350002 430.002226,205.694998 429.818892,206.025 C429.635557,206.355002 429.297227,206.776664 428.803892,207.29 L427.543892,208.6 L430.303892,208.6 L430.303892,210 L425.373892,210 L425.373892,208.84 L427.423892,206.74 C427.837227,206.319998 428.132224,205.985001 428.308892,205.735 Z M434.358892,205.735 C434.535559,205.484999 434.623892,205.243335 434.623892,205.01 C434.623892,204.776666 434.547226,204.581667 434.393892,204.425 C434.240558,204.268333 434.043893,204.19 433.803892,204.19 C433.363889,204.19 432.947227,204.50333 432.553892,205.13 L431.303892,204.39 C431.63056,203.883331 431.98889,203.500001 432.378892,203.24 C432.768894,202.979999 433.265555,202.85 433.868892,202.85 C434.472228,202.85 435.002223,203.041665 435.458892,203.425 C435.915561,203.808335 436.143892,204.329997 436.143892,204.99 C436.143892,205.350002 436.052226,205.694998 435.868892,206.025 C435.685557,206.355002 435.347227,206.776664 434.853892,207.29 L433.593892,208.6 L436.353892,208.6 L436.353892,210 L431.423892,210 L431.423892,208.84 L433.473892,206.74 C433.887227,206.319998 434.182224,205.985001 434.358892,205.735 Z" id="22" fill="#FFFFFF"></path>
                <path d="M447.852438,205.735 C448.029106,205.484999 448.117438,205.243335 448.117438,205.01 C448.117438,204.776666 448.040773,204.581667 447.887438,204.425 C447.734104,204.268333 447.53744,204.19 447.297438,204.19 C446.857436,204.19 446.440774,204.50333 446.047438,205.13 L444.797438,204.39 C445.124107,203.883331 445.482436,203.500001 445.872438,203.24 C446.26244,202.979999 446.759102,202.85 447.362438,202.85 C447.965775,202.85 448.495769,203.041665 448.952438,203.425 C449.409107,203.808335 449.637438,204.329997 449.637438,204.99 C449.637438,205.350002 449.545773,205.694998 449.362438,206.025 C449.179104,206.355002 448.840774,206.776664 448.347438,207.29 L447.087438,208.6 L449.847438,208.6 L449.847438,210 L444.917438,210 L444.917438,208.84 L446.967438,206.74 C447.380774,206.319998 447.675771,205.985001 447.852438,205.735 Z M451.137438,204.34 L451.137438,203.01 L455.417438,203.01 L455.417438,204.09 L453.987438,205.72 C454.547441,205.813334 454.98077,206.048331 455.287438,206.425 C455.594107,206.801669 455.747438,207.236664 455.747438,207.73 C455.747438,208.463337 455.499108,209.038331 455.002438,209.455 C454.505769,209.871669 453.870776,210.08 453.097438,210.08 C452.324101,210.08 451.540776,209.806669 450.747438,209.26 L451.387438,208.02 C452.047442,208.486669 452.637436,208.72 453.157438,208.72 C453.470773,208.72 453.729104,208.643334 453.932438,208.49 C454.135773,208.336666 454.237438,208.115001 454.237438,207.825 C454.237438,207.534999 454.120773,207.305001 453.887438,207.135 C453.654104,206.964999 453.330774,206.88 452.917438,206.88 C452.697437,206.88 452.38744,206.943333 451.987438,207.07 L451.987438,205.92 L453.327438,204.34 L451.137438,204.34 Z" id="23" fill="#FFFFFF"></path>
                <path d="M468.867438,205.735 C469.044106,205.484999 469.132438,205.243335 469.132438,205.01 C469.132438,204.776666 469.055773,204.581667 468.902438,204.425 C468.749104,204.268333 468.55244,204.19 468.312438,204.19 C467.872436,204.19 467.455774,204.50333 467.062438,205.13 L465.812438,204.39 C466.139107,203.883331 466.497436,203.500001 466.887438,203.24 C467.27744,202.979999 467.774102,202.85 468.377438,202.85 C468.980775,202.85 469.510769,203.041665 469.967438,203.425 C470.424107,203.808335 470.652438,204.329997 470.652438,204.99 C470.652438,205.350002 470.560773,205.694998 470.377438,206.025 C470.194104,206.355002 469.855774,206.776664 469.362438,207.29 L468.102438,208.6 L470.862438,208.6 L470.862438,210 L465.932438,210 L465.932438,208.84 L467.982438,206.74 C468.395774,206.319998 468.690771,205.985001 468.867438,205.735 Z M474.572438,206.98 L474.572438,205.76 L476.072438,205.76 L476.072438,206.98 L476.862438,206.98 L476.862438,208.33 L476.072438,208.33 L476.072438,210 L474.572438,210 L474.572438,208.33 L471.762438,208.33 L471.762438,207.14 L474.252438,203.01 L475.952438,203.01 L473.582438,206.98 L474.572438,206.98 Z" id="24" fill="#FFFFFF"></path>
                <path d="M489.353892,205.735 C489.530559,205.484999 489.618892,205.243335 489.618892,205.01 C489.618892,204.776666 489.542226,204.581667 489.388892,204.425 C489.235558,204.268333 489.038893,204.19 488.798892,204.19 C488.358889,204.19 487.942227,204.50333 487.548892,205.13 L486.298892,204.39 C486.62556,203.883331 486.98389,203.500001 487.373892,203.24 C487.763894,202.979999 488.260555,202.85 488.863892,202.85 C489.467228,202.85 489.997223,203.041665 490.453892,203.425 C490.910561,203.808335 491.138892,204.329997 491.138892,204.99 C491.138892,205.350002 491.047226,205.694998 490.863892,206.025 C490.680557,206.355002 490.342227,206.776664 489.848892,207.29 L488.588892,208.6 L491.348892,208.6 L491.348892,210 L486.418892,210 L486.418892,208.84 L488.468892,206.74 C488.882227,206.319998 489.177224,205.985001 489.353892,205.735 Z M496.948892,203.01 L496.948892,204.36 L494.188892,204.36 L494.188892,205.53 C494.395559,205.47 494.632224,205.44 494.898892,205.44 C495.572228,205.44 496.152223,205.643331 496.638892,206.05 C497.125561,206.456669 497.368892,207.004997 497.368892,207.695 C497.368892,208.385003 497.117227,208.954998 496.613892,209.405 C496.110556,209.855002 495.488895,210.08 494.748892,210.08 C493.80222,210.08 493.012228,209.730004 492.378892,209.03 L493.198892,207.89 C493.258892,207.95 493.338891,208.023333 493.438892,208.11 C493.538892,208.196667 493.722224,208.311666 493.988892,208.455 C494.25556,208.598334 494.522224,208.67 494.788892,208.67 C495.05556,208.67 495.292224,208.590001 495.498892,208.43 C495.705559,208.269999 495.808892,208.033335 495.808892,207.72 C495.808892,207.406665 495.697226,207.165001 495.473892,206.995 C495.250557,206.824999 494.962227,206.74 494.608892,206.74 C494.255557,206.74 493.845561,206.866665 493.378892,207.12 L492.728892,206.42 L492.728892,203.01 L496.948892,203.01 Z" id="25" fill="#FFFFFF"></path>
                <path d="M509.183892,205.735 C509.360559,205.484999 509.448892,205.243335 509.448892,205.01 C509.448892,204.776666 509.372226,204.581667 509.218892,204.425 C509.065558,204.268333 508.868893,204.19 508.628892,204.19 C508.188889,204.19 507.772227,204.50333 507.378892,205.13 L506.128892,204.39 C506.45556,203.883331 506.81389,203.500001 507.203892,203.24 C507.593894,202.979999 508.090555,202.85 508.693892,202.85 C509.297228,202.85 509.827223,203.041665 510.283892,203.425 C510.740561,203.808335 510.968892,204.329997 510.968892,204.99 C510.968892,205.350002 510.877226,205.694998 510.693892,206.025 C510.510557,206.355002 510.172227,206.776664 509.678892,207.29 L508.418892,208.6 L511.178892,208.6 L511.178892,210 L506.248892,210 L506.248892,208.84 L508.298892,206.74 C508.712227,206.319998 509.007224,205.985001 509.183892,205.735 Z M515.258892,204.19 C514.825556,204.19 514.490559,204.334999 514.253892,204.625 C514.017224,204.915001 513.872225,205.309998 513.818892,205.81 C514.252227,205.529999 514.712223,205.39 515.198892,205.39 C515.852228,205.39 516.397223,205.603331 516.833892,206.03 C517.27056,206.456669 517.488892,207.024996 517.488892,207.735 C517.488892,208.445004 517.253894,209.013331 516.783892,209.44 C516.313889,209.866669 515.722229,210.08 515.008892,210.08 C514.515556,210.08 514.087227,209.985001 513.723892,209.795 C513.360556,209.604999 513.078893,209.340002 512.878892,209 C512.47889,208.339997 512.278892,207.513338 512.278892,206.52 C512.278892,205.879997 512.357224,205.318336 512.513892,204.835 C512.670559,204.351664 512.885557,203.970001 513.158892,203.69 C513.692228,203.129997 514.352221,202.85 515.138892,202.85 C515.46556,202.85 515.777223,202.898333 516.073892,202.995 C516.37056,203.091667 516.598891,203.19 516.758892,203.29 C516.918892,203.390001 517.095557,203.516666 517.288892,203.67 L516.548892,204.77 C516.508891,204.73 516.450559,204.676667 516.373892,204.61 C516.297225,204.543333 516.145559,204.456667 515.918892,204.35 C515.692224,204.243333 515.472226,204.19 515.258892,204.19 Z M514.273892,206.985 C514.063891,207.168334 513.958892,207.406665 513.958892,207.7 C513.958892,207.993335 514.058891,208.244999 514.258892,208.455 C514.458893,208.665001 514.70889,208.77 515.008892,208.77 C515.308893,208.77 515.558891,208.676668 515.758892,208.49 C515.958893,208.303332 516.058892,208.061668 516.058892,207.765 C516.058892,207.468332 515.968893,207.218334 515.788892,207.015 C515.608891,206.811666 515.363893,206.71 515.053892,206.71 C514.74389,206.71 514.483893,206.801666 514.273892,206.985 Z" id="26" fill="#FFFFFF"></path>
                <path d="M529.912438,205.735 C530.089106,205.484999 530.177438,205.243335 530.177438,205.01 C530.177438,204.776666 530.100773,204.581667 529.947438,204.425 C529.794104,204.268333 529.59744,204.19 529.357438,204.19 C528.917436,204.19 528.500774,204.50333 528.107438,205.13 L526.857438,204.39 C527.184107,203.883331 527.542436,203.500001 527.932438,203.24 C528.32244,202.979999 528.819102,202.85 529.422438,202.85 C530.025775,202.85 530.555769,203.041665 531.012438,203.425 C531.469107,203.808335 531.697438,204.329997 531.697438,204.99 C531.697438,205.350002 531.605773,205.694998 531.422438,206.025 C531.239104,206.355002 530.900774,206.776664 530.407438,207.29 L529.147438,208.6 L531.907438,208.6 L531.907438,210 L526.977438,210 L526.977438,208.84 L529.027438,206.74 C529.440774,206.319998 529.735771,205.985001 529.912438,205.735 Z M532.917438,205.25 L532.917438,203.01 L537.967438,203.01 L537.967438,204.19 L535.137438,210 L533.437438,210 L536.137438,204.35 L534.377438,204.35 L534.377438,205.25 L532.917438,205.25 Z" id="27" fill="#FFFFFF"></path>
                <path d="M550.123892,205.735 C550.300559,205.484999 550.388892,205.243335 550.388892,205.01 C550.388892,204.776666 550.312226,204.581667 550.158892,204.425 C550.005558,204.268333 549.808893,204.19 549.568892,204.19 C549.128889,204.19 548.712227,204.50333 548.318892,205.13 L547.068892,204.39 C547.39556,203.883331 547.75389,203.500001 548.143892,203.24 C548.533894,202.979999 549.030555,202.85 549.633892,202.85 C550.237228,202.85 550.767223,203.041665 551.223892,203.425 C551.680561,203.808335 551.908892,204.329997 551.908892,204.99 C551.908892,205.350002 551.817226,205.694998 551.633892,206.025 C551.450557,206.355002 551.112227,206.776664 550.618892,207.29 L549.358892,208.6 L552.118892,208.6 L552.118892,210 L547.188892,210 L547.188892,208.84 L549.238892,206.74 C549.652227,206.319998 549.947224,205.985001 550.123892,205.735 Z M555.868892,202.85 C556.562228,202.85 557.138889,203.033332 557.598892,203.4 C558.058894,203.766669 558.288892,204.218331 558.288892,204.755 C558.288892,205.291669 558.082227,205.753331 557.668892,206.14 C558.248895,206.586669 558.538892,207.17333 558.538892,207.9 C558.538892,208.513336 558.292227,209.029998 557.798892,209.45 C557.305556,209.870002 556.662229,210.08 555.868892,210.08 C555.075554,210.08 554.432227,209.870002 553.938892,209.45 C553.445556,209.029998 553.198892,208.513336 553.198892,207.9 C553.198892,207.17333 553.488889,206.586669 554.068892,206.14 C553.64889,205.746665 553.438892,205.283336 553.438892,204.75 C553.438892,204.216664 553.670556,203.766669 554.133892,203.4 C554.597227,203.033332 555.175555,202.85 555.868892,202.85 Z M555.868892,208.78 C556.142226,208.78 556.395557,208.701667 556.628892,208.545 C556.862226,208.388333 556.978892,208.160002 556.978892,207.86 C556.978892,207.559999 556.865559,207.330001 556.638892,207.17 C556.412224,207.009999 556.15556,206.93 555.868892,206.93 C555.582224,206.93 555.325559,207.009999 555.098892,207.17 C554.872224,207.330001 554.758892,207.559999 554.758892,207.86 C554.758892,208.160002 554.875557,208.388333 555.108892,208.545 C555.342226,208.701667 555.595557,208.78 555.868892,208.78 Z M555.868892,205.73 C556.122226,205.73 556.343891,205.650001 556.533892,205.49 C556.723893,205.329999 556.818892,205.131668 556.818892,204.895 C556.818892,204.658332 556.725559,204.460001 556.538892,204.3 C556.352224,204.139999 556.128893,204.06 555.868892,204.06 C555.60889,204.06 555.385559,204.139999 555.198892,204.3 C555.012224,204.460001 554.918892,204.658332 554.918892,204.895 C554.918892,205.131668 555.013891,205.329999 555.203892,205.49 C555.393893,205.650001 555.615557,205.73 555.868892,205.73 Z" id="28" fill="#FFFFFF"></path>
                <path d="M570.188892,205.735 C570.365559,205.484999 570.453892,205.243335 570.453892,205.01 C570.453892,204.776666 570.377226,204.581667 570.223892,204.425 C570.070558,204.268333 569.873893,204.19 569.633892,204.19 C569.193889,204.19 568.777227,204.50333 568.383892,205.13 L567.133892,204.39 C567.46056,203.883331 567.81889,203.500001 568.208892,203.24 C568.598894,202.979999 569.095555,202.85 569.698892,202.85 C570.302228,202.85 570.832223,203.041665 571.288892,203.425 C571.745561,203.808335 571.973892,204.329997 571.973892,204.99 C571.973892,205.350002 571.882226,205.694998 571.698892,206.025 C571.515557,206.355002 571.177227,206.776664 570.683892,207.29 L569.423892,208.6 L572.183892,208.6 L572.183892,210 L567.253892,210 L567.253892,208.84 L569.303892,206.74 C569.717227,206.319998 570.012224,205.985001 570.188892,205.735 Z M575.473892,208.74 C575.907227,208.74 576.242224,208.595001 576.478892,208.305 C576.715559,208.014999 576.860558,207.620003 576.913892,207.12 C576.487223,207.406668 576.027227,207.55 575.533892,207.55 C574.880555,207.55 574.33556,207.335002 573.898892,206.905 C573.462223,206.474998 573.243892,205.90667 573.243892,205.2 C573.243892,204.49333 573.478889,203.925002 573.948892,203.495 C574.418894,203.064998 575.010555,202.85 575.723892,202.85 C576.217227,202.85 576.645556,202.944999 577.008892,203.135 C577.372227,203.325001 577.657224,203.589998 577.863892,203.93 C578.257227,204.590003 578.453892,205.416662 578.453892,206.41 C578.453892,207.050003 578.375559,207.611664 578.218892,208.095 C578.062224,208.578336 577.85056,208.959999 577.583892,209.24 C577.037222,209.800003 576.373896,210.08 575.593892,210.08 C575.267223,210.08 574.953893,210.031667 574.653892,209.935 C574.35389,209.838333 574.127226,209.741667 573.973892,209.645 C573.820558,209.548333 573.643893,209.423334 573.443892,209.27 L574.223892,208.17 C574.270559,208.21 574.332225,208.261666 574.408892,208.325 C574.485559,208.388334 574.633891,208.473333 574.853892,208.58 C575.073893,208.686667 575.280557,208.74 575.473892,208.74 Z M576.463892,205.95 C576.670559,205.769999 576.773892,205.533335 576.773892,205.24 C576.773892,204.946665 576.673893,204.693334 576.473892,204.48 C576.273891,204.266666 576.023893,204.16 575.723892,204.16 C575.42389,204.16 575.178893,204.254999 574.988892,204.445 C574.798891,204.635001 574.703892,204.876665 574.703892,205.17 C574.703892,205.463335 574.790557,205.711666 574.963892,205.915 C575.137226,206.118334 575.37889,206.22 575.688892,206.22 C575.998893,206.22 576.257224,206.130001 576.463892,205.95 Z" id="29" fill="#FFFFFF"></path>
                <path d="M586.188892,204.34 L586.188892,203.01 L590.468892,203.01 L590.468892,204.09 L589.038892,205.72 C589.598894,205.813334 590.032223,206.048331 590.338892,206.425 C590.64556,206.801669 590.798892,207.236664 590.798892,207.73 C590.798892,208.463337 590.550561,209.038331 590.053892,209.455 C589.557222,209.871669 588.922229,210.08 588.148892,210.08 C587.375554,210.08 586.592229,209.806669 585.798892,209.26 L586.438892,208.02 C587.098895,208.486669 587.688889,208.72 588.208892,208.72 C588.522227,208.72 588.780557,208.643334 588.983892,208.49 C589.187226,208.336666 589.288892,208.115001 589.288892,207.825 C589.288892,207.534999 589.172226,207.305001 588.938892,207.135 C588.705557,206.964999 588.382227,206.88 587.968892,206.88 C587.748891,206.88 587.438894,206.943333 587.038892,207.07 L587.038892,205.92 L588.378892,204.34 L586.188892,204.34 Z M593.438892,206.47 C593.438892,207.170004 593.548891,207.733331 593.768892,208.16 C593.988893,208.586669 594.332223,208.8 594.798892,208.8 C595.265561,208.8 595.608891,208.586669 595.828892,208.16 C596.048893,207.733331 596.158892,207.170004 596.158892,206.47 C596.158892,205.769997 596.048893,205.206669 595.828892,204.78 C595.608891,204.353331 595.265561,204.14 594.798892,204.14 C594.332223,204.14 593.988893,204.353331 593.768892,204.78 C593.548891,205.206669 593.438892,205.769997 593.438892,206.47 Z M592.628892,209.095 C592.148889,208.43833 591.908892,207.561672 591.908892,206.465 C591.908892,205.368328 592.148889,204.49167 592.628892,203.835 C593.108894,203.17833 593.83222,202.85 594.798892,202.85 C595.765563,202.85 596.488889,203.17833 596.968892,203.835 C597.448894,204.49167 597.688892,205.368328 597.688892,206.465 C597.688892,207.561672 597.448894,208.43833 596.968892,209.095 C596.488889,209.75167 595.765563,210.08 594.798892,210.08 C593.83222,210.08 593.108894,209.75167 592.628892,209.095 Z" id="30" fill="#FFFFFF"></path>
            </g>
        </g>
    </g>
</svg>