<?xml version="1.0" encoding="UTF-8" standalone="no"?>
<svg width="518px" height="341px" viewBox="0 0 518 341" version="1.1" xmlns="http://www.w3.org/2000/svg" xmlns:xlink="http://www.w3.org/1999/xlink">
    <!-- Generator: Sketch 41.2 (35397) - http://www.bohemiancoding.com/sketch -->
    <title>Group 2</title>
    <desc>Created with Sketch.</desc>
    <defs>
        <linearGradient x1="50%" y1="0%" x2="50%" y2="100%" id="linearGradient-1">
            <stop stop-color="#F6F6F6" offset="0%"></stop>
            <stop stop-color="#989693" offset="100%"></stop>
        </linearGradient>
        <linearGradient x1="50%" y1="0%" x2="50%" y2="100%" id="linearGradient-2">
            <stop stop-color="#EFEFEE" offset="0%"></stop>
            <stop stop-color="#84827E" offset="100%"></stop>
        </linearGradient>
    </defs>
    <g id="Page-1" stroke="none" stroke-width="1" fill="none" fill-rule="evenodd">
        <g id="Desktop-HD-Copy-5" transform="translate(-122.000000, -913.000000)">
            <g id="Group-2" transform="translate(386.951786, 1074.657280) rotate(-7.000000) translate(-386.951786, -1074.657280) translate(133.451786, 924.157280)">
                <g id="Overstock_com" transform="translate(392.000000, 15.000000)" fill="#B4252E">
                    <g id="Group-16" transform="translate(-0.000000, -0.000000)">
                        <path d="M0,0.231684611 L0,44.7156056 C2.01189046,37.7327171 5.98044674,31.4101535 11.9309008,25.7560023 C20.92109,17.2131675 31.5246953,12.941988 43.7374321,12.941988 C51.3141564,12.941988 57.4598009,15.4434206 62.1715094,20.4448586 C66.8827417,25.4462966 69.2407383,31.9796123 69.2407383,40.0457573 C69.2407383,51.7199023 64.7242204,61.81079 55.6964213,70.3212746 C50.415804,75.2989257 44.5591366,78.8093995 38.1368928,80.8755314 L80.7008015,80.8755314 L80.7008015,0.231684611 L0,0.231684611 Z M50.5552938,69.2722714 C55.7978252,62.7665485 58.4181387,54.6932675 58.4181387,45.0471953 C58.4181387,36.9739143 56.3705427,30.2807504 52.2748745,24.967228 C48.1787303,19.6537056 43.0304616,16.9971823 36.8305446,16.9971823 C28.976745,16.9971823 22.4197722,20.2426698 17.15915,26.7322176 C11.8980517,33.2212896 9.26774054,41.3207362 9.26774054,51.0291302 C9.26774054,59.1380915 11.3158127,65.8317311 15.4114808,71.1119518 C19.507625,76.3926483 24.7115944,79.0306178 31.0243411,79.0306178 C38.8029209,79.0306178 45.3132384,75.7779943 50.5552938,69.2722714 L50.5552938,69.2722714 Z" id="Fill-15"></path>
                    </g>
                </g>
                <g id="Reddit_logo_and_wordmark" transform="translate(280.000000, 233.000000)">
                    <g id="svg2">
                        <g id="g12" transform="translate(91.500000, 32.500000) scale(1, -1) translate(-91.500000, -32.500000) ">
                            <g id="g16">
                                <g id="g18-Clipped">
                                    <g id="g18">
                                        <g id="g24" transform="translate(23.534384, 9.394497)" fill="#FFFFFF">
                                            <path d="M8.20121951,18.0426829 C12.1984939,18.0426829 15.4379756,14.1339817 15.4379756,9.31002439 C15.4379756,4.48442683 12.1984939,0.577365854 8.20121951,0.577365854 C4.20394512,0.577365854 0.967743902,4.48442683 0.967743902,9.31002439 C0.967743902,14.1339817 4.20394512,18.0426829 8.20121951,18.0426829" id="path26"></path>
                                        </g>
                                        <g id="g28" transform="translate(23.534384, 9.394497)" stroke="#000000" stroke-width="1.37500002">
                                            <path d="M8.20121951,18.0426829 C12.1984939,18.0426829 15.4379756,14.1339817 15.4379756,9.31002439 C15.4379756,4.48442683 12.1984939,0.577365854 8.20121951,0.577365854 C4.20394512,0.577365854 0.967743902,4.48442683 0.967743902,9.31002439 C0.967743902,14.1339817 4.20394512,18.0426829 8.20121951,18.0426829 Z" id="path30"></path>
                                        </g>
                                        <g id="g32" transform="translate(10.507895, 0.879335)" fill="#FFFFFF">
                                            <path d="M9.84146341,3.64207309e-16 C9.94479878,0.323128049 10.0186098,0.657737805 10.0186098,1.00875 C10.0186098,3.24112195 7.7862378,5.05031098 5.03226829,5.05031098 C2.27829878,5.05031098 0.0475670732,3.24112195 0.0475670732,1.00875 C0.0475670732,0.657737805 0.119737805,0.323128049 0.224713415,0 L9.84146341,3.64207309e-16 Z" id="path34"></path>
                                        </g>
                                        <g id="g36" transform="translate(10.507895, 0.879335)" stroke="#000000" stroke-width="1.37500002">
                                            <path d="M9.84146341,3.64207309e-16 C9.94479878,0.323128049 10.0186098,0.657737805 10.0186098,1.00875 C10.0186098,3.24112195 7.7862378,5.05031098 5.03226829,5.05031098 C2.27829878,5.05031098 0.0475670732,3.24112195 0.0475670732,1.00875 C0.0475670732,0.657737805 0.119737805,0.323128049 0.224713415,0 L9.84146341,3.64207309e-16 Z" id="path38"></path>
                                        </g>
                                        <g id="g40" transform="translate(27.969111, 0.879335)" fill="#FFFFFF">
                                            <path d="M9.84146341,3.64207309e-16 C9.94479878,0.323128049 10.0169695,0.657737805 10.0169695,1.00875 C10.0169695,3.24112195 7.78459756,5.05031098 5.03062805,5.05031098 C2.27665854,5.05031098 0.0459268293,3.24112195 0.0459268293,1.00875 C0.0459268293,0.657737805 0.118097561,0.323128049 0.221432927,0 L9.84146341,3.64207309e-16 Z" id="path42"></path>
                                        </g>
                                        <g id="g44" transform="translate(27.969111, 0.879335)" stroke="#000000" stroke-width="1.37500002">
                                            <path d="M9.84146341,3.64207309e-16 C9.94479878,0.323128049 10.0169695,0.657737805 10.0169695,1.00875 C10.0169695,3.24112195 7.78459756,5.05031098 5.03062805,5.05031098 C2.27665854,5.05031098 0.0459268293,3.24112195 0.0459268293,1.00875 C0.0459268293,0.657737805 0.118097561,0.323128049 0.221432927,0 L9.84146341,3.64207309e-16 Z" id="path46"></path>
                                        </g>
                                        <g id="g48" transform="translate(0.801751, 40.982806)" fill="#FFFFFF">
                                            <path d="M9.84146341,4.92073171 C9.84146341,2.47184756 7.85676829,0.488792683 5.40788415,0.488792683 C2.96064024,0.488792683 0.977585366,2.47184756 0.977585366,4.92073171 C0.977585366,7.36961585 2.96064024,9.35431098 5.40788415,9.35431098 C7.85676829,9.35431098 9.84146341,7.36961585 9.84146341,4.92073171" id="path50"></path>
                                        </g>
                                        <g id="g52" transform="translate(0.801751, 40.982806)" stroke="#000000" stroke-width="1.37500002">
                                            <path d="M9.84146341,4.92073171 C9.84146341,2.47184756 7.85676829,0.488792683 5.40788415,0.488792683 C2.96064024,0.488792683 0.977585366,2.47184756 0.977585366,4.92073171 C0.977585366,7.36961585 2.96064024,9.35431098 5.40788415,9.35431098 C7.85676829,9.35431098 9.84146341,7.36961585 9.84146341,4.92073171 Z" id="path54"></path>
                                        </g>
                                        <g id="g56" transform="translate(37.055242, 40.982806)" fill="#FFFFFF">
                                            <path d="M9.84146341,4.92073171 C9.84146341,2.47184756 7.85676829,0.488792683 5.40788415,0.488792683 C2.96064024,0.488792683 0.977585366,2.47184756 0.977585366,4.92073171 C0.977585366,7.36961585 2.96064024,9.35431098 5.40788415,9.35431098 C7.85676829,9.35431098 9.84146341,7.36961585 9.84146341,4.92073171" id="path58"></path>
                                        </g>
                                        <g id="g60" transform="translate(37.055242, 40.982806)" stroke="#000000" stroke-width="1.37500002">
                                            <path d="M9.84146341,4.92073171 C9.84146341,2.47184756 7.85676829,0.488792683 5.40788415,0.488792683 C2.96064024,0.488792683 0.977585366,2.47184756 0.977585366,4.92073171 C0.977585366,7.36961585 2.96064024,9.35431098 5.40788415,9.35431098 C7.85676829,9.35431098 9.84146341,7.36961585 9.84146341,4.92073171 Z" id="path62"></path>
                                        </g>
                                        <g id="g64" transform="translate(24.502399, 52.617984)" stroke-width="1.37500002" stroke="#000000">
                                            <polyline id="path66" points="12.1219512 8.84146341 3.25807317 10.9278537 0.000548780487 0.630402439"></polyline>
                                        </g>
                                        <g id="g68" transform="translate(8.610460, 9.394497)" fill="#FFFFFF">
                                            <path d="M8.20121951,18.0426829 C12.1984939,18.0426829 15.4363354,14.1339817 15.4363354,9.31002439 C15.4363354,4.48442683 12.1984939,0.577365854 8.20121951,0.577365854 C4.20558537,0.577365854 0.967743902,4.48442683 0.967743902,9.31002439 C0.967743902,14.1339817 4.20558537,18.0426829 8.20121951,18.0426829" id="path70"></path>
                                        </g>
                                        <g id="g72" transform="translate(8.610460, 9.394497)" stroke="#000000" stroke-width="1.37500002">
                                            <path d="M8.20121951,18.0426829 C12.1984939,18.0426829 15.4363354,14.1339817 15.4363354,9.31002439 C15.4363354,4.48442683 12.1984939,0.577365854 8.20121951,0.577365854 C4.20558537,0.577365854 0.967743902,4.48442683 0.967743902,9.31002439 C0.967743902,14.1339817 4.20558537,18.0426829 8.20121951,18.0426829 Z" id="path74"></path>
                                        </g>
                                        <g id="g76" transform="translate(36.534408, 56.821929)" fill="#FFFFFF">
                                            <path d="M7.20121951,3.92073171 C7.20121951,1.99180488 5.63642683,0.427012195 3.70914024,0.427012195 C1.77693293,0.427012195 0.213780488,1.99180488 0.213780488,3.92073171 C0.213780488,5.85129878 1.77693293,7.41445122 3.70914024,7.41445122 C5.63642683,7.41445122 7.20121951,5.85129878 7.20121951,3.92073171" id="path78"></path>
                                        </g>
                                        <g id="g80" transform="translate(36.534408, 56.821929)" stroke="#000000" stroke-width="1.37500002">
                                            <path d="M7.20121951,3.92073171 C7.20121951,1.99180488 5.63642683,0.427012195 3.70914024,0.427012195 C1.77693293,0.427012195 0.213780488,1.99180488 0.213780488,3.92073171 C0.213780488,5.85129878 1.77693293,7.41445122 3.70914024,7.41445122 C5.63642683,7.41445122 7.20121951,5.85129878 7.20121951,3.92073171 Z" id="path82"></path>
                                        </g>
                                        <g id="g84" transform="translate(13.588109, 0.874578)" fill="#FFFFFF">
                                            <path d="M8.20121951,0 L13.1055488,0 C17.4620366,2.26681707 20.6900366,10.3991463 20.6900366,20.1110305 C20.6900366,31.5763354 16.1957683,40.8699573 10.6533841,40.8699573 C5.10935976,40.8699573 0.616731707,31.5763354 0.616731707,20.1110305 C0.616731707,10.3991463 3.84473171,2.26681707 8.20121951,0" id="path86"></path>
                                        </g>
                                        <g id="g88" transform="translate(13.588109, 0.874578)" stroke="#000000" stroke-width="1.37500002">
                                            <path d="M8.20121951,0 L13.1055488,0 C17.4620366,2.26681707 20.6900366,10.3991463 20.6900366,20.1110305 C20.6900366,31.5763354 16.1957683,40.8699573 10.6533841,40.8699573 C5.10935976,40.8699573 0.616731707,31.5763354 0.616731707,20.1110305 C0.616731707,10.3991463 3.84473171,2.26681707 8.20121951,0 Z" id="path90"></path>
                                        </g>
                                        <g id="g92" transform="translate(3.309356, 26.685948)" fill="#FFFFFF">
                                            <path d="M41.0060976,13.1219512 C41.0060976,5.88683537 32.0192012,0.0229634146 20.9311524,0.0229634146 C9.8447439,0.0229634146 0.857847561,5.88683537 0.857847561,13.1219512 C0.857847561,20.3570671 9.8447439,26.2225793 20.9311524,26.2225793 C32.0192012,26.2225793 41.0060976,20.3570671 41.0060976,13.1219512" id="path94"></path>
                                        </g>
                                        <g id="g96" transform="translate(3.309356, 26.685948)" stroke="#000000" stroke-width="1.37500002">
                                            <path d="M41.0060976,13.1219512 C41.0060976,5.88683537 32.0192012,0.0229634146 20.9311524,0.0229634146 C9.8447439,0.0229634146 0.857847561,5.88683537 0.857847561,13.1219512 C0.857847561,20.3570671 9.8447439,26.2225793 20.9311524,26.2225793 C32.0192012,26.2225793 41.0060976,20.3570671 41.0060976,13.1219512 Z" id="path98"></path>
                                        </g>
                                        <g id="g100" transform="translate(18.961384, 0.879335)" stroke="#000000" stroke-width="1.37500002">
                                            <path d="M0,0 L10.8190488,0" id="path102"></path>
                                        </g>
                                        <g id="g104" transform="translate(56.897601, 0.680701)" fill="#000000">
                                            <path d="M0,26.2439024 C0,26.9721707 0.218152439,27.5511768 0.657737805,27.9809207 C1.09732317,28.4057439 1.6287622,28.6222561 2.25533537,28.6222561 C2.89339024,28.6222561 3.43795122,28.4123049 3.88409756,27.9940427 C4.33352439,27.5708598 4.5582378,26.9902134 4.5582378,26.2439024 L4.5582378,23.880311 L4.66157317,23.880311 C5.35211585,25.0875305 6.25753049,26.1782927 7.38437805,27.1542378 C8.51122561,28.1269024 9.69220122,28.641939 10.9256646,28.6927866 C11.6178476,28.6927866 12.2280183,28.4631524 12.7627378,28.0104451 C13.2958171,27.5560976 13.5664573,26.9934939 13.5664573,26.3177134 C13.5664573,25.5271159 13.2925366,24.9481098 12.7446951,24.5757744 C12.1968537,24.203439 11.3996951,23.8835915 10.3548598,23.6129512 C9.31166463,23.3406707 8.6342439,23.1241585 8.3242378,22.9519329 C5.81302439,21.5905305 4.5582378,19.2597439 4.5582378,15.9612134 L4.5582378,2.38655488 C4.5582378,1.63368293 4.34664634,1.0497561 3.92346341,0.636414634 C3.50028049,0.221432927 2.97704268,0.0147621951 2.35539024,0.0147621951 C1.69765244,0.0147621951 1.13996951,0.23127439 0.683981707,0.665939024 C0.226353659,1.10388415 0,1.71569512 0,2.49481098 L0,26.2439024 Z" id="path106"></path>
                                        </g>
                                        <g id="g108" transform="translate(56.897601, 0.680701)" stroke="#000000" stroke-width="0.747499988">
                                            <path d="M0,26.2439024 C0,26.9721707 0.218152439,27.5511768 0.657737805,27.9809207 C1.09732317,28.4057439 1.6287622,28.6222561 2.25533537,28.6222561 C2.89339024,28.6222561 3.43795122,28.4123049 3.88409756,27.9940427 C4.33352439,27.5708598 4.5582378,26.9902134 4.5582378,26.2439024 L4.5582378,23.880311 L4.66157317,23.880311 C5.35211585,25.0875305 6.25753049,26.1782927 7.38437805,27.1542378 C8.51122561,28.1269024 9.69220122,28.641939 10.9256646,28.6927866 C11.6178476,28.6927866 12.2280183,28.4631524 12.7627378,28.0104451 C13.2958171,27.5560976 13.5664573,26.9934939 13.5664573,26.3177134 C13.5664573,25.5271159 13.2925366,24.9481098 12.7446951,24.5757744 C12.1968537,24.203439 11.3996951,23.8835915 10.3548598,23.6129512 C9.31166463,23.3406707 8.6342439,23.1241585 8.3242378,22.9519329 C5.81302439,21.5905305 4.5582378,19.2597439 4.5582378,15.9612134 L4.5582378,2.38655488 C4.5582378,1.63368293 4.34664634,1.0497561 3.92346341,0.636414634 C3.50028049,0.221432927 2.97704268,0.0147621951 2.35539024,0.0147621951 C1.69765244,0.0147621951 1.13996951,0.23127439 0.683981707,0.665939024 C0.226353659,1.10388415 0,1.71569512 0,2.49481098 L0,26.2439024 Z" id="path110"></path>
                                        </g>
                                        <g id="g112" transform="translate(71.367504, 0.349208)" fill="#000000">
                                            <path d="M4.92073171,16.402439 L20.3455854,16.402439 C20.296378,18.9759817 19.6107561,21.0377683 18.2903598,22.6042012 C16.9699634,24.1673537 15.1624146,24.9776341 12.8644329,25.0284817 C10.5254451,25.0284817 8.64408537,24.2690488 7.21543293,22.7600244 C5.78842073,21.2477195 5.02406707,19.1268841 4.92073171,16.402439 M0.254237805,14.936061 C0.357573171,17.3308171 0.908695122,19.5992744 1.90268293,21.7512744 C2.89831098,23.8967134 4.31712195,25.635372 6.1607561,26.9721707 C8.00275,28.3073293 10.1695122,28.9896707 12.6594024,29.0241159 C15.0754817,29.0241159 17.222561,28.372939 19.1006402,27.0689451 C20.975439,25.7649512 22.4237744,24.0394146 23.4440061,21.8906951 C24.465878,19.7386951 24.9759939,17.4948415 24.9759939,15.1492927 C24.9759939,13.6468293 24.1181463,12.8939573 22.4024512,12.8939573 L4.92073171,12.8939573 C4.95517683,11.0306402 5.35211585,9.45436585 6.11646951,8.17169512 C6.87918293,6.88902439 7.89941463,5.93112195 9.18208537,5.29470732 C10.4631159,4.65993293 11.8819268,4.34336585 13.443439,4.34336585 C16.1777256,4.34336585 18.6905793,5.30946951 20.9770793,7.24495732 C21.7643963,7.81412195 22.3434024,8.0962439 22.7124573,8.0962439 C23.2274939,8.0962439 23.6260732,7.90433537 23.9147561,7.52215854 C24.2017988,7.13998171 24.3445,6.67579268 24.3445,6.1345122 C24.3445,5.54894512 24.1181463,4.98634146 23.665439,4.44670122 C22.6337256,3.35265854 21.1722683,2.39639634 19.2810671,1.57627439 C17.3898659,0.756152439 15.3543232,0.346091463 13.1760793,0.346091463 C10.8928598,0.346091463 8.90816463,0.774195122 7.22363415,1.63696341 C5.53746341,2.49481098 4.18098171,3.64134146 3.15090854,5.06179268 C2.11919512,6.48388415 1.36960366,8.02243293 0.897213415,9.67415854 C0.426463415,11.3209634 0.177146341,12.9907317 0.152542683,14.6785427 C0.196829268,14.7638354 0.223073171,14.8278049 0.236195122,14.8638902 C0.247676829,14.9048963 0.254237805,14.9262195 0.254237805,14.936061" id="path114"></path>
                                        </g>
                                        <g id="g116" transform="translate(71.367504, 0.349208)" stroke="#000000" stroke-width="0.747499988">
                                            <path d="M4.92073171,16.402439 L20.3455854,16.402439 C20.296378,18.9759817 19.6107561,21.0377683 18.2903598,22.6042012 C16.9699634,24.1673537 15.1624146,24.9776341 12.8644329,25.0284817 C10.5254451,25.0284817 8.64408537,24.2690488 7.21543293,22.7600244 C5.78842073,21.2477195 5.02406707,19.1268841 4.92073171,16.402439 Z M0.254237805,14.936061 C0.357573171,17.3308171 0.908695122,19.5992744 1.90268293,21.7512744 C2.89831098,23.8967134 4.31712195,25.635372 6.1607561,26.9721707 C8.00275,28.3073293 10.1695122,28.9896707 12.6594024,29.0241159 C15.0754817,29.0241159 17.222561,28.372939 19.1006402,27.0689451 C20.975439,25.7649512 22.4237744,24.0394146 23.4440061,21.8906951 C24.465878,19.7386951 24.9759939,17.4948415 24.9759939,15.1492927 C24.9759939,13.6468293 24.1181463,12.8939573 22.4024512,12.8939573 L4.92073171,12.8939573 C4.95517683,11.0306402 5.35211585,9.45436585 6.11646951,8.17169512 C6.87918293,6.88902439 7.89941463,5.93112195 9.18208537,5.29470732 C10.4631159,4.65993293 11.8819268,4.34336585 13.443439,4.34336585 C16.1777256,4.34336585 18.6905793,5.30946951 20.9770793,7.24495732 C21.7643963,7.81412195 22.3434024,8.0962439 22.7124573,8.0962439 C23.2274939,8.0962439 23.6260732,7.90433537 23.9147561,7.52215854 C24.2017988,7.13998171 24.3445,6.67579268 24.3445,6.1345122 C24.3445,5.54894512 24.1181463,4.98634146 23.665439,4.44670122 C22.6337256,3.35265854 21.1722683,2.39639634 19.2810671,1.57627439 C17.3898659,0.756152439 15.3543232,0.346091463 13.1760793,0.346091463 C10.8928598,0.346091463 8.90816463,0.774195122 7.22363415,1.63696341 C5.53746341,2.49481098 4.18098171,3.64134146 3.15090854,5.06179268 C2.11919512,6.48388415 1.36960366,8.02243293 0.897213415,9.67415854 C0.426463415,11.3209634 0.177146341,12.9907317 0.152542683,14.6785427 C0.196829268,14.7638354 0.223073171,14.8278049 0.236195122,14.8638902 C0.247676829,14.9048963 0.254237805,14.9262195 0.254237805,14.936061 L0.254237805,14.936061 Z" id="path118"></path>
                                        </g>
                                        <g id="g120" transform="translate(99.212285, 0.353965)" fill="#000000">
                                            <path d="M4.92073171,14.7621951 C4.92073171,11.9180122 5.53418293,9.49209146 6.76436585,7.48607317 C7.98962805,5.48169512 9.82342073,4.43029878 12.2559024,4.34008537 C14.1946707,4.34008537 15.7643841,4.84035976 16.9732439,5.84910976 C18.170622,6.85457927 19.03175,8.13396951 19.5435061,9.684 C20.0618232,11.2356707 20.3373841,12.8923171 20.3849512,14.6588598 C20.3849512,16.691122 20.0569024,18.4970305 19.3958841,20.0782256 C18.7397866,21.6577805 17.8228902,22.8797622 16.6533963,23.7376098 C15.480622,24.5938171 14.1569451,25.023561 12.6774451,25.023561 C10.9322256,25.023561 9.48553049,24.5068841 8.32915854,23.4882927 C7.17442683,22.4631402 6.32642073,21.1739085 5.78842073,19.6222378 C5.25370122,18.0722073 4.96501829,16.4500061 4.92073171,14.7621951 L4.92073171,14.7621951 Z M19.8584329,25.2417134 L19.8584329,39.0443659 C19.8584329,39.7660732 20.0831463,40.3303171 20.5309329,40.7420183 C20.9803598,41.1553598 21.5117988,41.3603902 22.118689,41.3603902 C22.7961098,41.3603902 23.3570732,41.1553598 23.8097805,40.7436585 C24.2592073,40.3319573 24.485561,39.7332683 24.485561,38.9459512 L24.485561,2.7162439 C24.485561,1.96993293 24.2526463,1.39092683 23.7900976,0.969384146 C23.329189,0.549481707 22.7698659,0.341170732 22.118689,0.341170732 C21.5396829,0.341170732 21.0148049,0.549481707 20.5506159,0.967743902 C20.0897073,1.3860061 19.8584329,1.93384756 19.8584329,2.60634756 L19.8584329,4.11865244 L19.7518171,4.11865244 C19.2548232,3.10990244 18.4429024,2.2454939 17.3111341,1.51722561 C16.1810061,0.790597561 14.653939,0.400219512 12.7299329,0.341170732 C10.2613659,0.341170732 8.09132317,0.943140244 6.22964634,2.152 C4.36468902,3.35757927 2.92127439,5.03882927 1.89120122,7.19903049 C0.867689024,9.35431098 0.33625,11.8015549 0.293603659,14.5440427 C0.293603659,16.5057744 0.579006098,18.3707317 1.15309146,20.1421951 C1.72881707,21.916939 2.5407378,23.463689 3.58721341,24.7890061 C4.63368902,26.1094024 5.89011585,27.1460366 7.35157317,27.8939878 C8.81467073,28.6435793 10.4188293,29.0191951 12.1624085,29.0191951 C15.3067561,29.0191951 17.8409329,27.7594878 19.7518171,25.2417134 L19.8584329,25.2417134 Z" id="path122"></path>
                                        </g>
                                        <g id="g124" transform="translate(99.212285, 0.353965)" stroke="#000000" stroke-width="0.747499988">
                                            <path d="M4.92073171,14.7621951 C4.92073171,11.9180122 5.53418293,9.49209146 6.76436585,7.48607317 C7.98962805,5.48169512 9.82342073,4.43029878 12.2559024,4.34008537 C14.1946707,4.34008537 15.7643841,4.84035976 16.9732439,5.84910976 C18.170622,6.85457927 19.03175,8.13396951 19.5435061,9.684 C20.0618232,11.2356707 20.3373841,12.8923171 20.3849512,14.6588598 C20.3849512,16.691122 20.0569024,18.4970305 19.3958841,20.0782256 C18.7397866,21.6577805 17.8228902,22.8797622 16.6533963,23.7376098 C15.480622,24.5938171 14.1569451,25.023561 12.6774451,25.023561 C10.9322256,25.023561 9.48553049,24.5068841 8.32915854,23.4882927 C7.17442683,22.4631402 6.32642073,21.1739085 5.78842073,19.6222378 C5.25370122,18.0722073 4.96501829,16.4500061 4.92073171,14.7621951 Z M19.8584329,25.2417134 L19.8584329,39.0443659 C19.8584329,39.7660732 20.0831463,40.3303171 20.5309329,40.7420183 C20.9803598,41.1553598 21.5117988,41.3603902 22.118689,41.3603902 C22.7961098,41.3603902 23.3570732,41.1553598 23.8097805,40.7436585 C24.2592073,40.3319573 24.485561,39.7332683 24.485561,38.9459512 L24.485561,2.7162439 C24.485561,1.96993293 24.2526463,1.39092683 23.7900976,0.969384146 C23.329189,0.549481707 22.7698659,0.341170732 22.118689,0.341170732 C21.5396829,0.341170732 21.0148049,0.549481707 20.5506159,0.967743902 C20.0897073,1.3860061 19.8584329,1.93384756 19.8584329,2.60634756 L19.8584329,4.11865244 L19.7518171,4.11865244 C19.2548232,3.10990244 18.4429024,2.2454939 17.3111341,1.51722561 C16.1810061,0.790597561 14.653939,0.400219512 12.7299329,0.341170732 C10.2613659,0.341170732 8.09132317,0.943140244 6.22964634,2.152 C4.36468902,3.35757927 2.92127439,5.03882927 1.89120122,7.19903049 C0.867689024,9.35431098 0.33625,11.8015549 0.293603659,14.5440427 C0.293603659,16.5057744 0.579006098,18.3707317 1.15309146,20.1421951 C1.72881707,21.916939 2.5407378,23.463689 3.58721341,24.7890061 C4.63368902,26.1094024 5.89011585,27.1460366 7.35157317,27.8939878 C8.81467073,28.6435793 10.4188293,29.0191951 12.1624085,29.0191951 C15.3067561,29.0191951 17.8409329,27.7594878 19.7518171,25.2417134 L19.8584329,25.2417134 Z" id="path126"></path>
                                        </g>
                                        <g id="g128" transform="translate(128.507697, 0.353965)" fill="#000000">
                                            <path d="M4.92073171,14.7621951 C4.92073171,11.9180122 5.53254268,9.49209146 6.76272561,7.48607317 C7.99126829,5.48169512 9.82178049,4.43029878 12.2559024,4.34008537 C14.1946707,4.34008537 15.7676646,4.84035976 16.9666829,5.84910976 C18.1722622,6.85457927 19.0301098,8.13396951 19.5435061,9.684 C20.0585427,11.2356707 20.3390244,12.8923171 20.383311,14.6588598 C20.383311,16.691122 20.0552622,18.4970305 19.3975244,20.0782256 C18.7414268,21.6577805 17.8245305,22.8797622 16.6533963,23.7376098 C15.480622,24.5938171 14.1553049,25.023561 12.6774451,25.023561 C10.9322256,25.023561 9.48225,24.5068841 8.32751829,23.4882927 C7.17114634,22.4631402 6.32806098,21.1739085 5.79006098,19.6222378 C5.25206098,18.0722073 4.96337805,16.4500061 4.92073171,14.7621951 L4.92073171,14.7621951 Z M19.8535122,25.2417134 L19.8535122,39.0443659 C19.8535122,39.7660732 20.0798659,40.3303171 20.5325732,40.7420183 C20.982,41.1553598 21.5085183,41.3603902 22.1170488,41.3603902 C22.7928293,41.3603902 23.3603537,41.1553598 23.8081402,40.7436585 C24.2592073,40.3319573 24.4822805,39.7332683 24.4822805,38.9459512 L24.4822805,2.7162439 C24.4822805,1.96993293 24.2510061,1.39092683 23.7900976,0.969384146 C23.3275488,0.549481707 22.7665854,0.341170732 22.1170488,0.341170732 C21.5364024,0.341170732 21.0131646,0.549481707 20.5506159,0.967743902 C20.0880671,1.3860061 19.8535122,1.93384756 19.8535122,2.60634756 L19.8535122,4.11865244 L19.7518171,4.11865244 C19.2531829,3.10990244 18.4412622,2.2454939 17.3111341,1.51722561 C16.1826463,0.790597561 14.6555793,0.400219512 12.7299329,0.341170732 C10.2597256,0.341170732 8.09296341,0.943140244 6.2280061,2.152 C4.36140854,3.35757927 2.9179939,5.03882927 1.89284146,7.19903049 C0.869329268,9.35431098 0.334609756,11.8015549 0.293603659,14.5440427 C0.293603659,16.5057744 0.580646341,18.3707317 1.15473171,20.1421951 C1.73045732,21.916939 2.53909756,23.463689 3.58557317,24.7890061 C4.63368902,26.1094024 5.88847561,27.1460366 7.34993293,27.8939878 C8.81303049,28.6435793 10.417189,29.0191951 12.159128,29.0191951 C15.3051159,29.0191951 17.8376524,27.7594878 19.7518171,25.2417134 L19.8535122,25.2417134 Z" id="path130"></path>
                                        </g>
                                        <g id="g132" transform="translate(128.507697, 0.353965)" stroke="#000000" stroke-width="0.747499988">
                                            <path d="M4.92073171,14.7621951 C4.92073171,11.9180122 5.53254268,9.49209146 6.76272561,7.48607317 C7.99126829,5.48169512 9.82178049,4.43029878 12.2559024,4.34008537 C14.1946707,4.34008537 15.7676646,4.84035976 16.9666829,5.84910976 C18.1722622,6.85457927 19.0301098,8.13396951 19.5435061,9.684 C20.0585427,11.2356707 20.3390244,12.8923171 20.383311,14.6588598 C20.383311,16.691122 20.0552622,18.4970305 19.3975244,20.0782256 C18.7414268,21.6577805 17.8245305,22.8797622 16.6533963,23.7376098 C15.480622,24.5938171 14.1553049,25.023561 12.6774451,25.023561 C10.9322256,25.023561 9.48225,24.5068841 8.32751829,23.4882927 C7.17114634,22.4631402 6.32806098,21.1739085 5.79006098,19.6222378 C5.25206098,18.0722073 4.96337805,16.4500061 4.92073171,14.7621951 Z M19.8535122,25.2417134 L19.8535122,39.0443659 C19.8535122,39.7660732 20.0798659,40.3303171 20.5325732,40.7420183 C20.982,41.1553598 21.5085183,41.3603902 22.1170488,41.3603902 C22.7928293,41.3603902 23.3603537,41.1553598 23.8081402,40.7436585 C24.2592073,40.3319573 24.4822805,39.7332683 24.4822805,38.9459512 L24.4822805,2.7162439 C24.4822805,1.96993293 24.2510061,1.39092683 23.7900976,0.969384146 C23.3275488,0.549481707 22.7665854,0.341170732 22.1170488,0.341170732 C21.5364024,0.341170732 21.0131646,0.549481707 20.5506159,0.967743902 C20.0880671,1.3860061 19.8535122,1.93384756 19.8535122,2.60634756 L19.8535122,4.11865244 L19.7518171,4.11865244 C19.2531829,3.10990244 18.4412622,2.2454939 17.3111341,1.51722561 C16.1826463,0.790597561 14.6555793,0.400219512 12.7299329,0.341170732 C10.2597256,0.341170732 8.09296341,0.943140244 6.2280061,2.152 C4.36140854,3.35757927 2.9179939,5.03882927 1.89284146,7.19903049 C0.869329268,9.35431098 0.334609756,11.8015549 0.293603659,14.5440427 C0.293603659,16.5057744 0.580646341,18.3707317 1.15473171,20.1421951 C1.73045732,21.916939 2.53909756,23.463689 3.58557317,24.7890061 C4.63368902,26.1094024 5.88847561,27.1460366 7.34993293,27.8939878 C8.81303049,28.6435793 10.417189,29.0191951 12.159128,29.0191951 C15.3051159,29.0191951 17.8376524,27.7594878 19.7518171,25.2417134 L19.8535122,25.2417134 Z" id="path134"></path>
                                        </g>
                                        <g id="g136" transform="translate(168.530304, 0.491745)" fill="#000000">
                                            <path d="M4.92073171,24.6036585 L2.87862805,24.6036585 C2.22253049,24.6036585 1.6960122,24.7906463 1.29907317,25.1629817 C0.905414634,25.5353171 0.677420732,25.9978659 0.608530488,26.5457073 C0.744670732,27.9169512 1.50246341,28.6025732 2.87862805,28.6025732 L4.92073171,28.6025732 L4.92073171,34.8584634 C4.92073171,35.5408049 5.14052439,36.0722439 5.57682927,36.4495 C6.01477439,36.8234756 6.54621341,37.0121037 7.1809878,37.0121037 C7.8534878,37.0121037 8.41937195,36.8218354 8.87207927,36.4412988 C9.32314634,36.059122 9.55278049,35.494878 9.55278049,34.7436463 L9.55278049,28.6025732 L11.5916037,28.6025732 C12.2952683,28.6025732 12.8299878,28.4123049 13.1974024,28.036689 C13.5664573,27.6594329 13.7518049,27.1657195 13.7518049,26.5457073 C13.7518049,26.0208293 13.5664573,25.568122 13.2121646,25.1843049 C12.8496707,24.7988476 12.3854817,24.6036585 11.8113963,24.6036585 L9.55278049,24.6036585 L9.55278049,2.48004878 C9.55278049,1.77638415 9.30838415,1.22034146 8.82615244,0.811920732 C8.34556098,0.405140244 7.75835366,0.203390244 7.07929268,0.203390244 C6.47240244,0.203390244 5.95572561,0.405140244 5.54566463,0.811920732 C5.13232317,1.22034146 4.92073171,1.81082927 4.92073171,2.58010366 L4.92073171,24.6036585 Z" id="path138"></path>
                                        </g>
                                        <g id="g140" transform="translate(168.530304, 0.491745)" stroke="#000000" stroke-width="0.747499988">
                                            <path d="M4.92073171,24.6036585 L2.87862805,24.6036585 C2.22253049,24.6036585 1.6960122,24.7906463 1.29907317,25.1629817 C0.905414634,25.5353171 0.677420732,25.9978659 0.608530488,26.5457073 C0.744670732,27.9169512 1.50246341,28.6025732 2.87862805,28.6025732 L4.92073171,28.6025732 L4.92073171,34.8584634 C4.92073171,35.5408049 5.14052439,36.0722439 5.57682927,36.4495 C6.01477439,36.8234756 6.54621341,37.0121037 7.1809878,37.0121037 C7.8534878,37.0121037 8.41937195,36.8218354 8.87207927,36.4412988 C9.32314634,36.059122 9.55278049,35.494878 9.55278049,34.7436463 L9.55278049,28.6025732 L11.5916037,28.6025732 C12.2952683,28.6025732 12.8299878,28.4123049 13.1974024,28.036689 C13.5664573,27.6594329 13.7518049,27.1657195 13.7518049,26.5457073 C13.7518049,26.0208293 13.5664573,25.568122 13.2121646,25.1843049 C12.8496707,24.7988476 12.3854817,24.6036585 11.8113963,24.6036585 L9.55278049,24.6036585 L9.55278049,2.48004878 C9.55278049,1.77638415 9.30838415,1.22034146 8.82615244,0.811920732 C8.34556098,0.405140244 7.75835366,0.203390244 7.07929268,0.203390244 C6.47240244,0.203390244 5.95572561,0.405140244 5.54566463,0.811920732 C5.13232317,1.22034146 4.92073171,1.81082927 4.92073171,2.58010366 L4.92073171,24.6036585 Z" id="path142"></path>
                                        </g>
                                        <g id="g144" transform="translate(157.234437, 32.999190)" fill="#FFFFFF">
                                            <path d="M8.20121951,3.92073171 C8.20121951,1.82942073 6.50520732,0.133408537 4.41389634,0.133408537 C2.32258537,0.133408537 0.628213415,1.82942073 0.628213415,3.92073171 C0.628213415,6.01204268 2.32258537,7.70805488 4.41389634,7.70805488 C6.50520732,7.70805488 8.20121951,6.01204268 8.20121951,3.92073171" id="path146"></path>
                                        </g>
                                        <g id="g148" transform="translate(157.234437, 32.999190)" stroke="#000000" stroke-width="2.00000002">
                                            <path d="M8.20121951,3.92073171 C8.20121951,1.82942073 6.50520732,0.133408537 4.41389634,0.133408537 C2.32258537,0.133408537 0.628213415,1.82942073 0.628213415,3.92073171 C0.628213415,6.01204268 2.32258537,7.70805488 4.41389634,7.70805488 C6.50520732,7.70805488 8.20121951,6.01204268 8.20121951,3.92073171 Z" id="path150"></path>
                                        </g>
                                        <g id="g152" transform="translate(161.655386, 2.570918)" stroke="#000000" stroke-width="4.19999987">
                                            <path d="M0,24.6036585 L0,0.341170732" id="path154"></path>
                                        </g>
                                        <g id="g156" transform="translate(14.697241, 39.084716)" fill="#FF4500">
                                            <path d="M4.92073171,3.2804878 C4.92073171,1.98469512 3.86933537,0.934939024 2.57518293,0.934939024 C1.27775,0.934939024 0.227993902,1.98469512 0.227993902,3.2804878 C0.227993902,4.57792073 1.27775,5.62767683 2.57518293,5.62767683 C3.86933537,5.62767683 4.92073171,4.57792073 4.92073171,3.2804878" id="path158"></path>
                                        </g>
                                        <g id="g160" transform="translate(14.697241, 39.084716)" stroke="#FF4500" stroke-width="1.37500002">
                                            <path d="M4.92073171,3.2804878 C4.92073171,1.98469512 3.86933537,0.934939024 2.57518293,0.934939024 C1.27775,0.934939024 0.227993902,1.98469512 0.227993902,3.2804878 C0.227993902,4.57792073 1.27775,5.62767683 2.57518293,5.62767683 C3.86933537,5.62767683 4.92073171,4.57792073 4.92073171,3.2804878 Z" id="path162"></path>
                                        </g>
                                        <g id="g164" transform="translate(28.840409, 39.084716)" fill="#FF4500">
                                            <path d="M4.92073171,3.2804878 C4.92073171,1.98469512 3.87097561,0.934939024 2.57518293,0.934939024 C1.28103049,0.934939024 0.229634146,1.98469512 0.229634146,3.2804878 C0.229634146,4.57792073 1.28103049,5.62767683 2.57518293,5.62767683 C3.87097561,5.62767683 4.92073171,4.57792073 4.92073171,3.2804878" id="path166"></path>
                                        </g>
                                        <g id="g168" transform="translate(28.840409, 39.084716)" stroke="#FF4500" stroke-width="1.37500002">
                                            <path d="M4.92073171,3.2804878 C4.92073171,1.98469512 3.87097561,0.934939024 2.57518293,0.934939024 C1.28103049,0.934939024 0.229634146,1.98469512 0.229634146,3.2804878 C0.229634146,4.57792073 1.28103049,5.62767683 2.57518293,5.62767683 C3.87097561,5.62767683 4.92073171,4.57792073 4.92073171,3.2804878 Z" id="path170"></path>
                                        </g>
                                        <g id="g172" transform="translate(17.403644, 31.497547)" stroke="#000000" stroke-width="1.37500002">
                                            <path d="M0,2.2804878 C1.7485,0.531987805 4.56971951,0.195737805 6.90870732,0.195737805" id="path174"></path>
                                        </g>
                                        <g id="g176" transform="translate(24.070687, 31.497547)" stroke="#000000" stroke-width="1.37500002">
                                            <path d="M7.20121951,2.2804878 C5.45107927,0.531987805 2.63314024,0.195737805 0.292512195,0.195737805" id="path178"></path>
                                        </g>
                                    </g>
                                </g>
                            </g>
                        </g>
                    </g>
                </g>
                <g id="Steam_logo" transform="translate(12.000000, 236.000000)">
                    <g id="Group">
                        <polygon id="Shape" fill="#171A21" points="8.7295082 0 213 0 213 65 0 65 0 0"></polygon>
                        <path d="M128.100295,28.6017568 C127.091164,29.3922973 125.802689,29.7858108 124.219156,29.7858108 C123.077336,29.7858108 122.07868,29.64 121.224934,29.3431081 C120.376426,29.0497297 119.601246,28.5560811 118.906377,27.8568919 L120.748303,26.0087838 C121.181287,26.4462162 121.694582,26.7624324 122.289934,26.9539189 C122.883541,27.1489189 123.54,27.2455405 124.262803,27.2455405 C125.977279,27.2455405 126.838008,26.6359459 126.838008,25.4272973 C126.838008,24.9160811 126.707066,24.5190541 126.448672,24.2362162 C126.190279,23.9551351 125.739836,23.7689189 125.097344,23.6705405 L124.278516,23.5440541 L123.337475,23.4245946 C122.094393,23.2436486 121.149861,22.8413514 120.509115,22.2106757 C119.8125,21.5132432 119.465066,20.5522973 119.465066,19.3348649 C119.465066,18.0067568 119.922492,16.9323243 120.833852,16.1207027 C121.748705,15.3038108 122.981311,14.898 124.540402,14.898 C125.556516,14.898 126.443434,15.028 127.192426,15.2985405 C127.94491,15.5673243 128.625811,16.003 129.235131,16.6055676 L127.438598,18.3932432 C127.026566,17.997973 126.576123,17.7309459 126.080287,17.5939189 C125.582705,17.4575946 125.044967,17.3873243 124.454852,17.3873243 C123.732049,17.3873243 123.176852,17.5594865 122.789262,17.9101351 C122.399926,18.2597297 122.206131,18.6989189 122.206131,19.232973 C122.206131,19.6159459 122.356279,19.9637838 122.654828,20.2659459 C122.956869,20.5733784 123.398582,20.7701351 123.985205,20.8527027 L124.861648,20.9739189 L125.703172,21.0986486 C126.356139,21.1952703 126.902607,21.3340541 127.346066,21.5114865 C127.789525,21.6854054 128.168385,21.9295946 128.480902,22.2317568 C129.231639,22.9432432 129.605262,23.9797297 129.605262,25.3412162 C129.605262,26.7272973 129.100697,27.8112162 128.100295,28.6017568 L128.100295,28.6017568 Z M140.300656,17.5475405 L140.300656,29.6522973 L137.454836,29.6522973 L137.454836,17.5475405 L133.652262,17.5475405 L133.652262,15.0055135 L144.10323,15.0055135 L144.10323,17.5475405 L140.300656,17.5475405 L140.300656,17.5475405 Z M150.089926,29.6505405 L150.089926,15.0046351 L159.685402,15.0046351 L159.685402,17.5466622 L152.94273,17.5466622 L152.94273,21.002027 L158.685,21.002027 L158.685,23.5440541 L152.94273,23.5440541 L152.94273,27.1085135 L159.685402,27.1085135 L159.685402,29.6505405 L150.089926,29.6505405 Z M174.412082,29.6505405 L173.55659,27.0558108 L168.383484,27.0558108 L167.503549,29.6505405 L164.540754,29.6505405 L169.836074,15.0046351 L172.062098,15.0046351 L177.383607,29.6505405 L174.412082,29.6505405 L174.412082,29.6505405 Z M171.021541,19.3243243 L169.181361,24.6437838 L172.798869,24.6437838 L171.021541,19.3243243 Z M192.765,29.6505405 L192.765,21.117973 L190.006475,26.6728378 L188.085984,26.6728378 L185.292541,21.117973 L185.292541,29.6505405 L182.446721,29.6505405 L182.446721,15.0046351 L185.257623,15.0046351 L189.04623,22.9221622 L192.817377,15.0046351 L195.628279,15.0046351 L195.628279,29.6505405 L192.765,29.6505405 L192.765,29.6505405 Z M201.791311,14.5536757 C202.838852,14.5536757 203.676885,15.4074595 203.676885,16.4755676 C203.676885,17.5594865 202.838852,18.402027 201.791311,18.402027 C200.74377,18.402027 199.905738,17.5594865 199.905738,16.4755676 C199.905738,15.4074595 200.74377,14.5536757 201.791311,14.5536757 Z M201.791311,14.8558378 C200.953279,14.8558378 200.272377,15.5778649 200.272377,16.4755676 C200.272377,17.3890811 200.953279,18.1051351 201.791311,18.1051351 C202.646803,18.1139189 203.327705,17.3890811 203.327705,16.4843514 C203.327705,15.5778649 202.646803,14.8558378 201.791311,14.8558378 L201.791311,14.8558378 Z M201.442131,17.5939189 L201.092951,17.5939189 L201.092951,15.4513784 C201.267541,15.4267838 201.442131,15.4004324 201.704016,15.4004324 C202.018279,15.4004324 202.227787,15.4689459 202.367459,15.5620541 C202.489672,15.6569189 202.559508,15.800973 202.559508,16.0065135 C202.559508,16.2893514 202.367459,16.4562432 202.140492,16.5265135 L202.140492,16.5423243 C202.332541,16.5757027 202.454754,16.7478649 202.489672,17.0623243 C202.542049,17.3961081 202.594426,17.5261081 202.629344,17.5939189 L202.280164,17.5939189 C202.227787,17.5261081 202.17541,17.3293514 202.123033,17.0482703 C202.070656,16.7742162 201.948443,16.6740811 201.669098,16.6740811 L201.442131,16.6740811 L201.442131,17.5939189 L201.442131,17.5939189 Z M201.442131,16.4052973 L201.686557,16.4052973 C201.965902,16.4052973 202.192869,16.3051622 202.192869,16.0398919 C202.192869,15.8519189 202.053197,15.6657027 201.686557,15.6657027 C201.564344,15.6657027 201.494508,15.6727297 201.442131,15.6832703 L201.442131,16.4052973 Z" id="Shape" fill="url(#linearGradient-1)"></path>
                        <path d="M98.7167705,8.78378378 C91.0854344,8.78378378 84.8787541,15.0290541 84.8787541,22.7060811 C84.8787541,22.7675676 84.8787541,22.8290541 84.8822459,22.887027 L75.9676721,35.8940541 C74.5238115,35.8308108 73.0747131,36.0837838 71.7006885,36.652973 C71.0948607,36.9006757 70.5274426,37.2063514 69.9949426,37.5577027 L29.82,20.8474324 C29.1443361,17.7010811 27.0056066,14.9236486 23.8350492,13.592027 C18.6933689,11.4382432 12.7677787,13.8941892 10.6238115,19.0695946 C8.48159016,24.2414865 10.9241066,30.2039189 16.0657869,32.3594595 C18.5554426,33.402973 21.3,33.4082432 23.7966393,32.377027 C24.371041,32.1381081 24.9122705,31.842973 25.4290574,31.5144595 L65.693041,48.2633784 C66.3879098,51.3798649 68.5179098,54.1168919 71.6605328,55.4327027 C76.8022131,57.5917568 82.7295492,55.1322973 84.8700246,49.9639189 C85.4252213,48.6147297 85.6853607,47.197027 85.6469508,45.7828378 L98.4025082,36.6266216 C98.5072623,36.6301351 98.6120164,36.6318919 98.7167705,36.6318919 C106.348107,36.6318919 112.553041,30.3831081 112.553041,22.7060811 C112.553041,15.0290541 106.348107,8.78378378 98.7167705,8.78378378 M16.9544508,30.2144595 C13.9654672,28.9618919 12.158459,26.0404054 12.158459,22.9660811 C12.158459,21.9612162 12.3505082,20.9440541 12.7590492,19.9637838 C14.4089262,15.9706757 18.9814426,14.0751351 22.9463852,15.737027 C24.8179918,16.5205405 26.2129672,17.9575676 27.0056066,19.6739189 L22.3946803,17.7555405 C19.472041,16.5310811 16.1129262,17.9224324 14.892541,20.865 C13.6756475,23.8093243 15.0601475,27.1928378 17.9827869,28.4172973 L22.6076803,30.3391892 C20.7657541,31.0155405 18.7719344,30.9804054 16.9544508,30.2144595 M82.7417705,49.0662162 C81.0849098,53.0575676 76.5176311,54.9531081 72.5474508,53.2912162 C70.716,52.5235135 69.3332459,51.1198649 68.5353689,49.4456757 L73.0397951,51.3218919 C75.9676721,52.5481081 79.3267869,51.1532432 80.5436803,48.2124324 C81.7640656,45.2698649 80.3795656,41.8898649 77.4534344,40.6636486 L72.7971148,38.7259459 C74.5936475,38.0408108 76.6363525,38.0162162 78.544623,38.8137838 C80.4686066,39.6183784 81.9613525,41.1309459 82.7522459,43.0668919 C83.5448852,45.0028378 83.5413934,47.1372973 82.7417705,49.0662162 M98.7167705,31.9852703 C93.6344508,31.9852703 89.4984098,27.8217568 89.4984098,22.7060811 C89.4984098,17.5939189 93.6344508,13.4304054 98.7167705,13.4304054 C103.79909,13.4304054 107.936877,17.5939189 107.936877,22.7060811 C107.936877,27.8217568 103.79909,31.9852703 98.7167705,31.9852703 M98.7307377,29.6593243 C94.908959,29.6593243 91.8082377,26.5410811 91.8082377,22.692027 C91.8082377,18.842973 94.908959,15.7212162 98.7307377,15.7212162 C102.556008,15.7212162 105.658475,18.842973 105.658475,22.692027 C105.658475,26.5410811 102.556008,29.6593243 98.7307377,29.6593243" id="Shape" fill="url(#linearGradient-2)"></path>
                    </g>
                </g>
                <g id="Subway_restaurant">
                    <g id="Layer_1" transform="translate(-0.000000, 0.000000)">
                        <g id="Subway" transform="translate(0.898066, 0.530755)">
                            <path d="M141.922822,42.59956 L116.343852,42.6546039 C115.962341,42.6546039 115.714959,42.3420557 115.799107,41.9706675 L116.772182,37.9708098 L115.860478,37.9708098 L113.410075,42.4628993 C113.337948,42.5957639 113.069688,42.7545687 112.919741,42.7545687 L76.8457317,42.8001223 C76.5034471,42.8001223 76.2522697,42.5160451 76.2895983,42.1788221 L76.6628847,38.8413894 C72.9755752,42.0168538 67.927985,42.7115459 64.9024679,42.7115459 L50.1222282,42.7115459 C49.7065517,42.7115459 49.4617012,42.3711594 49.5945658,41.975729 L50.1348819,40.356046 C47.700296,42.205395 44.440684,43.5264489 40.0782957,43.5264489 C34.9136582,43.5264489 31.8818141,41.6043408 30.5639237,38.6692981 C27.4295841,41.7207555 22.6413963,43.4903856 17.8139818,43.4903856 C16.3050194,43.4903856 14.8384471,43.3277847 13.4440013,43.0234614 L11.6914537,48.4323167 C11.5212605,48.9599791 10.9746175,49.0257787 10.6842134,48.553793 L0.557398707,32.1329915 C0.368857487,31.8286683 0.489068332,31.4585454 0.8199645,31.3225174 L15.5597122,25.2708504 C15.5078317,25.1506395 15.4597474,25.0304287 15.4160918,24.9133813 C14.673948,22.9628021 14.4898356,19.6924345 14.9883943,17.5792544 C15.7583764,14.3259693 19.8139107,6.28576181 30.6139061,6.76533982 C32.8004781,6.86214118 35.6893345,7.76055908 37.5861351,8.79247428 L38.1840259,7.44358206 C38.246662,7.25630622 38.5168201,7.0620708 38.7148517,7.0620708 L73.2723061,6.96843288 C75.5746602,6.96843288 78.0997206,7.46825692 80.0243595,8.77096286 L80.1584895,7.57138517 C80.1882259,7.30881937 80.452057,7.07472457 80.7146228,7.07472457 L142.179693,7.10952245 C142.438463,7.10952245 142.702927,7.34045381 142.733928,7.59795809 L143.486195,13.655952 C145.944823,11.0543362 147.894137,9.44730704 150.379971,8.18952199 C152.313467,7.21328339 154.737298,6.9950058 156.361409,6.94945222 C156.656875,6.93996189 156.937789,6.93679844 157.207947,6.93869651 L159.22306,0.621300262 C159.391988,0.092372544 159.937998,0.0246748576 160.232199,0.496660596 L170.202739,16.6346502 C170.39128,16.9421369 170.27107,17.3122597 169.933847,17.4470224 L152.59185,24.4281091 C152.087598,24.6331002 151.689004,24.2661408 151.849707,23.7441726 L152.345102,22.1371434 C151.174628,23.3069848 149.936456,24.7564745 148.693856,26.3761575 C147.030517,28.5418507 144.924929,32.9415677 144.366265,34.6004773 L144.209991,35.0534824" id="Shape" fill="#005542"></path>
                            <path d="M157.053571,16.3682883 C153.74714,16.2436486 149.756773,20.3991477 146.475649,24.6710615 C144.585808,27.1341185 142.349254,31.8255049 141.717198,33.7077536 C141.531187,34.2594581 139.54581,39.9954135 139.54581,39.9954135 L130.474953,39.9954135 L135.053721,26.9373523 L132.437553,9.83261443 L140.12219,9.83261443 L141.549535,20.7591475 C141.549535,20.7591475 143.81899,17.4027342 145.115369,16.0032269 C147.665737,13.2548274 149.430305,11.8002762 151.640287,10.6854787 C154.339337,9.32013662 159.219264,9.8231241 159.219264,9.8231241 L160.406188,6.09975135 L166.428751,15.8450547 L155.905241,20.0802726 L157.053571,16.3682883 L157.053571,16.3682883 Z M100.606354,40.0055365 L116.767753,9.86804499 L108.814224,9.86804499 L99.9958097,28.5734852 C100.410853,26.3761575 103.256687,9.86804499 103.256687,9.86804499 L96.2629466,9.86804499 C96.2629466,9.86804499 88.1544087,26.4552435 87.1655164,28.693696 L90.7465342,9.86804499 L82.7145517,9.86804499 L79.3442192,40.0055365 L87.2578889,40.0055365 L96.0086057,21.1393934 C95.5929293,23.2177757 92.7331766,40.0055365 92.7331766,40.0055365 L100.606354,40.0055365 L100.606354,40.0055365 Z M120.215906,9.86804499 L104.025404,39.9599829 L111.591727,39.9599829 L114.201568,35.1749586 L120.289298,35.1749586 L119.157418,40.0460286 L127.770209,40.0460286 L131.348063,9.86804499 L120.215906,9.86804499 L120.215906,9.86804499 Z M123.333796,17.9563368 L121.507857,28.9999173 L117.417525,28.9999173 L123.333796,17.9563368 Z" id="Shape" fill="#FFF200"></path>
                            <path d="M52.4144592,10.0755669 L60.5666525,10.0755669 L53.973404,29.7806551 C52.7567437,33.4186149 49.5097855,40.7305977 40.0782957,40.7305977 C30.6449078,40.7305977 32.2943272,33.4179822 33.5109874,29.7806551 L40.1029706,10.0755669 L48.2589601,10.0755669 L41.9181543,29.0214287 C41.6511597,29.8211472 41.2620562,30.860022 41.2354833,31.6578424 C41.1937258,32.4980529 41.4993144,33.1383338 42.6191734,33.1383338 C43.778259,33.1383338 44.5121778,32.4980529 44.9791021,31.6983344 C45.4991721,30.8593893 45.8085569,29.8211472 46.0628977,29.0606554 L52.4144592,10.0755669 L52.4144592,10.0755669 Z M10.5228778,42.9684175 L11.6256541,39.5632871 C13.4718396,40.287083 15.5786928,40.6939018 17.8133492,40.6939018 C25.2993214,40.6939018 31.3649075,36.1138686 31.3649075,30.4633262 C31.3649075,28.0344344 30.0387921,25.9965443 28.3697594,24.0472305 C27.0626246,22.5199201 25.633381,20.5206239 26.4849799,18.490326 C27.3467019,16.4366186 29.6212176,15.6198176 33.4034304,17.8532085 L36.7250458,11.5275873 C35.3147828,10.607658 32.4455397,9.64280783 30.4905318,9.55676217 C21.5443142,9.15816832 18.3036829,15.7020671 17.7070575,18.2214333 C17.3293423,19.8208703 17.4963721,22.518022 18.0271979,23.9168966 C18.508674,25.1791105 19.3957035,26.7968954 20.5807293,28.0350671 C21.6050523,29.0986167 22.0162999,30.6809711 21.7005883,31.4288091 C21.2368275,32.5265239 19.7221708,33.1016379 18.4144034,33.1813567 C16.9573214,33.2705658 15.3452307,33.0111634 14.0134211,32.1911989 L15.2313467,28.425436 L4.31683471,32.9074025 L10.5228778,42.9684175 L10.5228778,42.9684175 Z M67.2402525,21.73159 L68.3708671,21.73159 C69.6223253,21.73159 71.8443278,21.2912387 72.6642923,19.2514505 C73.6981056,16.6694481 71.5785986,16.4884991 70.4327994,16.4884991 L69.0585997,16.4884991 L67.2402525,21.73159 L67.2402525,21.73159 Z M63.8781449,33.564766 L66.0976168,33.5679294 C67.840674,33.5679294 69.4040477,32.904239 69.8380721,30.9770694 C70.2796888,29.0328171 68.5663679,27.9426946 65.7369842,28.0768246 L63.8781449,33.564766 Z M63.2878464,9.94902914 L73.2723061,9.94902914 C77.8422163,9.94902914 81.7541303,11.7907858 79.8895968,18.3498691 C79.2322333,20.6579174 76.9381042,23.5474065 74.5920947,24.3844536 C76.7704417,25.5435392 78.9430946,28.9214639 77.7422515,32.5195643 C75.6727269,38.7180151 69.0332921,40.1017052 64.9024679,40.1017052 L53.2268314,40.1017052 L63.2878464,9.94902914 Z" id="Shape" fill="#FFFFFF"></path>
                        </g>
                    </g>
                </g>
                <g id="Microsoft_logo_(2012)" transform="translate(11.000000, 148.000000)">
                    <g id="svg5358">
                        <path d="M214.947082,20.7808643 L214.947082,16.9967919 L210.252783,16.9967919 L210.252783,11.1138394 L210.094777,11.1624932 L205.685603,12.5128326 L205.598792,12.539371 L205.598792,16.9967919 L198.639623,16.9967919 L198.639623,14.5138846 C198.639623,13.3576403 198.897976,12.4727647 199.406886,11.8826742 C199.912417,11.2996086 200.635494,11.0032624 201.557406,11.0032624 C202.220444,11.0032624 202.906874,11.1596312 203.597463,11.4679457 L203.770565,11.5452195 L203.770565,7.56002715 L203.689212,7.53010633 C203.044888,7.29828507 202.168201,7.1814638 201.082025,7.1814638 C199.712803,7.1814638 198.4686,7.47963122 197.383723,8.07076244 C196.298067,8.66267421 195.443993,9.50774208 194.845933,10.5822896 C194.249693,11.6555362 193.947154,12.8950385 193.947154,14.2667127 L193.947154,16.9967919 L190.678489,16.9967919 L190.678489,20.7808643 L193.947154,20.7808643 L193.947154,36.722414 L198.639623,36.722414 L198.639623,20.7808643 L205.598792,20.7808643 L205.598792,30.9115317 C205.598792,35.0837941 207.564774,37.1982851 211.441896,37.1982851 C212.079202,37.1982851 212.749528,37.1233529 213.434388,36.976871 C214.131225,36.8267466 214.605826,36.6766222 214.885222,36.5163507 L214.947082,36.4799253 L214.947082,32.6607285 L214.756306,32.7871765 C214.501591,32.9573348 214.184497,33.0960113 213.812572,33.199043 C213.439067,33.3041561 213.127171,33.3569729 212.885722,33.3569729 C211.977316,33.3569729 211.305452,33.1118824 210.888281,32.6284661 C210.466702,32.1406267 210.252804,31.287233 210.252804,30.0937828 L210.252804,20.7808643 L214.947082,20.7808643 L214.947082,20.7808643 Z M180.199474,33.3573371 C178.496265,33.3573371 177.153554,32.7919638 176.207211,31.6783891 C175.25515,30.5590905 174.772751,28.9634005 174.772751,26.9360701 C174.772751,24.8444751 175.25515,23.2074163 176.207731,22.0683439 C177.154594,20.9368167 178.484568,20.3625973 180.161267,20.3625973 C181.788322,20.3625973 183.083468,20.9110588 184.011098,21.9936719 C184.943665,23.0817489 185.416707,24.7057986 185.416707,26.8218507 C185.416707,28.9639208 184.971736,30.6093054 184.09427,31.709871 C183.223042,32.802371 181.91282,33.3573371 180.199474,33.3573371 L180.199474,33.3573371 Z M180.408444,16.5215452 C177.159012,16.5215452 174.578077,17.4745882 172.738153,19.3543959 C170.899269,21.2344638 169.966701,23.8360136 169.966701,27.0877557 C169.966701,30.1761041 170.876916,32.6603122 172.672135,34.4701312 C174.467354,36.2807308 176.910536,37.1978688 179.933063,37.1978688 C183.082949,37.1978688 185.612421,36.2315566 187.451825,34.3257308 C189.29097,32.4217262 190.222757,29.8448937 190.222757,26.6691244 C190.222757,23.5323824 189.34841,21.0297014 187.623108,19.2318507 C185.897026,17.4332195 183.469179,16.5215452 180.408444,16.5215452 L180.408444,16.5215452 Z M162.401024,16.5214412 C160.190724,16.5214412 158.362496,17.0873348 156.965724,18.2032511 C155.560634,19.3256719 154.847953,20.7980362 154.847953,22.5794955 C154.847953,23.5054796 155.001821,24.3281719 155.30462,25.0257172 C155.609238,25.7258643 156.08072,26.3419729 156.70685,26.8592127 C157.328562,27.3722896 158.287641,27.9098235 159.559135,28.4564638 C160.627637,28.89669 161.42479,29.2692692 161.931101,29.5627534 C162.425975,29.8502534 162.777377,30.1395747 162.975691,30.4210905 C163.168287,30.6966222 163.266274,31.0736244 163.266274,31.5393484 C163.266274,32.8644502 162.274966,33.5091787 160.234909,33.5091787 C159.478302,33.5091787 158.615131,33.3512489 157.669568,33.0392919 C156.723485,32.7278552 155.839521,32.2800837 155.042628,31.7058643 L154.847953,31.5661471 L154.847953,36.0883529 L154.919429,36.1216561 C155.583507,36.4284095 156.420426,36.6870294 157.407056,36.8907511 C158.391866,37.0944729 159.286487,37.1982851 160.063886,37.1982851 C162.462363,37.1982851 164.393776,36.6295294 165.803024,35.5071086 C167.221369,34.3768824 167.940288,32.869914 167.940288,31.0265317 C167.940288,29.6970068 167.553278,28.5566335 166.790434,27.6371538 C166.033047,26.7249593 164.718407,25.8876968 162.884462,25.1474819 C161.423491,24.5605136 160.487544,24.0731946 160.101574,23.6993145 C159.729378,23.3379231 159.540421,22.8269276 159.540421,22.1798575 C159.540421,21.6061584 159.773563,21.1466787 160.252583,20.7743597 C160.735241,20.4002195 161.406856,20.2100271 162.249494,20.2100271 C163.031312,20.2100271 163.831325,20.3336131 164.626658,20.5758416 C165.421732,20.8180701 166.119858,21.1425158 166.702843,21.539552 L166.894399,21.6706833 L166.894399,17.380819 L166.820843,17.3490769 C166.283083,17.1182964 165.574041,16.920819 164.712949,16.7605475 C163.855237,16.6018371 163.077317,16.5214412 162.401024,16.5214412 L162.401024,16.5214412 Z M142.61489,33.3573371 C140.9122,33.3573371 139.56897,32.7919638 138.622886,31.6783891 C137.670565,30.5590905 137.188947,28.9639208 137.188947,26.9360701 C137.188947,24.8444751 137.671085,23.2074163 138.623926,22.0683439 C139.570009,20.9368167 140.899724,20.3625973 142.577202,20.3625973 C144.203737,20.3625973 145.498884,20.9110588 146.426773,21.9936719 C147.359341,23.0817489 147.832382,24.7057986 147.832382,26.8218507 C147.832382,28.9639208 147.387151,30.6093054 146.509685,31.709871 C145.638457,32.802371 144.328756,33.3573371 142.61489,33.3573371 L142.61489,33.3573371 Z M142.824379,16.5215452 C139.574168,16.5215452 136.993232,17.4745882 135.154088,19.3543959 C133.315204,21.2344638 132.382116,23.8360136 132.382116,27.0877557 C132.382116,30.177405 133.292851,32.6603122 135.08807,34.4701312 C136.883289,36.2807308 139.326211,37.1978688 142.348999,37.1978688 C145.498104,37.1978688 148.028357,36.2315566 149.867761,34.3257308 C151.706385,32.4217262 152.638693,29.8448937 152.638693,26.6691244 C152.638693,23.5323824 151.764086,21.0297014 150.038524,19.2318507 C148.311922,17.4332195 145.884595,16.5215452 142.824379,16.5215452 L142.824379,16.5215452 Z M125.259098,20.4127081 L125.259098,16.9967919 L120.62381,16.9967919 L120.62381,36.7218937 L125.259098,36.7218937 L125.259098,26.6318145 C125.259098,24.9159208 125.647668,23.5065204 126.414411,22.4418597 C127.171537,21.389948 128.180519,20.8568371 129.412247,20.8568371 C129.829667,20.8568371 130.29829,20.9257851 130.8059,21.0621199 C131.308312,21.1976742 131.67219,21.3446765 131.886878,21.4994842 L132.081553,21.6407624 L132.081553,16.9629683 L132.006438,16.9307059 C131.574723,16.7470181 130.964187,16.6543937 130.191466,16.6543937 C129.026796,16.6543937 127.984285,17.0290543 127.091484,17.7666674 C126.307847,18.4150385 125.741236,19.3040769 125.308221,20.4127081 L125.259098,20.4127081 L125.259098,20.4127081 Z M112.323101,16.5214412 C110.196753,16.5214412 108.299908,16.9780588 106.686368,17.8777647 C105.06971,18.779552 103.819529,20.0671878 102.968833,21.7045068 C102.122037,23.3379231 101.692141,25.2458303 101.692141,27.3733303 C101.692141,29.2370068 102.109041,30.9474367 102.932965,32.4546652 C103.757409,33.9644955 104.924419,35.1457172 106.401504,35.9650271 C107.87651,36.7832964 109.581279,37.1982851 111.468767,37.1982851 C113.671529,37.1982851 115.552259,36.7572783 117.060274,35.8880136 L117.121094,35.8528891 L117.121094,31.602052 L116.926419,31.744371 C116.243368,32.2423575 115.480004,32.639914 114.658679,32.9263733 C113.839433,33.2125724 113.092443,33.357233 112.437722,33.357233 C110.618852,33.357233 109.15892,32.7874367 108.098995,31.6644955 C107.036731,30.539733 106.498191,28.9606946 106.498191,26.9734321 C106.498191,24.973681 107.059863,23.3540543 108.166833,22.1587828 C109.270163,20.9671538 110.732953,20.3627534 112.514137,20.3627534 C114.037747,20.3627534 115.522369,20.8792127 116.926939,21.8991222 L117.121094,22.0404005 L117.121094,17.5613846 L117.058455,17.526 C116.529792,17.229914 115.809053,16.9853439 114.913913,16.7998348 C114.022932,16.6148462 113.151443,16.5214412 112.323101,16.5214412 L112.323101,16.5214412 Z M98.499734,16.9968439 L93.8644463,16.9968439 L93.8644463,36.7219457 L98.499734,36.7219457 L98.499734,16.9968439 Z M96.2293943,8.59377828 C95.4665498,8.59377828 94.8011726,8.8536991 94.2545757,9.36885747 C93.7056395,9.88557692 93.4270128,10.5360294 93.4270128,11.3035633 C93.4270128,12.059129 93.7022606,12.6976131 94.2457386,13.200543 C94.7858378,13.7019118 95.4532942,13.9561086 96.2293943,13.9561086 C97.0052345,13.9561086 97.6752901,13.7019118 98.2218871,13.2013235 C98.7721228,12.6976131 99.0510094,12.059129 99.0510094,11.3035633 C99.0510094,10.5628281 98.7796603,9.91888009 98.2444995,9.38967195 C97.7101185,8.86150452 97.0320056,8.59377828 96.2293943,8.59377828 L96.2293943,8.59377828 Z M84.6643323,15.5415475 L84.6643323,36.7218416 L89.3947481,36.7218416 L89.3947481,9.19781448 L82.8478006,9.19781448 L74.5259074,29.6417964 L66.4501519,9.19781448 L59.6365337,9.19781448 L59.6365337,36.7218416 L64.081825,36.7218416 L64.081825,15.5394661 L64.2346538,15.5394661 L72.762398,36.7218416 L76.1170946,36.7218416 L84.5117633,15.5415475 L84.6643323,15.5415475 L84.6643323,15.5415475 Z" id="path5056" fill="#777777"></path>
                        <polygon id="path5058" fill="#F35325" points="21.8051378 21.8276244 0 21.8276244 0 0 21.8051378 0"></polygon>
                        <polygon id="path5060" fill="#81BC06" points="45.8806153 21.8276244 24.0757374 21.8276244 24.0757374 0 45.8806153 0"></polygon>
                        <polygon id="path5062" fill="#05A6F0" points="21.804618 45.9365158 0 45.9365158 0 24.1088914 21.804618 24.1088914"></polygon>
                        <polygon id="path5064" fill="#FFBA08" points="45.8806153 45.9365158 24.0757374 45.9365158 24.0757374 24.1088914 45.8806153 24.1088914"></polygon>
                    </g>
                </g>
                <g id="Tesla_Motors" transform="translate(269.000000, 0.000000)" fill="#E82127">
                    <g id="Layer_1">
                        <g id="TESLA" transform="translate(0.135516, 91.991485)">
                            <g id="g8" transform="translate(67.473310, 0.000000)">
                                <polyline id="polyline10" points="0.455800712 4.33564738 0.455800712 10.5531019 2.45637011 10.5531019 2.45637011 6.41352342 9.7375089 6.41352342 9.7375089 10.5531019 11.7366548 10.5531019 11.7366548 4.34642975 0.455800712 4.33564738"></polyline>
                                <path d="M2.23345196,2.32445179 L9.92597865,2.32445179 C10.9944484,2.11277686 11.7890391,1.17300826 12.0130961,0.263884298 L0.146619217,0.263884298 C0.368398577,1.17329201 1.17466192,2.11277686 2.23345196,2.32445179" id="path12"></path>
                            </g>
                            <g id="g14" transform="translate(52.384342, 0.000000)">
                                <path d="M9.4858363,10.5570744 C10.4945196,10.1308871 11.037153,9.3937135 11.2449822,8.53112397 L2.27217082,8.53112397 L2.27786477,0.268991736 L0.266476868,0.274666667 L0.266476868,10.5570744 L9.4858363,10.5570744" id="path16"></path>
                            </g>
                            <g id="g18" transform="translate(35.017794, 0.000000)">
                                <path d="M2.67558719,2.29664463 L9.77992883,2.29664463 C10.8509609,1.98650964 11.7503203,1.17329201 11.9695374,0.271829201 L0.684128114,0.271829201 L0.684128114,6.34826171 L9.92085409,6.34826171 L9.92085409,8.48061708 L2.67558719,8.48629201 C1.54021352,8.80181818 0.577366548,9.56169146 0.0970818505,10.565303 L0.684128114,10.5545207 L11.9054804,10.5545207 L11.9054804,4.32798623 L2.67558719,4.32798623 L2.67558719,2.29664463" id="path20"></path>
                            </g>
                            <g id="g22" transform="translate(17.935943, 0.000000)">
                                <path d="M2.21921708,2.31622314 L9.90918149,2.31622314 C10.9790747,2.10369697 11.7742349,1.16477961 11.997153,0.254804408 L0.131245552,0.254804408 C0.352740214,1.16477961 1.15957295,2.10369697 2.21921708,2.31622314" id="path24"></path>
                                <path d="M2.21921708,6.38004132 L9.90918149,6.38004132 C10.9790747,6.16978512 11.7742349,5.23001653 11.997153,4.31947383 L0.131245552,4.31947383 C0.352740214,5.23030028 1.15957295,6.16978512 2.21921708,6.38004132" id="path26"></path>
                                <path d="M2.21921708,10.5559394 L9.90918149,10.5559394 C10.9790747,10.3439807 11.7742349,9.40449587 11.997153,8.49508815 L0.131245552,8.49508815 C0.352740214,9.40477961 1.15957295,10.3439807 2.21921708,10.5559394" id="path28"></path>
                            </g>
                            <g id="g30">
                                <path d="M0.149181495,0.279774105 C0.380355872,1.17839945 1.16099644,2.09688705 2.23202847,2.32700551 L5.46903915,2.32700551 L5.6341637,2.39198347 L5.6341637,10.5329559 L7.65551601,10.5329559 L7.65551601,2.39198347 L7.83914591,2.32700551 L11.0790036,2.32700551 C12.1619929,2.04893388 12.9258363,1.17839945 13.1530249,0.279774105 L13.1530249,0.259911846 L0.149181495,0.259911846 L0.149181495,0.279774105" id="path32"></path>
                            </g>
                        </g>
                        <g id="T" transform="translate(3.759146, 0.057601)">
                            <path d="M36.1981495,71.872719 L46.2980783,15.2598898 C55.9251246,15.2598898 58.9617082,16.312022 59.4001423,20.6065262 C59.4001423,20.6065262 65.8582206,18.2065978 69.1154448,13.3323994 C56.4048399,7.46225069 43.6335943,7.19751515 43.6335943,7.19751515 L36.1813523,16.2439229 L36.1981495,16.2427879 L28.7459075,7.19609642 C28.7459075,7.19609642 15.9743772,7.4611157 3.26548043,13.3312645 C6.51985765,18.2054628 12.9804982,20.6053912 12.9804982,20.6053912 C13.4214947,16.3106033 16.4543772,15.2584711 26.0167972,15.2516612 L36.1981495,71.872719" id="path35"></path>
                            <path d="M36.1941637,4.58449311 C46.4688968,4.50617906 58.2294662,6.16865014 70.2687544,11.3983829 C71.8778648,8.5118292 72.2915302,7.23610468 72.2915302,7.23610468 C59.1308185,2.04666391 46.8059786,0.270694215 36.1927402,0.226146006 C25.5800712,0.270694215 13.2558007,2.04694766 0.096797153,7.23610468 C0.096797153,7.23610468 0.683843416,8.80749311 2.11814947,11.3983829 C14.1551601,6.16865014 25.9177224,4.50617906 36.1927402,4.58449311 L36.1941637,4.58449311" id="path37"></path>
                        </g>
                    </g>
                </g>
                <g id="1-800-flowers_com" transform="translate(12.000000, 61.000000)">
                    <g id="VARG">
                        <g id="g3" transform="translate(0.164472, 0.065535)">
                            <path d="M154.572056,17.5634366 C153.305354,19.9789718 151.518708,22.0496197 148.753187,22.7969859 C148.061476,22.912169 147.313392,22.912169 146.621017,22.5672817 C145.756875,18.4835775 147.715951,14.1132394 150.538507,11.1217887 C152.555281,8.76384507 155.494559,7.38429577 158.663302,6.46283099 C155.55292,9.39669014 156.646528,14.0549859 154.572056,17.5634366 L154.572056,17.5634366 Z" id="path5" fill="#393996"></path>
                            <path d="M153.131597,7.21085915 C148.580094,10.1440563 144.200358,15.7231549 145.180559,21.5312958 C142.760563,20.6687465 141.377802,18.023507 141.031615,15.4351972 C140.801486,12.8468873 141.665628,10.0864648 143.797799,8.47588732 C146.217132,6.46216901 148.983979,4.04729577 149.041677,0.59643662 C151.461674,1.74760563 152.67134,4.62321127 153.131597,7.21085915 L153.131597,7.21085915 L153.131597,7.21085915 Z" id="path7" fill="#393996"></path>
                            <path d="M57.8875903,27.8577606 L60.0197604,27.8577606 L60.0197604,24.4069014 C60.0197604,21.6464789 61.1723924,20.4966338 63.9949479,20.4966338 C64.8597535,20.4966338 65.7238958,20.6687465 66.5887014,20.9560423 L66.5887014,24.1189437 C66.1854792,24.0620141 65.7815938,24.0620141 65.4937674,24.0620141 C64.5142292,24.0620141 63.9956111,24.5790141 63.9956111,25.4422254 L63.9956111,27.8570986 L66.5310035,27.8570986 L66.5310035,31.1934366 L63.9956111,31.1934366 L63.9956111,45.2259155 L60.0204236,45.2259155 L60.0204236,31.1940986 L57.8882535,31.1940986 L57.8882535,27.8577606 L57.8875903,27.8577606 L57.8875903,27.8577606 Z" id="path9" fill="#393996"></path>
                            <polygon id="polygon11" fill="#393996" points="68.0861944 20.6111549 68.0861944 20.6111549 72.0620451 20.6111549 72.0620451 45.2259155 68.0861944 45.2259155"></polygon>
                            <path d="M79.8983507,30.6770986 C81.1663785,30.6770986 81.4542049,32.5153944 81.4542049,36.4852394 C81.4542049,40.396169 81.1663785,42.3503099 79.8983507,42.3503099 C78.7463819,42.3503099 78.2847986,40.396169 78.2847986,36.4852394 C78.2847986,32.5153944 78.688684,30.6770986 79.8983507,30.6770986 L79.8983507,30.6770986 Z M74.0211215,36.541507 C74.0211215,42.5230845 76.0949306,45.6297183 79.8976875,45.6297183 C83.586375,45.6297183 85.7178819,42.5230845 85.7178819,36.541507 C85.7178819,30.4460704 83.7004444,27.3400986 79.8976875,27.3400986 C76.0378958,27.3400986 74.0211215,30.4460704 74.0211215,36.541507 L74.0211215,36.541507 L74.0211215,36.541507 Z" id="path13" fill="#393996"></path>
                            <path d="M90.4424792,27.8577606 L91.3072847,35.2778028 C91.4226806,35.908662 91.5374132,37.1743521 91.652809,39.0722254 C91.7688681,37.5199014 91.9412986,36.1972817 92.1137292,35.1626197 L93.0355694,27.8577606 L96.3780694,27.8577606 L97.2422118,35.2778028 C97.2999097,35.908662 97.4730035,37.1743521 97.5877361,39.0722254 C97.7031319,37.5199014 97.8755625,36.1972817 98.0486562,35.1626197 L98.9704965,27.8577606 L101.966809,27.8577606 L99.5474757,45.2259155 L95.7447187,45.2259155 L94.7081458,38.211 C94.5350521,37.0029014 94.3626215,35.8530563 94.3042604,34.7018873 C94.190191,36.0814366 94.0747951,37.2312817 93.9017014,38.211 L92.6336736,45.2259155 L89.0623715,45.2259155 L86.7571076,27.8577606 L90.4424792,27.8577606 L90.4424792,27.8577606 L90.4424792,27.8577606 Z" id="path15" fill="#393996"></path>
                            <path d="M107.497851,34.4715211 C107.440816,34.1272958 107.440816,33.7810845 107.440816,33.4944507 C107.440816,31.653507 107.844038,30.7340282 108.708181,30.7340282 C109.630021,30.7340282 109.974882,31.5959155 109.974882,33.4361972 C109.974882,33.723493 109.974882,34.1272958 109.917184,34.4708592 L107.497851,34.4708592 L107.497851,34.4715211 Z M114.066128,40.4537606 L111.069816,39.7633239 C110.95442,41.2004648 110.20501,42.064338 109.226799,42.064338 C108.016469,42.064338 107.555549,40.8562394 107.555549,38.3824507 L107.555549,37.8071972 L113.893698,37.8071972 C113.950069,37.3477887 113.950069,36.8870563 113.950069,36.4283099 C113.950069,30.3878169 112.050017,27.3976901 108.708181,27.3976901 C105.250948,27.3976901 103.06108,30.6188451 103.06108,36.7725352 C103.06108,42.4668169 105.423378,45.6879718 108.879948,45.6879718 C111.532063,45.6879718 113.318045,43.9046197 114.066128,40.4537606 L114.066128,40.4537606 Z" id="path17" fill="#393996"></path>
                            <path d="M116.082903,27.8577606 L120.058753,27.8577606 L120.058753,30.2726338 C121.095326,28.6627183 122.537111,27.6849859 124.495524,27.5128732 L124.495524,32.1129155 C123.803149,31.9977324 123.285194,31.8838732 122.824274,31.8838732 C121.094663,31.8838732 120.05809,32.688169 120.05809,33.8962676 L120.05809,45.2259155 L116.08224,45.2259155 L116.08224,27.8577606 L116.082903,27.8577606 Z" id="path19" fill="#393996"></path>
                            <path d="M128.413677,39.5905493 C128.529073,41.4890845 128.989993,42.3509718 130.141962,42.3509718 C131.006104,42.3509718 131.698479,41.7181268 131.698479,40.9714225 C131.698479,39.9354366 131.1215,39.5905493 130.141962,38.8418592 C127.376441,36.7725352 125.36033,35.5068451 125.36033,32.5729859 C125.36033,29.4107465 127.376441,27.3976901 130.602219,27.3976901 C133.426101,27.3976901 135.096688,29.1227887 135.327479,32.4021972 L131.985642,32.9191972 L131.985642,32.8040141 C131.985642,31.3648873 131.351628,30.5612535 130.486823,30.5612535 C129.853472,30.5612535 129.219458,31.136507 129.219458,31.8845352 C129.219458,33.0906479 130.19966,33.6083099 131.639455,34.5873662 C134.232545,36.3700563 135.673003,37.7496056 135.673003,40.396169 C135.673003,43.5577465 133.54017,45.6297183 130.198997,45.6297183 C126.972556,45.6297183 125.128875,43.7318451 125.128875,40.5120141 L125.128875,40.1075493 L128.413677,39.5905493 L128.413677,39.5905493 L128.413677,39.5905493 Z" id="path21" fill="#393996"></path>
                            <path d="M0.498722222,42.2357887 L2.745625,42.2357887 L2.745625,28.6633803 L0.557083333,29.0082676 L0.557083333,26.5351408 C2.11227431,26.0757324 3.32260417,25.3277042 4.53227083,24.2347887 L6.60674306,24.2347887 L6.60674306,42.2357887 L8.85364583,42.2357887 L8.85364583,45.284169 L0.498722222,45.284169 L0.498722222,42.2357887 L0.498722222,42.2357887 Z" id="path23" fill="#769B42"></path>
                            <polygon id="polygon25" fill="#769B42" points="9.0844375 36.0238451 9.0844375 36.0238451 14.6731771 36.0238451 14.6731771 39.1304789 9.0844375 39.1304789"></polygon>
                            <path d="M21.0696875,36.5990986 C22.6255417,38.0382254 23.4319861,39.1304789 23.4319861,40.4537606 C23.4319861,41.7750563 22.6255417,42.6971831 21.5306076,42.6971831 C20.3779757,42.6971831 19.8023229,41.8333099 19.8023229,40.2233944 C19.8016597,39.0152958 20.2625799,37.6913521 21.0696875,36.5990986 L21.0696875,36.5990986 L21.0696875,36.5990986 Z M22.0485625,31.9983944 C20.9542917,30.7902958 20.3779757,29.8132254 20.3779757,28.7209718 C20.3779757,27.4552817 21.0696875,26.7072535 21.7613993,26.7072535 C22.6825764,26.7072535 23.3165903,27.5128732 23.3165903,28.834831 C23.3165903,29.9284085 22.8556701,30.9061408 22.0485625,31.9983944 L22.0485625,31.9983944 Z M19.4561354,34.874 C17.3816632,36.4859014 16.402125,38.1534085 16.402125,40.3385775 C16.402125,43.5584085 18.4765972,45.6303803 21.5299444,45.6303803 C24.7563854,45.6303803 26.8308576,43.5584085 26.8308576,39.9923662 C26.8308576,37.6357465 25.8513194,35.6796197 23.8929062,33.723493 C25.621191,32.1129155 26.4276354,30.5612535 26.4276354,28.5475352 C26.4276354,25.7871127 24.5839549,23.8892394 21.702375,23.8892394 C19.0515868,23.8892394 17.0354757,26.0168169 17.0354757,29.1803803 C17.0361389,31.3099437 17.8425833,33.205831 19.4561354,34.874 L19.4561354,34.874 L19.4561354,34.874 Z" id="path27" fill="#769B42"></path>
                            <path d="M32.3618993,34.6449577 L32.3618993,32.4578028 C32.3618993,28.4906056 32.4202604,26.7072535 33.5728924,26.7072535 C34.782559,26.7072535 34.8402569,28.4906056 34.8402569,32.4578028 L34.8402569,34.6449577 L34.8402569,36.8877183 C34.8402569,40.7986479 34.782559,42.6389296 33.5728924,42.6389296 C32.4202604,42.6389296 32.3618993,40.7986479 32.3618993,36.8877183 L32.3618993,34.6449577 L32.3618993,34.6449577 L32.3618993,34.6449577 Z M28.387375,34.7025493 C28.387375,42.0060845 30.0579618,45.6303803 33.6299271,45.6303803 C37.0294618,45.6303803 38.8154444,41.948493 38.8154444,34.7025493 C38.8154444,27.4552817 37.0871597,23.8899014 33.5145313,23.8899014 C30.1726944,23.8899014 28.387375,27.5135352 28.387375,34.7025493 L28.387375,34.7025493 Z" id="path29" fill="#769B42"></path>
                            <path d="M44.2324167,34.6449577 L44.2324167,32.4578028 C44.2324167,28.4906056 44.3471493,26.7072535 45.4997813,26.7072535 C46.65175,26.7072535 46.7671458,28.4906056 46.7671458,32.4578028 L46.7671458,34.6449577 L46.7671458,36.8877183 C46.7671458,40.7986479 46.65175,42.6389296 45.4997813,42.6389296 C44.3471493,42.6389296 44.2324167,40.7986479 44.2324167,36.8877183 L44.2324167,34.6449577 L44.2324167,34.6449577 L44.2324167,34.6449577 Z M40.256566,34.7025493 C40.256566,42.0060845 41.9848507,45.6303803 45.5574792,45.6303803 C48.899316,45.6303803 50.7429965,41.948493 50.7429965,34.7025493 C50.7429965,27.4552817 48.9570139,23.8899014 45.4414201,23.8899014 C42.1002465,23.8899014 40.256566,27.5135352 40.256566,34.7025493 L40.256566,34.7025493 L40.256566,34.7025493 Z" id="path31" fill="#769B42"></path>
                            <polygon id="polygon33" fill="#769B42" points="52.2988507 36.0238451 52.2988507 36.0238451 57.8875903 36.0238451 57.8875903 39.1304789 52.2988507 39.1304789"></polygon>
                            <path d="M129.451576,10.834493 C133.08124,14.2270986 134.981292,19.4030563 137.401951,24.0044225 C139.302667,29.2379718 141.146347,34.7581549 140.512333,40.5676197 C140.629056,41.6036056 141.4355,42.3503099 142.356677,42.2357887 C143.279181,42.1219296 143.912531,41.2011268 143.797135,40.1075493 L143.797135,40.8562394 C143.912531,34.357 142.069514,28.1457183 139.187934,22.6818028 C136.595507,17.9083239 133.887021,13.1917746 129.795774,10.2592394 C129.681042,10.1440563 129.450913,10.1440563 129.334854,10.316831 C129.277819,10.4313521 129.277819,10.7186479 129.451576,10.834493 L129.451576,10.834493 L129.451576,10.834493 Z" id="path35" fill="#8FBA75"></path>
                            <path d="M145.238257,22.6235493 C142.529771,28.318493 140.340566,34.8157465 142.241944,41.1422113 C142.35734,41.6036056 142.759899,41.8333099 143.222146,41.7750563 C143.624705,41.6618592 143.913194,41.2004648 143.797799,40.7979859 C143.048389,37.060493 143.163785,33.2634225 144.086288,29.6404507 C144.662604,27.3394366 145.52741,25.1542676 145.757538,22.7963239 C145.815236,22.6235493 145.757538,22.5090282 145.583781,22.4514366 C145.469049,22.394507 145.296618,22.4520986 145.238257,22.6235493 L145.238257,22.6235493 L145.238257,22.6235493 Z" id="path37" fill="#8FBA75"></path>
                            <path d="M138.900108,42.6389296 C138.900108,41.7174648 139.188597,40.9707606 139.822611,40.3379155 C140.397601,39.7633239 141.205372,39.4171127 142.070177,39.4171127 C142.992017,39.4171127 143.797799,39.762662 144.374778,40.3379155 C145.008792,40.9707606 145.297281,41.7174648 145.297281,42.6389296 C145.297281,43.5014789 145.008792,44.3070986 144.374778,44.8823521 C143.740101,45.5151972 142.992017,45.8594225 142.070177,45.8594225 C141.205372,45.8594225 140.455299,45.5151972 139.822611,44.8823521 C139.188597,44.3070986 138.900108,43.5014789 138.900108,42.6389296 L138.900108,42.6389296 Z" id="path43" fill="#769B42"></path>
                            <path d="M153.305354,45.6303803 C149.674365,45.6303803 147.773649,42.6971831 147.773649,36.9459718 C147.773649,30.7346901 149.962854,27.4559437 153.361726,27.4559437 C156.474097,27.4559437 158.203045,29.5835211 158.203045,33.6665634 L158.203045,34.2411549 L154.629753,34.2411549 L154.629753,33.4951127 C154.629753,31.5389859 154.226531,30.5619155 153.477785,30.5619155 C152.441212,30.5619155 152.325153,32.171831 152.325153,35.391 C152.325153,40.0499577 152.555944,42.1795211 153.651542,42.1795211 C154.572719,42.1795211 155.148372,41.0296761 155.148372,38.728662 L155.148372,38.4976338 L158.491535,38.6134789 C158.490872,43.1559296 156.531795,45.6303803 153.305354,45.6303803 L153.305354,45.6303803 Z" id="path45" fill="#769B42"></path>
                            <path d="M165.866257,30.6770986 C167.190656,30.6770986 167.480472,32.5153944 167.480472,36.541507 C167.480472,40.4537606 167.134948,42.3503099 165.866257,42.3503099 C164.714288,42.3503099 164.311066,40.4537606 164.311066,36.541507 C164.311066,32.5729859 164.713625,30.6770986 165.866257,30.6770986 L165.866257,30.6770986 Z M160.045399,36.541507 C160.045399,42.5230845 162.120535,45.6297183 165.865594,45.6297183 C169.610653,45.6297183 171.742823,42.5230845 171.742823,36.541507 C171.742823,30.4460704 169.726049,27.3976901 165.865594,27.3976901 C162.062837,27.3976901 160.045399,30.503662 160.045399,36.541507 L160.045399,36.541507 L160.045399,36.541507 Z" id="path47" fill="#769B42"></path>
                            <path d="M173.932691,27.8577606 L177.908542,27.8577606 L177.908542,29.4107465 C179.004139,28.1450563 180.09841,27.4552817 181.308076,27.4552817 C182.633802,27.4552817 183.555642,28.1450563 184.07426,29.4107465 C185.226229,28.1450563 186.321163,27.4552817 187.531493,27.4552817 C189.431545,27.4552817 190.239979,28.5475352 190.239979,30.8478873 L190.239979,45.2259155 L186.263465,45.2259155 L186.263465,31.9983944 C186.263465,31.3099437 185.974312,30.9061408 185.340299,30.9061408 C184.880705,30.9061408 184.419785,31.1947606 184.07426,31.7700141 L184.07426,45.2259155 L180.09841,45.2259155 L180.09841,31.9983944 C180.09841,31.3099437 179.752885,30.9061408 179.176569,30.9061408 C178.657951,30.9061408 178.253403,31.1947606 177.908542,31.7700141 L177.908542,45.2259155 L173.932691,45.2259155 L173.932691,27.8577606 L173.932691,27.8577606 L173.932691,27.8577606 Z" id="path49" fill="#769B42"></path>
                        </g>
                    </g>
                </g>
                <g id="Expedia_logo" transform="translate(277.000000, 137.000000)">
                    <g id="svg2">
                        <g id="layer1" transform="translate(0.640000, 0.100000)">
                            <g id="g5284" transform="translate(0.765920, 0.539760)">
                                <g id="g4346-Clipped" transform="translate(0.000000, 0.000000)">
                                    <g id="g4346" transform="translate(114.000000, 33.000000) scale(1, -1) translate(-114.000000, -33.000000) ">
                                        <g id="g4352" transform="translate(84.320495, 14.594257)" fill="#072F54">
                                            <path d="M25.3960396,0 L18.3517426,0 C18.3178812,0 18.2986931,0.00507920792 18.281198,0.0299108911 L12.2098515,7.44047525 L6.13568317,0.0299108911 C6.12157426,0.00507920792 6.09674257,4.66005122e-16 6.06852475,4.66005122e-16 L0.425524752,4.66005122e-16 C0.391663366,4.66005122e-16 0.364009901,0.0174950495 0.340871287,0.0547425743 C0.330148515,0.0756237624 0.331841584,0.114564356 0.353287129,0.142782178 L9.29720792,11.1245941 L0.457128713,22.0031287 C0.43060396,22.0381188 0.43060396,22.0714158 0.443019802,22.1069703 C0.457128713,22.1261584 0.492118812,22.1577624 0.520336634,22.1577624 L7.57027723,22.1577624 C7.58946535,22.1577624 7.61937624,22.1453465 7.63517822,22.1154356 L12.9615743,15.5130297 L18.3816535,22.1188218 C18.3974554,22.1453465 18.4239802,22.1577624 18.4482475,22.1577624 L24.1939604,22.1577624 C24.2272574,22.1577624 24.2622475,22.1261584 24.2763564,22.1069703 C24.2904653,22.0714158 24.2870792,22.0347327 24.2622475,22.0031287 L15.8730891,11.9271089 L25.4575545,0.142782178 C25.479,0.114564356 25.4891584,0.0756237624 25.4699703,0.0547425743 C25.4575545,0.0174950495 25.4242574,6.26561509e-17 25.3960396,6.26561509e-17" id="path4354"></path>
                                        </g>
                                        <g id="g4356" transform="translate(135.428614, 13.093069)" fill="#072F54">
                                            <path d="M12.4158416,19.7524752 C9.29664356,19.7524752 7.16337624,17.8601881 6.55612871,14.566604 L17.1722376,14.566604 L17.1722376,14.7816238 C17.1722376,17.4132178 15.2302871,19.7524752 12.4158416,19.7524752 M22.646495,11.1923168 C22.6284356,11.1697426 22.5968317,11.1499901 22.5686139,11.1499901 L6.44156436,11.1499901 C6.77961386,7.39589109 9.21594059,5.2569802 13.1602277,5.2569802 C15.5931683,5.2569802 18.1734059,6.0860198 21.8174554,8.0240198 C21.8840495,8.0629604 21.9545941,8.00821782 21.9545941,7.93936634 L21.9438713,2.97923762 C21.9387921,2.93691089 21.921297,2.91207921 21.8930792,2.90361386 C18.4990396,1.47409901 15.0931485,0.498891089 12.4158416,0.498891089 C5.47369307,0.498891089 0.437376238,5.55947525 0.437376238,12.5304059 C0.437376238,19.4973861 5.47369307,24.5579703 12.4158416,24.5579703 C18.7490495,24.5579703 22.8186238,20.2908713 22.8186238,14.421 C22.8186238,13.4717525 22.6549604,11.2628614 22.646495,11.1923168" id="path4358"></path>
                                        </g>
                                        <g id="g4360" transform="translate(186.880990, 14.238713)" fill="#072F54">
                                            <path d="M3.95049505,27.0891089 C1.97186139,27.0891089 0.362881188,28.6732574 0.362881188,30.6219802 C0.362881188,32.6282673 1.97186139,34.257 3.95049505,34.257 C5.92743564,34.257 7.53810891,32.6282673 7.53810891,30.6219802 C7.53810891,28.6732574 5.92743564,27.0891089 3.95049505,27.0891089 L3.95049505,27.0891089 Z M1.05308911,0.358366337 C0.996653465,0.358366337 0.961663366,0.391663366 0.961663366,0.44809901 L0.961663366,22.4230099 C0.961663366,22.4687228 0.993267327,22.5037129 1.03220792,22.5144356 L6.85636634,22.5144356 C6.90433663,22.5037129 6.92860396,22.4687228 6.92860396,22.4230099 L6.92860396,0.44809901 C6.92860396,0.391663366 6.89022772,0.358366337 6.84451485,0.358366337 L1.05308911,0.358366337 Z" id="path4362"></path>
                                        </g>
                                        <g id="g4364" transform="translate(110.771881, 0.406337)" fill="#072F54">
                                            <path d="M9.59405941,17.4950495 C8.54492079,17.4950495 7.46925743,17.644604 6.23388119,17.9736238 L6.24629703,32.073505 C7.6910495,32.5328911 8.95351485,32.7507327 10.1996139,32.7507327 C14.2358911,32.7507327 16.944802,29.7726238 16.944802,25.349198 C16.944802,20.577 14.0598119,17.4950495 9.59405941,17.4950495 M11.1782079,37.2413168 C9.53593069,37.2413168 7.87446535,36.9422079 6.13511881,36.3434257 L0.338613861,36.3434257 C0.287821782,36.3434257 0.257910891,36.3033564 0.257910891,36.252 L0.257910891,0.216712871 C2.00741584,0.456 4.15140594,1.07735644 6.23557426,2.56274257 L6.23388119,13.5242376 C7.65944554,13.3216337 8.84064356,13.1861881 9.98120792,13.1861881 C17.9166238,13.1861881 23.0528317,17.9420198 23.0528317,25.3102574 C23.0528317,32.3353663 18.1683267,37.2413168 11.1782079,37.2413168" id="path4366"></path>
                                        </g>
                                        <g id="g4368" transform="translate(160.401386, 12.957624)" fill="#072F54">
                                            <path d="M16.9306931,6.77227723 C15.1157228,5.82020792 13.4948911,5.36759406 11.9722574,5.36759406 C8.37617822,5.36759406 6.22315842,7.90776238 6.22315842,12.1641386 C6.22315842,17.0836337 8.97270297,20.2677327 13.2256931,20.2677327 C14.3995545,20.2677327 15.5418119,19.9793465 16.9306931,19.3506535 L16.9306931,6.77227723 L16.9306931,6.77227723 Z M16.9306931,35.4308614 L16.9306931,23.9275842 C15.2302871,24.411802 13.7324851,24.6386733 12.2205743,24.6386733 C5.31115842,24.6386733 0.0976336634,19.4285347 0.0976336634,12.5140396 C0.0976336634,5.63171287 4.69883168,0.637722772 11.0286535,0.637722772 C13.2200495,0.637722772 15.2726139,1.18909901 17.685802,2.42955446 L17.6807228,0.444148515 C19.2733366,0.74890099 21.1041089,1.38436634 22.9083564,2.66545545 L22.9083564,37.7842277 C21.1374059,37.5466337 19.0357426,36.953495 16.9306931,35.4308614 L16.9306931,35.4308614 Z" id="path4370"></path>
                                        </g>
                                        <g id="g4372" transform="translate(197.056337, 13.002772)" fill="#072F54">
                                            <path d="M16.9306931,6.77227723 C15.1755446,5.76038614 13.6709703,5.27052475 12.327802,5.27052475 C8.47832673,5.27052475 6.17236634,7.80392079 6.17236634,12.0721485 C6.17236634,16.9199703 8.8880495,20.1746139 12.9260198,20.1746139 C14.0067624,20.1746139 15.3200198,19.7592475 16.9306931,18.9110198 L16.9306931,6.77227723 L16.9306931,6.77227723 Z M22.9156931,24.0156238 C22.9156931,24.1527624 22.7994356,24.2616832 22.6656832,24.2616832 L17.9606436,24.2532178 C17.8195545,24.2532178 17.701604,24.1369604 17.701604,24.0032079 L17.701604,23.2006931 L17.5836535,23.2006931 C15.4097525,24.1527624 13.5547129,24.5946535 11.7307129,24.5946535 C5.21973267,24.5946535 0.111742574,19.1909406 0.111742574,12.2730594 C0.111742574,5.28294059 4.6830297,0.59370297 11.4846535,0.59370297 C13.3013168,0.59370297 15.6332376,0.71729703 17.8144752,3.22868317 L17.8144752,0.401821782 C19.3579901,0.729148515 21.1797327,1.38436634 22.9083564,2.62877228 L22.9156931,24.0156238 Z" id="path4374"></path>
                                        </g>
                                        <g id="g4376" transform="translate(61.859109, 14.447525)" fill="#072F54">
                                            <path d="M6.77227723,5.64356436 L21.392495,5.64864356 C21.1746535,4.01370297 20.6198911,2.10222772 19.3506535,0.151811881 L6.80557426,0.151811881 L4.30773267,0.15350495 C4.25694059,0.15350495 4.20219802,0.151811881 4.14237624,0.151811881 C2.28,0.151811881 0.74890099,1.59487129 0.567178218,3.41887129 C0.558712871,3.44483168 0.54629703,3.4730495 0.54460396,3.49788119 L0.54460396,18.4736436 L0.54460396,32.3342376 C0.54629703,32.3551188 0.558712871,32.3867228 0.567178218,32.4042178 C0.74890099,34.231604 2.28,35.6803069 4.14237624,35.6803069 C4.20219802,35.6803069 4.25694059,35.6729703 4.30773267,35.6729703 L21.3608911,35.6769208 C21.1374059,34.044802 20.584901,32.0859208 19.3173564,30.1405842 L6.77227723,30.1405842 L6.77227723,22.2898218 L19.1909406,22.2898218 C19.2434257,22.2898218 19.2806733,22.2531386 19.2806733,22.2040396 L19.2806733,16.7596931 C19.2806733,16.7134158 19.2434257,16.6733465 19.1909406,16.6733465 L6.77227723,16.6733465 L6.77227723,5.64864356 L6.77227723,5.64356436 L6.77227723,5.64356436 Z" id="path4378"></path>
                                        </g>
                                        <g id="g4380" transform="translate(47.507525, 13.578416)" fill="#072F54">
                                            <path d="M2.82178218,0.564356436 C1.37646535,0.564356436 0.482524752,1.69419802 0.482524752,3.07630693 C0.482524752,4.55661386 1.50683168,5.58825743 2.82178218,5.58825743 C4.12262376,5.58825743 5.14354455,4.55661386 5.14354455,3.07630693 C5.14354455,1.596 4.12262376,0.564356436 2.82178218,0.564356436 M2.82178218,5.86987129 C1.34316832,5.86987129 0.0756237624,4.7569604 0.0756237624,3.07630693 C0.0756237624,1.48820792 1.21844554,0.291772277 2.82178218,0.291772277 C4.28290099,0.291772277 5.55213861,1.39847525 5.55213861,3.07630693 C5.55213861,4.7569604 4.28290099,5.86987129 2.82178218,5.86987129" id="path4382"></path>
                                        </g>
                                        <g id="g4384" transform="translate(49.110297, 14.628119)" fill="#072F54">
                                            <path d="M0.564356436,2.25742574 L0.564356436,3.27326733 L1.25061386,3.27326733 C1.59938614,3.27326733 2.00967327,3.22360396 2.00967327,2.80146535 C2.00967327,2.29636634 1.62929703,2.25742574 1.19982178,2.25742574 L0.564356436,2.25742574 Z M2.51646535,2.73261386 C2.51646535,3.40137624 2.10617822,3.6829901 1.31269307,3.6829901 L0.0592574257,3.6829901 L0.0592574257,0.379247525 L0.60329703,0.379247525 L0.60329703,1.7929604 L1.11008911,1.7929604 L1.96565347,0.379247525 L2.57967327,0.379247525 L1.65412871,1.82964356 C2.15189109,1.88946535 2.51646535,2.13439604 2.51646535,2.73261386 L2.51646535,2.73261386 Z" id="path4386"></path>
                                        </g>
                                        <g id="g4388" transform="translate(221.961386, 32.529505)" fill="#072F54">
                                            <path d="M2.82178218,0.564356436 C1.37477228,0.564356436 0.479138614,1.69419802 0.479138614,3.07630693 C0.479138614,4.55661386 1.50344554,5.58825743 2.82178218,5.58825743 C4.12093069,5.58825743 5.14354455,4.55661386 5.14354455,3.07630693 C5.14354455,1.596 4.12093069,0.564356436 2.82178218,0.564356436 M2.82178218,5.86987129 C1.34147525,5.86987129 0.0756237624,4.7569604 0.0756237624,3.07630693 C0.0756237624,1.48820792 1.21675248,0.291772277 2.82178218,0.291772277 C4.27951485,0.291772277 5.54818812,1.40073267 5.54818812,3.07630693 C5.54818812,4.7569604 4.27951485,5.86987129 2.82178218,5.86987129" id="path4390"></path>
                                        </g>
                                        <g id="g4392" transform="translate(223.558515, 33.579208)" fill="#072F54">
                                            <path d="M0.564356436,2.25742574 L0.564356436,3.27157426 L1.25061386,3.27157426 C1.59938614,3.27157426 2.00967327,3.22360396 2.00967327,2.80146535 C2.00967327,2.29636634 1.62929703,2.25742574 1.20151485,2.25742574 L0.564356436,2.25742574 Z M2.51815842,2.73261386 C2.51815842,3.39968317 2.10617822,3.6829901 1.31269307,3.6829901 L0.0592574257,3.6829901 L0.0592574257,0.379247525 L0.601039604,0.379247525 L0.601039604,1.79070297 L1.11008911,1.79070297 L1.96565347,0.379247525 L2.57967327,0.379247525 L1.65582178,1.82964356 C2.15019802,1.88946535 2.51815842,2.13270297 2.51815842,2.73261386 L2.51815842,2.73261386 Z" id="path4394"></path>
                                        </g>
                                        <g id="g4396" transform="translate(0.428911, 34.453960)" fill="#072F54">
                                            <path d="M31.039604,10.1584158 L29.9797426,13.1596634 L20.9867228,25.176505 L22.6007822,25.5783267 L38.1087327,12.1754257 L47.2321188,14.7861386 C48.3038317,15.0604158 49.5200198,15.122495 50.4478218,15.1151584 C47.5803267,21.300505 42.333505,26.3774554 35.404901,28.8448218 C21.7085347,33.7259406 6.65150495,26.5687723 1.7760297,12.8690198 C0.26919802,8.62675248 -0.0863465347,4.25637624 0.545168317,0.0987623762 L22.4021287,7.68879208 L31.039604,10.1584158 L31.039604,10.1584158 Z" id="path4398"></path>
                                        </g>
                                        <g id="g4400" transform="translate(1.049703, 11.648317)" fill="#072F54">
                                            <path d="M50.7920792,35.5544554 C49.9895644,35.0369406 48.8134455,34.3506832 47.6446634,33.9770792 L38.500396,31.3669307 L32.3991386,11.7826337 L30.8149901,11.2668119 L32.1056733,26.2250792 L31.3855545,29.3318614 L22.8186238,26.8853762 L0.167613861,21.5533366 C1.96508911,12.8402376 8.13294059,5.24682178 17.1276535,2.0429703 C30.8257129,-2.83984158 45.8776634,4.3190198 50.7531386,18.012 C52.8514158,23.9174257 52.7159703,30.0711683 50.7920792,35.5544554" id="path4402"></path>
                                        </g>
                                        <g id="g4404" transform="translate(0.829604, 22.359802)" fill="#FBC108">
                                            <path d="M31.6039604,18.6237624 L32.3240792,15.5169802 L31.033396,0.558712871 L32.6181089,1.0739703 L38.718802,20.6588317 L47.8630693,23.2706733 C49.0318515,23.6437129 50.2079703,24.3288416 51.0104851,24.8463564 C50.7271782,25.6505644 50.4066238,26.4412277 50.0493861,27.2138317 C49.1198911,27.220604 47.905396,27.1607822 46.8336832,26.8848119 L37.708604,24.274099 L22.2023465,37.6781287 L20.5865941,37.2751782 L29.5813069,25.2583366 L30.6411683,22.2570891 L22.002,19.7891584 L0.146732673,12.1968713 C0.215584158,11.7448218 0.294594059,11.2922079 0.386019802,10.8452376 L23.0370297,16.1772772 L31.6039604,18.6237624 L31.6039604,18.6237624 Z" id="path4406"></path>
                                        </g>
                                    </g>
                                </g>
                            </g>
                        </g>
                    </g>
                </g>
            </g>
        </g>
    </g>
</svg>