<?xml version="1.0" encoding="UTF-8"?>
<svg width="653px" height="109px" viewBox="0 0 653 109" version="1.1" xmlns="http://www.w3.org/2000/svg" xmlns:xlink="http://www.w3.org/1999/xlink">
    <!-- Generator: Sketch 41.2 (35397) - http://www.bohemiancoding.com/sketch -->
    <title>Page 1</title>
    <desc>Created with Sketch.</desc>
    <defs>
        <polygon id="path-1" points="69.1722087 0.305227273 0 0.305227273 0 107.943446 69.1722087 107.943446 69.1722087 0.305227273"></polygon>
        <polygon id="path-3" points="0 108.289225 652.399403 108.289225 652.399403 0.648171488 0 0.648171488"></polygon>
    </defs>
    <g id="Page-1" stroke="none" stroke-width="1" fill="none" fill-rule="evenodd">
        <g>
            <g id="Group-3" transform="translate(0.000000, 0.342944)">
                <mask id="mask-2" fill="white">
                    <use xlink:href="#path-1"></use>
                </mask>
                <g id="Clip-2"></g>
                <path d="M56.7775518,73.367062 C56.7775518,61.0715041 46.8321807,50.9374132 34.5857514,50.9374132 C22.3393222,50.9374132 12.3939511,61.0715041 12.3939511,73.367062 C12.3939511,85.6626198 22.3393222,95.7967107 34.5857514,95.7967107 C46.8321807,95.7967107 56.7775518,85.6626198 56.7775518,73.367062 M69.1722087,73.367062 C69.1722087,82.6294793 65.5653353,91.310781 58.9374407,97.9652645 C52.4577738,104.478012 43.8111595,107.943446 34.5857514,107.943446 C26.3697032,107.943446 18.5912796,104.038632 12.3939511,98.8298512 L12.3939511,106.497744 L-0.000705846065,106.497744 L-0.000705846065,0.302392562 L12.3939511,0.302392562 L12.3939511,47.9042727 C18.5912796,42.6954917 26.3697032,38.7906777 34.5857514,38.7906777 C43.8111595,38.7906777 52.4577738,42.2561116 58.9374407,48.7688595 C65.5653353,55.423343 69.1722087,64.1046446 69.1722087,73.367062" id="Fill-1" fill="#232453" mask="url(#mask-2)"></path>
            </g>
            <mask id="mask-4" fill="white">
                <use xlink:href="#path-3"></use>
            </mask>
            <g id="Clip-5"></g>
            <path d="M85.146211,106.843523 L97.540868,106.843523 L97.540868,40.5750723 L85.146211,40.5750723 L85.146211,106.843523 Z M83.1345497,21.625031 C83.1345497,17.1391012 86.7343647,13.5177583 91.3435395,13.5177583 C95.8115451,13.5177583 99.4184185,17.1391012 99.4184185,21.625031 C99.4184185,26.1109607 95.8115451,29.8740393 91.3435395,29.8740393 C86.7343647,29.8740393 83.1345497,26.1109607 83.1345497,21.625031 L83.1345497,21.625031 Z" id="Fill-4" fill="#232453" mask="url(#mask-4)"></path>
            <path d="M123.616233,84.8490021 L123.616233,52.4411715 L113.81909,52.4411715 L113.81909,40.577907 L123.616233,40.577907 L123.616233,14.9662955 L136.01089,14.9662955 L136.01089,40.577907 L156.32514,40.577907 L156.32514,52.4411715 L136.01089,52.4411715 L136.01089,84.5584442 C136.01089,89.9160475 140.620065,94.9760062 145.808034,94.9760062 L156.903934,94.9760062 L160.080241,106.846357 L145.525695,106.846357 C133.413377,106.846357 123.616233,97.1516467 123.616233,84.8490021" id="Fill-6" fill="#232453" mask="url(#mask-4)"></path>
            <path d="M174.766074,84.8490021 L174.766074,52.4411715 L164.968931,52.4411715 L164.968931,40.577907 L174.766074,40.577907 L174.766074,14.9662955 L187.160731,14.9662955 L187.160731,40.577907 L207.48204,40.577907 L207.48204,52.4411715 L187.160731,52.4411715 L187.160731,84.5584442 C187.160731,89.9160475 191.769906,94.9760062 196.957875,94.9760062 L208.053775,94.9760062 L211.230082,106.846357 L196.675536,106.846357 C184.563218,106.846357 174.766074,97.1516467 174.766074,84.8490021" id="Fill-7" fill="#232453" mask="url(#mask-4)"></path>
            <path d="M272.026722,73.7100062 C272.026722,61.4144483 262.08135,51.2803574 249.834921,51.2803574 C237.588492,51.2803574 227.643121,61.4144483 227.643121,73.7100062 C227.643121,86.005564 237.588492,96.139655 249.834921,96.139655 C262.08135,96.139655 272.026722,86.005564 272.026722,73.7100062 L272.026722,73.7100062 Z M272.026722,40.5793244 L284.421378,40.5793244 L284.421378,106.840688 L272.026722,106.840688 L272.026722,99.1727955 C265.829393,104.381576 258.050969,108.28639 249.834921,108.28639 C240.609513,108.28639 231.962899,104.820957 225.335004,98.3082087 C218.848279,91.6537252 215.248464,82.9724236 215.248464,73.7100062 C215.248464,64.4475888 218.848279,55.7662872 225.335004,49.1118037 C231.962899,42.5990558 240.609513,39.1336219 249.834921,39.1336219 C258.050969,39.1336219 265.829393,43.038436 272.026722,48.2472169 L272.026722,40.5793244 Z" id="Fill-8" fill="#232453" mask="url(#mask-4)"></path>
            <path d="M347.9567,87.309531 C347.9567,91.0726095 346.947341,94.6939525 344.787452,97.727093 C342.768732,100.76732 339.881821,103.084696 335.99261,104.962692 C332.533964,106.55013 328.355355,107.421804 324.176746,107.421804 C321.875688,107.421804 319.715799,107.131246 317.407683,106.698952 C310.200994,105.25325 303.424872,102.071287 297.665168,97.153064 L305.443592,88.6134979 C313.080846,95.1262459 319.567572,96.4302128 323.605011,96.4302128 C326.336635,96.4302128 328.934149,95.8490971 331.242266,94.835688 C333.112758,93.9640145 336.430234,91.7954607 336.430234,87.309531 C336.430234,82.8236012 332.533964,80.0739318 323.605011,78.4864938 C323.167387,78.3376715 312.219714,76.3179401 308.182275,74.000564 C302.133174,70.5280434 298.963925,65.1704401 298.963925,58.5230434 C298.963925,54.9017004 300.114454,51.4291798 302.133174,48.3889525 C304.003666,45.7881054 306.601179,43.7612872 310.342164,42.0250269 C313.800809,40.4305021 317.548852,39.5659153 321.727461,39.5659153 C323.315614,39.5659153 325.044937,39.7076508 326.633091,39.8564731 C332.96453,40.8698822 339.161858,43.6124649 344.356886,47.8078368 L337.150197,56.2056674 C330.663472,51.1386219 325.044937,50.4157707 322.306254,50.4157707 C319.715799,50.4157707 317.259455,50.848064 315.247794,51.8614731 C312.360883,53.3071756 310.490391,55.9151095 310.490391,58.5230434 C310.490391,62.8601508 313.949037,65.1704401 322.73682,67.0555227 C322.885048,67.0555227 334.700911,69.6563698 338.011329,71.5414525 C341.9076,73.5682707 343.347526,75.1557087 344.928621,77.1825269 C346.947341,80.0739318 347.9567,83.5464525 347.9567,87.309531" id="Fill-9" fill="#232453" mask="url(#mask-4)"></path>
            <path d="M365.092525,84.8490021 L365.092525,52.4411715 L355.295382,52.4411715 L355.295382,40.577907 L365.092525,40.577907 L365.092525,14.9662955 L377.487182,14.9662955 L377.487182,40.577907 L397.801432,40.577907 L397.801432,52.4411715 L377.487182,52.4411715 L377.487182,84.5584442 C377.487182,89.9160475 382.096357,94.9760062 387.284326,94.9760062 L398.380226,94.9760062 L401.556533,106.846357 L387.001987,106.846357 C374.889669,106.846357 365.092525,97.1516467 365.092525,84.8490021" id="Fill-10" fill="#232453" mask="url(#mask-4)"></path>
            <path d="M415.376293,106.843523 L427.77095,106.843523 L427.77095,40.5750723 L415.376293,40.5750723 L415.376293,106.843523 Z M413.357574,21.625031 C413.357574,17.1391012 416.957389,13.5177583 421.573622,13.5177583 C426.034569,13.5177583 429.641442,17.1391012 429.641442,21.625031 C429.641442,26.1109607 426.034569,29.8740393 421.573622,29.8740393 C416.957389,29.8740393 413.357574,26.1109607 413.357574,21.625031 L413.357574,21.625031 Z" id="Fill-11" fill="#232453" mask="url(#mask-4)"></path>
            <path d="M504.573355,94.1085847 C503.415767,95.561374 502.265238,97.0070764 500.966482,98.3039566 C494.486815,104.816705 485.8402,108.289225 476.614792,108.289225 C467.389384,108.289225 458.601601,104.816705 452.114875,98.3039566 C445.62815,91.6494731 442.028335,82.9681715 442.028335,73.7128409 C442.028335,64.4504236 445.62815,55.7691219 452.114875,49.1146384 C458.601601,42.6018905 467.389384,39.1293698 476.614792,39.1293698 C485.8402,39.1293698 494.486815,42.6018905 500.966482,49.1146384 C502.265238,50.4115186 503.415767,51.7154855 504.425127,53.1682748 L494.486815,60.5456095 C490.449375,55.0462707 483.96265,51.2831921 476.614792,51.2831921 C464.368363,51.2831921 454.422992,61.4101963 454.422992,73.7128409 C454.422992,86.0083988 464.368363,96.1354029 476.614792,96.1354029 C483.96265,96.1354029 490.449375,92.3723244 494.486815,86.73125 L504.573355,94.1085847 Z" id="Fill-12" fill="#232453" mask="url(#mask-4)"></path>
            <path d="M608.223321,72.8028988 C608.223321,60.5569483 618.112224,50.628374 630.309244,50.628374 C642.513323,50.628374 652.402226,60.5569483 652.402226,72.8028988 C652.402226,85.0488492 642.513323,94.9774236 630.309244,94.9774236 C618.112224,94.9774236 608.223321,85.0488492 608.223321,72.8028988" id="Fill-13" fill="#FF4081" mask="url(#mask-4)"></path>
            <path d="M565.021306,72.8028988 C565.021306,65.0641384 571.268044,58.7923409 578.975883,58.7923409 C586.683722,58.7923409 592.937518,65.0641384 592.937518,72.8028988 C592.937518,80.5416591 586.683722,86.8134566 578.975883,86.8134566 C571.268044,86.8134566 565.021306,80.5416591 565.021306,72.8028988" id="Fill-14" fill="#FF4081" mask="url(#mask-4)"></path>
            <path d="M542.552814,64.3625475 C547.197281,64.3625475 550.959441,68.1397996 550.959441,72.8028988 C550.959441,77.4659979 547.197281,81.24325 542.552814,81.24325 C537.908347,81.24325 534.146188,77.4659979 534.146188,72.8028988 C534.146188,68.1397996 537.908347,64.3625475 542.552814,64.3625475 Z" id="Fill-15" fill="#FF4081" mask="url(#mask-4)"></path>
        </g>
    </g>
</svg>