<?xml version="1.0" encoding="UTF-8" standalone="no"?>
<svg width="59px" height="23px" viewBox="0 0 59 23" version="1.1" xmlns="http://www.w3.org/2000/svg" xmlns:xlink="http://www.w3.org/1999/xlink">
    <!-- Generator: Sketch 41.2 (35397) - http://www.bohemiancoding.com/sketch -->
    <title>Group</title>
    <desc>Created with Sketch.</desc>
    <defs></defs>
    <g id="Page-1" stroke="none" stroke-width="1" fill="none" fill-rule="evenodd">
        <g id="Desktop-HD-Copy-4" transform="translate(-691.000000, -31.000000)" fill="#FF4081">
            <g id="Group" transform="translate(691.000000, 31.000000)">
                <path d="M36,11.4414287 C36,5.12286406 41.012606,0 47.1951779,0 C53.3813277,0 58.3939337,5.12286406 58.3939337,11.4414287 C58.3939337,17.7599934 53.3813277,22.8828575 47.1951779,22.8828575 C41.012606,22.8828575 36,17.7599934 36,11.4414287" id="Fill-13"></path>
                <path d="M14,11.2290523 C14,7.23607045 17.1664214,4 21.0734633,4 C24.9805053,4 28.1505045,7.23607045 28.1505045,11.2290523 C28.1505045,15.2220341 24.9805053,18.4581046 21.0734633,18.4581046 C17.1664214,18.4581046 14,15.2220341 14,11.2290523" id="Fill-14"></path>
                <path d="M4.2612518,7 C6.61549503,7 8.52250361,8.94895542 8.52250361,11.3549829 C8.52250361,13.7610105 6.61549503,15.7099659 4.2612518,15.7099659 C1.90700857,15.7099659 0,13.7610105 0,11.3549829 C0,8.94895542 1.90700857,7 4.2612518,7 Z" id="Fill-15"></path>
            </g>
        </g>
    </g>
</svg>