<?xml version="1.0" encoding="UTF-8" standalone="no"?>
<svg width="121px" height="21px" viewBox="0 0 121 21" version="1.1" xmlns="http://www.w3.org/2000/svg" xmlns:xlink="http://www.w3.org/1999/xlink">
    <!-- Generator: Sketch 41.2 (35397) - http://www.bohemiancoding.com/sketch -->
    <title>Page 1</title>
    <desc>Created with Sketch.</desc>
    <defs>
        <polygon id="path-1" points="12.8175149 0.426176471 0 0.426176471 0 20.3256791 12.8175149 20.3256791 12.8175149 0.426176471"></polygon>
        <polygon id="path-3" points="0 20.5744786 120.88871 20.5744786 120.88871 0.674451872 0 0.674451872"></polygon>
    </defs>
    <g id="Page-1" stroke="none" stroke-width="1" fill="none" fill-rule="evenodd">
        <g id="Desktop-HD-Copy-5" transform="translate(-113.000000, -14.000000)">
            <g id="Page-1" transform="translate(113.000000, 14.000000)">
                <g id="Group-3" transform="translate(0.000000, 0.248275)">
                    <mask id="mask-2" fill="white">
                        <use xlink:href="#path-1"></use>
                    </mask>
                    <g id="Clip-2"></g>
                    <path d="M10.5208021,13.9334064 C10.5208021,11.6602781 8.67793853,9.78674866 6.40869207,9.78674866 C4.13944561,9.78674866 2.29658205,11.6602781 2.29658205,13.9334064 C2.29658205,16.2065348 4.13944561,18.0800642 6.40869207,18.0800642 C8.67793853,18.0800642 10.5208021,16.2065348 10.5208021,13.9334064 M12.8175149,13.9334064 C12.8175149,15.6457861 12.1491663,17.2507326 10.9210265,18.4809733 C9.72035319,19.6850107 8.11814748,20.3256791 6.40869207,20.3256791 C4.88626966,20.3256791 3.44493848,19.6037807 2.29658205,18.6408128 L2.29658205,20.0584064 L-0.000130792303,20.0584064 L-0.000130792303,0.425652406 L2.29658205,0.425652406 L2.29658205,9.226 C3.44493848,8.26303209 4.88626966,7.54113369 6.40869207,7.54113369 C8.11814748,7.54113369 9.72035319,8.18180214 10.9210265,9.38583957 C12.1491663,10.6160802 12.8175149,12.2210267 12.8175149,13.9334064" id="Fill-1" fill="#FFFFFF" mask="url(#mask-2)"></path>
                </g>
                <mask id="mask-4" fill="white">
                    <use xlink:href="#path-3"></use>
                </mask>
                <g id="Clip-5"></g>
                <path d="M15.7774756,20.3072059 L18.0741884,20.3072059 L18.0741884,8.05589572 L15.7774756,8.05589572 L15.7774756,20.3072059 Z M15.4047175,4.55252674 C15.4047175,3.72319519 16.0717582,3.05370321 16.925832,3.05370321 C17.7537473,3.05370321 18.4220959,3.72319519 18.4220959,4.55252674 C18.4220959,5.38185829 17.7537473,6.07755348 16.925832,6.07755348 C16.0717582,6.07755348 15.4047175,5.38185829 15.4047175,4.55252674 L15.4047175,4.55252674 Z" id="Fill-4" fill="#FFFFFF" mask="url(#mask-4)"></path>
                <path d="M22.9059177,16.240992 L22.9059177,10.2496283 L21.0905205,10.2496283 L21.0905205,8.05641979 L22.9059177,8.05641979 L22.9059177,3.3215 L25.2026305,3.3215 L25.2026305,8.05641979 L28.966833,8.05641979 L28.966833,10.2496283 L25.2026305,10.2496283 L25.2026305,16.1872754 C25.2026305,17.1777567 26.0567043,18.1132112 27.0180277,18.1132112 L29.0740827,18.1132112 L29.6626481,20.3077299 L26.9657108,20.3077299 C24.7213148,20.3077299 22.9059177,18.5154305 22.9059177,16.240992" id="Fill-6" fill="#FFFFFF" mask="url(#mask-4)"></path>
                <path d="M32.3839127,16.240992 L32.3839127,10.2496283 L30.5685156,10.2496283 L30.5685156,8.05641979 L32.3839127,8.05641979 L32.3839127,3.3215 L34.6806256,3.3215 L34.6806256,8.05641979 L38.446136,8.05641979 L38.446136,10.2496283 L34.6806256,10.2496283 L34.6806256,16.1872754 C34.6806256,17.1777567 35.5346993,18.1132112 36.4960227,18.1132112 L38.5520777,18.1132112 L39.1406431,20.3077299 L36.4437058,20.3077299 C34.1993099,20.3077299 32.3839127,18.5154305 32.3839127,16.240992" id="Fill-7" fill="#FFFFFF" mask="url(#mask-4)"></path>
                <path d="M50.4061766,14.1816818 C50.4061766,11.9085535 48.563313,10.0350241 46.2940666,10.0350241 C44.0248201,10.0350241 42.1819565,11.9085535 42.1819565,14.1816818 C42.1819565,16.4548102 44.0248201,18.3283396 46.2940666,18.3283396 C48.563313,18.3283396 50.4061766,16.4548102 50.4061766,14.1816818 L50.4061766,14.1816818 Z M50.4061766,8.05668182 L52.7028894,8.05668182 L52.7028894,20.3066818 L50.4061766,20.3066818 L50.4061766,18.8890882 C49.2578202,19.8520561 47.816489,20.5739545 46.2940666,20.5739545 C44.5846112,20.5739545 42.9824054,19.9332861 41.7542657,18.7292487 C40.5522844,17.499008 39.8852437,15.8940615 39.8852437,14.1816818 C39.8852437,12.4693021 40.5522844,10.8643556 41.7542657,9.63411497 C42.9824054,8.43007754 44.5846112,7.78940909 46.2940666,7.78940909 C47.816489,7.78940909 49.2578202,8.51130749 50.4061766,9.4742754 L50.4061766,8.05668182 Z" id="Fill-8" fill="#FFFFFF" mask="url(#mask-4)"></path>
                <path d="M64.475897,16.6958797 C64.475897,17.3915749 64.288864,18.0610668 63.8886396,18.6218155 C63.5145736,19.1838743 62.9796331,19.6122968 62.2589675,19.9594893 C61.6180852,20.2529652 60.8437948,20.414115 60.0695043,20.414115 C59.6431214,20.414115 59.242897,20.3603984 58.8152061,20.2804786 C57.4798167,20.0132059 56.2242106,19.4249439 55.1569454,18.5156925 L56.5982766,16.9369492 C58.0134493,18.1409866 59.2154306,18.3820561 59.9635626,18.3820561 C60.4697288,18.3820561 60.9510444,18.274623 61.3787353,18.0872701 C61.7253349,17.9261203 62.3400587,17.5252112 62.3400587,16.6958797 C62.3400587,15.8665481 61.6180852,15.3582059 59.9635626,15.0647299 C59.8824713,15.0372166 57.8538827,14.6638209 57.1057507,14.2353984 C55.9848607,13.5934198 55.3976032,12.6029385 55.3976032,11.374008 C55.3976032,10.704516 55.6107947,10.0625374 55.9848607,9.50047861 C56.3314603,9.01964973 56.812776,8.64494385 57.5059752,8.32395455 C58.1468575,8.02916845 58.8413646,7.86932888 59.615655,7.86932888 C59.9099377,7.86932888 60.2303789,7.89553209 60.5246615,7.92304545 C61.6978685,8.1103984 62.8462249,8.61743048 63.8088563,9.39304545 L62.4734669,10.9455856 C61.2714856,10.0088209 60.2303789,9.87518449 59.7229047,9.87518449 C59.242897,9.87518449 58.7877398,9.95510428 58.4149817,10.1424572 C57.8800412,10.4097299 57.5334416,10.891869 57.5334416,11.374008 C57.5334416,12.1758262 58.1743238,12.6029385 59.802688,12.9514412 C59.8301544,12.9514412 62.0196176,13.4322701 62.6330335,13.7807727 C63.355007,14.1554786 63.6218233,14.4489545 63.914798,14.8236604 C64.288864,15.3582059 64.475897,16.0001845 64.475897,16.6958797" id="Fill-9" fill="#FFFFFF" mask="url(#mask-4)"></path>
                <path d="M67.6511418,16.240992 L67.6511418,10.2496283 L65.8357446,10.2496283 L65.8357446,8.05641979 L67.6511418,8.05641979 L67.6511418,3.3215 L69.9478546,3.3215 L69.9478546,8.05641979 L73.7120571,8.05641979 L73.7120571,10.2496283 L69.9478546,10.2496283 L69.9478546,16.1872754 C69.9478546,17.1777567 70.8019284,18.1132112 71.7632518,18.1132112 L73.8193068,18.1132112 L74.4078722,20.3077299 L71.7109349,20.3077299 C69.4665389,20.3077299 67.6511418,18.5154305 67.6511418,16.240992" id="Fill-10" fill="#FFFFFF" mask="url(#mask-4)"></path>
                <path d="M76.9686547,20.3072059 L79.2653675,20.3072059 L79.2653675,8.05589572 L76.9686547,8.05589572 L76.9686547,20.3072059 Z M76.5945887,4.55252674 C76.5945887,3.72319519 77.2616294,3.05370321 78.1170111,3.05370321 C78.9436184,3.05370321 79.6119671,3.72319519 79.6119671,4.55252674 C79.6119671,5.38185829 78.9436184,6.07755348 78.1170111,6.07755348 C77.2616294,6.07755348 76.5945887,5.38185829 76.5945887,4.55252674 L76.5945887,4.55252674 Z" id="Fill-11" fill="#FFFFFF" mask="url(#mask-4)"></path>
                <path d="M93.4967472,17.9528476 C93.2822479,18.2214305 93.0690564,18.4887032 92.8283986,18.7284626 C91.6277252,19.9325 90.0255195,20.5744786 88.3160641,20.5744786 C86.6066087,20.5744786 84.9782445,19.9325 83.7762633,18.7284626 C82.574282,17.4982219 81.9072413,15.8932754 81.9072413,14.1822059 C81.9072413,12.4698262 82.574282,10.8648797 83.7762633,9.63463904 C84.9782445,8.4306016 86.6066087,7.78862299 88.3160641,7.78862299 C90.0255195,7.78862299 91.6277252,8.4306016 92.8283986,9.63463904 C93.0690564,9.8743984 93.2822479,10.1154679 93.4692809,10.3840508 L91.6277252,11.7479278 C90.8795933,10.7312433 89.677612,10.0355481 88.3160641,10.0355481 C86.0468177,10.0355481 84.2039541,11.9077674 84.2039541,14.1822059 C84.2039541,16.4553342 86.0468177,18.3275535 88.3160641,18.3275535 C89.677612,18.3275535 90.8795933,17.6318583 91.6277252,16.5889706 L93.4967472,17.9528476 Z" id="Fill-12" fill="#FFFFFF" mask="url(#mask-4)"></path>
                <path d="M112.702943,14.0139813 C112.702943,11.7500241 114.535343,9.9144893 116.795434,9.9144893 C119.056833,9.9144893 120.889233,11.7500241 120.889233,14.0139813 C120.889233,16.2779385 119.056833,18.1134733 116.795434,18.1134733 C114.535343,18.1134733 112.702943,16.2779385 112.702943,14.0139813" id="Fill-13" fill="#FF4081" mask="url(#mask-4)"></path>
                <path d="M104.697669,14.0139813 C104.697669,12.5832861 105.855181,11.4237941 107.283433,11.4237941 C108.711685,11.4237941 109.870505,12.5832861 109.870505,14.0139813 C109.870505,15.4446765 108.711685,16.6041684 107.283433,16.6041684 C105.855181,16.6041684 104.697669,15.4446765 104.697669,14.0139813" id="Fill-14" fill="#FF4081" mask="url(#mask-4)"></path>
                <path d="M100.534289,12.4535802 C101.394902,12.4535802 102.092025,13.1518957 102.092025,14.0139813 C102.092025,14.8760668 101.394902,15.5743824 100.534289,15.5743824 C99.6736754,15.5743824 98.9765524,14.8760668 98.9765524,14.0139813 C98.9765524,13.1518957 99.6736754,12.4535802 100.534289,12.4535802 Z" id="Fill-15" fill="#FF4081" mask="url(#mask-4)"></path>
            </g>
        </g>
    </g>
</svg>