<?xml version="1.0" encoding="UTF-8" standalone="no"?>
<svg width="454px" height="143px" viewBox="0 0 454 143" version="1.1" xmlns="http://www.w3.org/2000/svg" xmlns:xlink="http://www.w3.org/1999/xlink">
    <!-- Generator: Sketch 41.2 (35397) - http://www.bohemiancoding.com/sketch -->
    <title>Group 4</title>
    <desc>Created with Sketch.</desc>
    <defs>
        <path d="M60.642,11.18 C59.862,11.18 59.004,11.804 58.848,12.506 L54.402,35.828 L48.396,12.506 C48.162,11.726 47.226,11.18 46.29,11.18 L35.058,11.18 C34.122,11.18 33.186,11.726 32.952,12.506 L26.946,35.828 L22.5,12.506 C22.344,11.804 21.486,11.18 20.706,11.18 L3.234,11.18 C2.454,11.18 2.064,11.804 2.298,12.506 L16.494,63.752 C16.728,64.454 17.508,65 18.21,65 L31.782,65 C32.484,65 33.42,64.454 33.576,63.752 L40.674,36.296 L47.772,63.752 C47.928,64.454 48.864,65 49.566,65 L63.138,65 C63.84,65 64.62,64.454 64.854,63.752 L79.05,12.506 C79.284,11.804 78.894,11.18 78.114,11.18 L60.642,11.18 Z M105.956,18.08 C105.412,18.08 105.004,18.556 105.004,19.1 L105.004,36.848 L95.484,36.848 L95.484,19.1 C95.484,18.556 95.076,18.08 94.464,18.08 L81.748,18.08 C81.272,18.08 80.796,18.556 80.796,19.1 L80.796,64.048 C80.796,64.524 81.272,65 81.748,65 L94.464,65 C95.076,65 95.484,64.524 95.484,64.048 L95.484,48.816 L105.004,48.816 L105.004,64.048 C105.004,64.524 105.412,65 105.956,65 L118.672,65 C119.284,65 119.692,64.524 119.692,64.048 L119.692,19.1 C119.692,18.556 119.284,18.08 118.672,18.08 L105.956,18.08 Z M148.048,65.952 C133.564,65.952 123.908,56.16 123.908,41.54 C123.908,26.784 133.564,16.992 148.048,16.992 C162.532,16.992 172.188,26.784 172.188,41.54 C172.188,56.16 162.532,65.952 148.048,65.952 Z M148.048,30.728 C142.472,30.728 138.732,35.08 138.732,41.54 C138.732,48 142.472,52.352 148.048,52.352 C153.624,52.352 157.364,48 157.364,41.54 C157.364,35.08 153.624,30.728 148.048,30.728 Z M205.44,18.964 C205.236,18.556 204.488,18.08 203.808,18.08 L189.936,18.08 C189.256,18.08 188.508,18.556 188.304,18.964 L172.936,64.116 C172.732,64.524 173.004,65 173.548,65 L187.012,65 C187.624,65 188.168,64.66 188.44,64.116 L190.48,56.976 L203.264,56.976 L205.304,64.116 C205.576,64.66 206.12,65 206.732,65 L220.196,65 C220.74,65 221.012,64.524 220.808,64.116 L205.44,18.964 Z M200.544,47.252 L193.2,47.252 L196.872,34.332 L200.544,47.252 Z M227.754,51.896 C227.13,51.896 226.584,51.35 226.584,50.804 L225.414,12.35 C225.414,11.726 225.96,11.18 226.584,11.18 L240.312,11.18 C240.936,11.18 241.482,11.726 241.482,12.35 L240.234,50.804 C240.234,51.35 239.688,51.896 239.064,51.896 L227.754,51.896 Z M233.448,53.144 C240.156,53.144 242.028,56.732 242.028,59.54 C242.028,62.504 240.156,66.092 233.448,66.092 C226.818,66.092 224.868,62.504 224.868,59.54 C224.868,56.732 226.818,53.144 233.448,53.144 Z" id="path-1"></path>
        <filter x="-50%" y="-50%" width="200%" height="200%" filterUnits="objectBoundingBox" id="filter-2">
            <feOffset dx="0" dy="2" in="SourceAlpha" result="shadowOffsetOuter1"></feOffset>
            <feGaussianBlur stdDeviation="2" in="shadowOffsetOuter1" result="shadowBlurOuter1"></feGaussianBlur>
            <feColorMatrix values="0 0 0 0 0   0 0 0 0 0   0 0 0 0 0  0 0 0 0.5 0" type="matrix" in="shadowBlurOuter1"></feColorMatrix>
        </filter>
    </defs>
    <g id="Page-1" stroke="none" stroke-width="1" fill="none" fill-rule="evenodd">
        <g id="Desktop-HD-Copy-5" transform="translate(-130.000000, -181.000000)">
            <g id="Group-4" transform="translate(134.000000, 182.000000)">
                <g id="WHOA!" transform="translate(122.129279, 38.636000) rotate(-5.000000) translate(-122.129279, -38.636000) ">
                    <use fill="black" fill-opacity="1" filter="url(#filter-2)" xlink:href="#path-1"></use>
                    <use fill="#FFFFFF" fill-rule="evenodd" xlink:href="#path-1"></use>
                </g>
                <path d="M31.78,108.76 L31.78,120 L26.4,120 L26.4,108.76 L15.86,91.08 L20.6,91.08 C21.066669,91.08 21.4366653,91.1933322 21.71,91.42 C21.9833347,91.6466678 22.2133324,91.9333316 22.4,92.28 L27.7,101.94 C28.0066682,102.513336 28.2733322,103.056664 28.5,103.57 C28.7266678,104.083336 28.9333324,104.586664 29.12,105.08 C29.2933342,104.573331 29.4899989,104.063336 29.71,103.55 C29.9300011,103.036664 30.1933318,102.500003 30.5,101.94 L35.76,92.28 C35.9066674,91.9866652 36.1266652,91.7133346 36.42,91.46 C36.7133348,91.2066654 37.0866644,91.08 37.54,91.08 L42.3,91.08 L31.78,108.76 Z M53.58,99.16 C55.113341,99.16 56.5033271,99.4066642 57.75,99.9 C58.9966729,100.393336 60.0599956,101.093329 60.94,102 C61.8200044,102.906671 62.4999976,104.013327 62.98,105.32 C63.4600024,106.626673 63.7,108.086659 63.7,109.7 C63.7,111.326675 63.4600024,112.793327 62.98,114.1 C62.4999976,115.406673 61.8200044,116.519995 60.94,117.44 C60.0599956,118.360005 58.9966729,119.066664 57.75,119.56 C56.5033271,120.053336 55.113341,120.3 53.58,120.3 C52.046659,120.3 50.6533396,120.053336 49.4,119.56 C48.1466604,119.066664 47.0766711,118.360005 46.19,117.44 C45.3033289,116.519995 44.6166691,115.406673 44.13,114.1 C43.6433309,112.793327 43.4,111.326675 43.4,109.7 C43.4,108.086659 43.6433309,106.626673 44.13,105.32 C44.6166691,104.013327 45.3033289,102.906671 46.19,102 C47.0766711,101.093329 48.1466604,100.393336 49.4,99.9 C50.6533396,99.4066642 52.046659,99.16 53.58,99.16 Z M53.58,116.5 C55.2866752,116.5 56.5499959,115.926672 57.37,114.78 C58.1900041,113.633328 58.6,111.953344 58.6,109.74 C58.6,107.526656 58.1900041,105.840006 57.37,104.68 C56.5499959,103.519994 55.2866752,102.94 53.58,102.94 C51.846658,102.94 50.5666708,103.523327 49.74,104.69 C48.9133292,105.856672 48.5,107.539989 48.5,109.74 C48.5,111.940011 48.9133292,113.616661 49.74,114.77 C50.5666708,115.923339 51.846658,116.5 53.58,116.5 Z M72.08,99.48 L72.08,112.52 C72.08,113.77334 72.3699971,114.74333 72.95,115.43 C73.5300029,116.11667 74.3999942,116.46 75.56,116.46 C76.4133376,116.46 77.2133296,116.270002 77.96,115.89 C78.7066704,115.509998 79.41333,114.98667 80.08,114.32 L80.08,99.48 L85.02,99.48 L85.02,120 L82,120 C81.3599968,120 80.940001,119.700003 80.74,119.1 L80.4,117.46 C79.9733312,117.886669 79.5333356,118.276665 79.08,118.63 C78.6266644,118.983335 78.1433359,119.283332 77.63,119.53 C77.1166641,119.776668 76.5633363,119.969999 75.97,120.11 C75.3766637,120.250001 74.7400034,120.32 74.06,120.32 C72.9399944,120.32 71.9500043,120.130002 71.09,119.75 C70.2299957,119.369998 69.5066696,118.833337 68.92,118.14 C68.3333304,117.446663 67.8900015,116.623338 67.59,115.67 C67.2899985,114.716662 67.14,113.666672 67.14,112.52 L67.14,99.48 L72.08,99.48 Z M98.9,120 L98.9,103.2 L97.12,102.92 C96.7333314,102.853333 96.4233345,102.720001 96.19,102.52 C95.9566655,102.319999 95.84,102.040002 95.84,101.68 L95.84,99.66 L98.9,99.66 L98.9,98.14 C98.9,96.9666608 99.0766649,95.913338 99.43,94.98 C99.7833351,94.046662 100.289997,93.2533366 100.95,92.6 C101.610003,91.9466634 102.413329,91.4466684 103.36,91.1 C104.306671,90.7533316 105.373327,90.58 106.56,90.58 C107.506671,90.58 108.386663,90.7066654 109.2,90.96 L109.1,93.44 C109.073333,93.8266686 108.893335,94.0666662 108.56,94.16 C108.226665,94.2533338 107.840002,94.3 107.4,94.3 C106.81333,94.3 106.290002,94.3633327 105.83,94.49 C105.369998,94.6166673 104.980002,94.8366651 104.66,95.15 C104.339998,95.4633349 104.096667,95.8766641 103.93,96.39 C103.763332,96.9033359 103.68,97.5399962 103.68,98.3 L103.68,99.66 L109.02,99.66 L109.02,103.18 L103.84,103.18 L103.84,120 L98.9,120 Z M120.8,99.16 C122.333341,99.16 123.723327,99.4066642 124.97,99.9 C126.216673,100.393336 127.279996,101.093329 128.16,102 C129.040004,102.906671 129.719998,104.013327 130.2,105.32 C130.680002,106.626673 130.92,108.086659 130.92,109.7 C130.92,111.326675 130.680002,112.793327 130.2,114.1 C129.719998,115.406673 129.040004,116.519995 128.16,117.44 C127.279996,118.360005 126.216673,119.066664 124.97,119.56 C123.723327,120.053336 122.333341,120.3 120.8,120.3 C119.266659,120.3 117.87334,120.053336 116.62,119.56 C115.36666,119.066664 114.296671,118.360005 113.41,117.44 C112.523329,116.519995 111.836669,115.406673 111.35,114.1 C110.863331,112.793327 110.62,111.326675 110.62,109.7 C110.62,108.086659 110.863331,106.626673 111.35,105.32 C111.836669,104.013327 112.523329,102.906671 113.41,102 C114.296671,101.093329 115.36666,100.393336 116.62,99.9 C117.87334,99.4066642 119.266659,99.16 120.8,99.16 Z M120.8,116.5 C122.506675,116.5 123.769996,115.926672 124.59,114.78 C125.410004,113.633328 125.82,111.953344 125.82,109.74 C125.82,107.526656 125.410004,105.840006 124.59,104.68 C123.769996,103.519994 122.506675,102.94 120.8,102.94 C119.066658,102.94 117.786671,103.523327 116.96,104.69 C116.133329,105.856672 115.72,107.539989 115.72,109.74 C115.72,111.940011 116.133329,113.616661 116.96,114.77 C117.786671,115.923339 119.066658,116.5 120.8,116.5 Z M139.3,99.48 L139.3,112.52 C139.3,113.77334 139.589997,114.74333 140.17,115.43 C140.750003,116.11667 141.619994,116.46 142.78,116.46 C143.633338,116.46 144.43333,116.270002 145.18,115.89 C145.92667,115.509998 146.63333,114.98667 147.3,114.32 L147.3,99.48 L152.24,99.48 L152.24,120 L149.22,120 C148.579997,120 148.160001,119.700003 147.96,119.1 L147.62,117.46 C147.193331,117.886669 146.753336,118.276665 146.3,118.63 C145.846664,118.983335 145.363336,119.283332 144.85,119.53 C144.336664,119.776668 143.783336,119.969999 143.19,120.11 C142.596664,120.250001 141.960003,120.32 141.28,120.32 C140.159994,120.32 139.170004,120.130002 138.31,119.75 C137.449996,119.369998 136.72667,118.833337 136.14,118.14 C135.55333,117.446663 135.110001,116.623338 134.81,115.67 C134.509998,114.716662 134.36,113.666672 134.36,112.52 L134.36,99.48 L139.3,99.48 Z M157.52,120 L157.52,99.48 L160.54,99.48 C161.180003,99.48 161.599999,99.779997 161.8,100.38 L162.14,102 C162.553335,101.573331 162.989998,101.186668 163.45,100.84 C163.910002,100.493332 164.396664,100.193335 164.91,99.94 C165.423336,99.6866654 165.97333,99.493334 166.56,99.36 C167.14667,99.226666 167.786663,99.16 168.48,99.16 C169.600006,99.16 170.593329,99.3499981 171.46,99.73 C172.326671,100.110002 173.049997,100.64333 173.63,101.33 C174.210003,102.01667 174.649998,102.836662 174.95,103.79 C175.250001,104.743338 175.4,105.793328 175.4,106.94 L175.4,120 L170.46,120 L170.46,106.94 C170.46,105.68666 170.170003,104.71667 169.59,104.03 C169.009997,103.34333 168.140006,103 166.98,103 C166.126662,103 165.32667,103.193331 164.58,103.58 C163.83333,103.966669 163.12667,104.49333 162.46,105.16 L162.46,120 L157.52,120 Z M194.7,120 C194.059997,120 193.640001,119.700003 193.44,119.1 L193.04,117.12 C192.613331,117.600002 192.166669,118.033331 191.7,118.42 C191.233331,118.806669 190.730003,119.139999 190.19,119.42 C189.649997,119.700001 189.070003,119.916666 188.45,120.07 C187.829997,120.223334 187.160004,120.3 186.44,120.3 C185.319994,120.3 184.293338,120.066669 183.36,119.6 C182.426662,119.133331 181.623337,118.456671 180.95,117.57 C180.276663,116.683329 179.756668,115.586673 179.39,114.28 C179.023331,112.973327 178.84,111.480008 178.84,109.8 C178.84,108.279992 179.046665,106.866673 179.46,105.56 C179.873335,104.253327 180.466663,103.120005 181.24,102.16 C182.013337,101.199995 182.939995,100.450003 184.02,99.91 C185.100005,99.3699973 186.313327,99.1 187.66,99.1 C188.806672,99.1 189.786663,99.2833315 190.6,99.65 C191.413337,100.016668 192.139997,100.506664 192.78,101.12 L192.78,90.28 L197.72,90.28 L197.72,120 L194.7,120 Z M188.12,116.38 C189.146672,116.38 190.019996,116.166669 190.74,115.74 C191.460004,115.313331 192.139997,114.706671 192.78,113.92 L192.78,104.72 C192.219997,104.039997 191.610003,103.560001 190.95,103.28 C190.289997,102.999999 189.580004,102.86 188.82,102.86 C188.07333,102.86 187.39667,102.999999 186.79,103.28 C186.18333,103.560001 185.670002,103.98333 185.25,104.55 C184.829998,105.116669 184.506668,105.836662 184.28,106.71 C184.053332,107.583338 183.94,108.613327 183.94,109.8 C183.94,111.000006 184.036666,112.016662 184.23,112.85 C184.423334,113.683337 184.699998,114.363331 185.06,114.89 C185.420002,115.416669 185.859997,115.796665 186.38,116.03 C186.900003,116.263334 187.479997,116.38 188.12,116.38 Z M222.96,103.48 C222.826666,103.693334 222.686667,103.843333 222.54,103.93 C222.393333,104.016667 222.206668,104.06 221.98,104.06 C221.739999,104.06 221.483335,103.993334 221.21,103.86 C220.936665,103.726666 220.620002,103.576667 220.26,103.41 C219.899998,103.243332 219.490002,103.093334 219.03,102.96 C218.569998,102.826666 218.02667,102.76 217.4,102.76 C216.426662,102.76 215.660003,102.966665 215.1,103.38 C214.539997,103.793335 214.26,104.33333 214.26,105 C214.26,105.440002 214.403332,105.809998 214.69,106.11 C214.976668,106.410001 215.356664,106.673332 215.83,106.9 C216.303336,107.126668 216.839997,107.329999 217.44,107.51 C218.040003,107.690001 218.65333,107.886666 219.28,108.1 C219.90667,108.313334 220.519997,108.556665 221.12,108.83 C221.720003,109.103335 222.256664,109.449998 222.73,109.87 C223.203336,110.290002 223.583332,110.79333 223.87,111.38 C224.156668,111.96667 224.3,112.673329 224.3,113.5 C224.3,114.486672 224.120002,115.396662 223.76,116.23 C223.399998,117.063337 222.873337,117.78333 222.18,118.39 C221.486663,118.99667 220.630005,119.469998 219.61,119.81 C218.589995,120.150002 217.420007,120.32 216.1,120.32 C215.39333,120.32 214.703337,120.256667 214.03,120.13 C213.356663,120.003333 212.710003,119.826668 212.09,119.6 C211.469997,119.373332 210.896669,119.106668 210.37,118.8 C209.843331,118.493332 209.380002,118.160002 208.98,117.8 L210.12,115.92 C210.266667,115.693332 210.439999,115.520001 210.64,115.4 C210.840001,115.279999 211.093332,115.22 211.4,115.22 C211.706668,115.22 211.996665,115.306666 212.27,115.48 C212.543335,115.653334 212.859998,115.839999 213.22,116.04 C213.580002,116.240001 214.003331,116.426666 214.49,116.6 C214.976669,116.773334 215.59333,116.86 216.34,116.86 C216.92667,116.86 217.429998,116.790001 217.85,116.65 C218.270002,116.509999 218.616665,116.326668 218.89,116.1 C219.163335,115.873332 219.363333,115.610001 219.49,115.31 C219.616667,115.009998 219.68,114.700002 219.68,114.38 C219.68,113.899998 219.536668,113.506668 219.25,113.2 C218.963332,112.893332 218.583336,112.626668 218.11,112.4 C217.636664,112.173332 217.09667,111.970001 216.49,111.79 C215.88333,111.609999 215.263336,111.413334 214.63,111.2 C213.996663,110.986666 213.37667,110.736668 212.77,110.45 C212.16333,110.163332 211.623336,109.800002 211.15,109.36 C210.676664,108.919998 210.296668,108.380003 210.01,107.74 C209.723332,107.099997 209.58,106.326671 209.58,105.42 C209.58,104.579996 209.746665,103.780004 210.08,103.02 C210.413335,102.259996 210.90333,101.596669 211.55,101.03 C212.19667,100.46333 213.003328,100.010002 213.97,99.67 C214.936671,99.3299983 216.053327,99.16 217.32,99.16 C218.73334,99.16 220.019994,99.393331 221.18,99.86 C222.340006,100.326669 223.306663,100.939996 224.08,101.7 L222.96,103.48 Z M237.02,99.16 C238.553341,99.16 239.943327,99.4066642 241.19,99.9 C242.436673,100.393336 243.499996,101.093329 244.38,102 C245.260004,102.906671 245.939998,104.013327 246.42,105.32 C246.900002,106.626673 247.14,108.086659 247.14,109.7 C247.14,111.326675 246.900002,112.793327 246.42,114.1 C245.939998,115.406673 245.260004,116.519995 244.38,117.44 C243.499996,118.360005 242.436673,119.066664 241.19,119.56 C239.943327,120.053336 238.553341,120.3 237.02,120.3 C235.486659,120.3 234.09334,120.053336 232.84,119.56 C231.58666,119.066664 230.516671,118.360005 229.63,117.44 C228.743329,116.519995 228.056669,115.406673 227.57,114.1 C227.083331,112.793327 226.84,111.326675 226.84,109.7 C226.84,108.086659 227.083331,106.626673 227.57,105.32 C228.056669,104.013327 228.743329,102.906671 229.63,102 C230.516671,101.093329 231.58666,100.393336 232.84,99.9 C234.09334,99.4066642 235.486659,99.16 237.02,99.16 Z M237.02,116.5 C238.726675,116.5 239.989996,115.926672 240.81,114.78 C241.630004,113.633328 242.04,111.953344 242.04,109.74 C242.04,107.526656 241.630004,105.840006 240.81,104.68 C239.989996,103.519994 238.726675,102.94 237.02,102.94 C235.286658,102.94 234.006671,103.523327 233.18,104.69 C232.353329,105.856672 231.94,107.539989 231.94,109.74 C231.94,111.940011 232.353329,113.616661 233.18,114.77 C234.006671,115.923339 235.286658,116.5 237.02,116.5 Z M251,120 L251,99.48 L254.02,99.48 C254.660003,99.48 255.079999,99.779997 255.28,100.38 L255.6,101.9 C255.960002,101.499998 256.336665,101.133335 256.73,100.8 C257.123335,100.466665 257.543331,100.180001 257.99,99.94 C258.436669,99.6999988 258.916664,99.5100007 259.43,99.37 C259.943336,99.2299993 260.506664,99.16 261.12,99.16 C262.41334,99.16 263.476662,99.5099965 264.31,100.21 C265.143337,100.910003 265.766665,101.839994 266.18,103 C266.500002,102.319997 266.899998,101.736669 267.38,101.25 C267.860002,100.763331 268.386664,100.366668 268.96,100.06 C269.533336,99.7533318 270.14333,99.5266674 270.79,99.38 C271.43667,99.2333326 272.086663,99.16 272.74,99.16 C273.873339,99.16 274.879996,99.3333316 275.76,99.68 C276.640004,100.026668 277.379997,100.53333 277.98,101.2 C278.580003,101.86667 279.036665,102.679995 279.35,103.64 C279.663335,104.600005 279.82,105.699994 279.82,106.94 L279.82,120 L274.88,120 L274.88,106.94 C274.88,105.633327 274.593336,104.650003 274.02,103.99 C273.446664,103.329997 272.606672,103 271.5,103 C270.993331,103 270.523335,103.086666 270.09,103.26 C269.656664,103.433334 269.276668,103.683332 268.95,104.01 C268.623332,104.336668 268.366668,104.746664 268.18,105.24 C267.993332,105.733336 267.9,106.299997 267.9,106.94 L267.9,120 L262.94,120 L262.94,106.94 C262.94,105.56666 262.663336,104.56667 262.11,103.94 C261.556664,103.31333 260.740005,103 259.66,103 C258.95333,103 258.290003,103.176665 257.67,103.53 C257.049997,103.883335 256.473336,104.366664 255.94,104.98 L255.94,120 L251,120 Z M293.16,99.16 C294.45334,99.16 295.643328,99.3666646 296.73,99.78 C297.816672,100.193335 298.753329,100.796663 299.54,101.59 C300.326671,102.383337 300.939998,103.356661 301.38,104.51 C301.820002,105.663339 302.04,106.979993 302.04,108.46 C302.04,108.833335 302.023333,109.143332 301.99,109.39 C301.956666,109.636668 301.896667,109.829999 301.81,109.97 C301.723333,110.110001 301.606667,110.21 301.46,110.27 C301.313333,110.33 301.126668,110.36 300.9,110.36 L288.22,110.36 C288.366667,112.466677 288.933328,114.013328 289.92,115 C290.906672,115.986672 292.213325,116.48 293.84,116.48 C294.640004,116.48 295.329997,116.386668 295.91,116.2 C296.490003,116.013332 296.996664,115.806668 297.43,115.58 C297.863335,115.353332 298.243332,115.146668 298.57,114.96 C298.896668,114.773332 299.213332,114.68 299.52,114.68 C299.720001,114.68 299.893333,114.72 300.04,114.8 C300.186667,114.88 300.313333,114.993333 300.42,115.14 L301.86,116.94 C301.313331,117.580003 300.700003,118.116664 300.02,118.55 C299.339997,118.983335 298.630004,119.329999 297.89,119.59 C297.149996,119.850001 296.39667,120.033333 295.63,120.14 C294.863329,120.246667 294.120004,120.3 293.4,120.3 C291.973326,120.3 290.646673,120.063336 289.42,119.59 C288.193327,119.116664 287.126671,118.416671 286.22,117.49 C285.313329,116.563329 284.600003,115.416673 284.08,114.05 C283.559997,112.683326 283.3,111.100009 283.3,109.3 C283.3,107.899993 283.526664,106.583339 283.98,105.35 C284.433336,104.11666 285.083329,103.043338 285.93,102.13 C286.776671,101.216662 287.809994,100.493336 289.03,99.96 C290.250006,99.426664 291.626659,99.16 293.16,99.16 Z M293.26,102.7 C291.819993,102.7 290.693337,103.106663 289.88,103.92 C289.066663,104.733337 288.546668,105.886659 288.32,107.38 L297.6,107.38 C297.6,106.739997 297.513334,106.136669 297.34,105.57 C297.166666,105.00333 296.900002,104.506669 296.54,104.08 C296.179998,103.653331 295.726669,103.316668 295.18,103.07 C294.633331,102.823332 293.993337,102.7 293.26,102.7 Z M314.06,120 L314.06,91.08 L324.04,91.08 C325.933343,91.08 327.549993,91.2599982 328.89,91.62 C330.230007,91.9800018 331.329996,92.49333 332.19,93.16 C333.050004,93.82667 333.679998,94.6333286 334.08,95.58 C334.480002,96.5266714 334.68,97.5933274 334.68,98.78 C334.68,99.4600034 334.580001,100.109997 334.38,100.73 C334.179999,101.350003 333.870002,101.929997 333.45,102.47 C333.029998,103.010003 332.49667,103.499998 331.85,103.94 C331.20333,104.380002 330.433338,104.753332 329.54,105.06 C333.513353,105.953338 335.5,108.099983 335.5,111.5 C335.5,112.726673 335.266669,113.859995 334.8,114.9 C334.333331,115.940005 333.653338,116.836663 332.76,117.59 C331.866662,118.343337 330.766673,118.933331 329.46,119.36 C328.153327,119.786669 326.660008,120 324.98,120 L314.06,120 Z M319.44,107.32 L319.44,115.8 L324.9,115.8 C325.900005,115.8 326.736663,115.680001 327.41,115.44 C328.083337,115.199999 328.623331,114.880002 329.03,114.48 C329.436669,114.079998 329.729999,113.613336 329.91,113.08 C330.090001,112.546664 330.18,111.980003 330.18,111.38 C330.18,110.75333 330.080001,110.190002 329.88,109.69 C329.679999,109.189997 329.366669,108.763335 328.94,108.41 C328.513331,108.056665 327.96667,107.786668 327.3,107.6 C326.63333,107.413332 325.826671,107.32 324.88,107.32 L319.44,107.32 Z M319.44,103.6 L323.74,103.6 C325.566676,103.6 326.953329,103.26667 327.9,102.6 C328.846671,101.93333 329.32,100.873341 329.32,99.42 C329.32,97.9133258 328.893338,96.8400032 328.04,96.2 C327.186662,95.5599968 325.853342,95.24 324.04,95.24 L319.44,95.24 L319.44,103.6 Z M345.1,99.48 L345.1,120 L340.16,120 L340.16,99.48 L345.1,99.48 Z M345.84,93.5 C345.84,93.9266688 345.753334,94.3266648 345.58,94.7 C345.406666,95.0733352 345.176668,95.3999986 344.89,95.68 C344.603332,95.9600014 344.266669,96.1833325 343.88,96.35 C343.493331,96.5166675 343.080002,96.6 342.64,96.6 C342.213331,96.6 341.810002,96.5166675 341.43,96.35 C341.049998,96.1833325 340.720001,95.9600014 340.44,95.68 C340.159999,95.3999986 339.936667,95.0733352 339.77,94.7 C339.603332,94.3266648 339.52,93.9266688 339.52,93.5 C339.52,93.0599978 339.603332,92.6466686 339.77,92.26 C339.936667,91.8733314 340.159999,91.5400014 340.44,91.26 C340.720001,90.9799986 341.049998,90.7566675 341.43,90.59 C341.810002,90.4233325 342.213331,90.34 342.64,90.34 C343.080002,90.34 343.493331,90.4233325 343.88,90.59 C344.266669,90.7566675 344.603332,90.9799986 344.89,91.26 C345.176668,91.5400014 345.406666,91.8733314 345.58,92.26 C345.753334,92.6466686 345.84,93.0599978 345.84,93.5 Z M357.42,120.32 C355.646658,120.32 354.280005,119.816672 353.32,118.81 C352.359995,117.803328 351.88,116.413342 351.88,114.64 L351.88,103.18 L349.8,103.18 C349.533332,103.18 349.303334,103.093334 349.11,102.92 C348.916666,102.746666 348.82,102.486668 348.82,102.14 L348.82,100.18 L352.12,99.64 L353.16,94.04 C353.213334,93.773332 353.336666,93.5666674 353.53,93.42 C353.723334,93.2733326 353.966665,93.2 354.26,93.2 L356.82,93.2 L356.82,99.66 L362.22,99.66 L362.22,103.18 L356.82,103.18 L356.82,114.3 C356.82,114.940003 356.979998,115.439998 357.3,115.8 C357.620002,116.160002 358.046664,116.34 358.58,116.34 C358.886668,116.34 359.143332,116.303334 359.35,116.23 C359.556668,116.156666 359.736666,116.08 359.89,116 C360.043334,115.92 360.179999,115.843334 360.3,115.77 C360.420001,115.696666 360.539999,115.66 360.66,115.66 C360.806667,115.66 360.926666,115.696666 361.02,115.77 C361.113334,115.843334 361.213333,115.953333 361.32,116.1 L362.8,118.5 C362.079996,119.100003 361.253338,119.553332 360.32,119.86 C359.386662,120.166668 358.420005,120.32 357.42,120.32 Z M380.58,103.82 C380.433333,104.006668 380.290001,104.153333 380.15,104.26 C380.009999,104.366667 379.806668,104.42 379.54,104.42 C379.286665,104.42 379.040001,104.343334 378.8,104.19 C378.559999,104.036666 378.273335,103.863334 377.94,103.67 C377.606665,103.476666 377.210002,103.303334 376.75,103.15 C376.289998,102.996666 375.720003,102.92 375.04,102.92 C374.173329,102.92 373.413337,103.076665 372.76,103.39 C372.106663,103.703335 371.563335,104.15333 371.13,104.74 C370.696664,105.32667 370.373334,106.036662 370.16,106.87 C369.946666,107.703337 369.84,108.646661 369.84,109.7 C369.84,110.793339 369.956665,111.766662 370.19,112.62 C370.423334,113.473338 370.759998,114.189997 371.2,114.77 C371.640002,115.350003 372.17333,115.789998 372.8,116.09 C373.42667,116.390001 374.133329,116.54 374.92,116.54 C375.706671,116.54 376.343331,116.443334 376.83,116.25 C377.316669,116.056666 377.726665,115.843334 378.06,115.61 C378.393335,115.376665 378.683332,115.163334 378.93,114.97 C379.176668,114.776666 379.453332,114.68 379.76,114.68 C380.160002,114.68 380.459999,114.833332 380.66,115.14 L382.08,116.94 C381.533331,117.580003 380.940003,118.116664 380.3,118.55 C379.659997,118.983335 378.99667,119.329999 378.31,119.59 C377.62333,119.850001 376.913337,120.033333 376.18,120.14 C375.446663,120.246667 374.720004,120.3 374,120.3 C372.733327,120.3 371.540006,120.063336 370.42,119.59 C369.299994,119.116664 368.323337,118.426671 367.49,117.52 C366.656662,116.613329 365.996669,115.50334 365.51,114.19 C365.023331,112.87666 364.78,111.380008 364.78,109.7 C364.78,108.193326 364.996664,106.796673 365.43,105.51 C365.863335,104.223327 366.499996,103.110005 367.34,102.17 C368.180004,101.229995 369.219994,100.493336 370.46,99.96 C371.700006,99.426664 373.126659,99.16 374.74,99.16 C376.273341,99.16 377.616661,99.4066642 378.77,99.9 C379.923339,100.393336 380.959995,101.099995 381.88,102.02 L380.58,103.82 Z M394,99.16 C395.533341,99.16 396.923327,99.4066642 398.17,99.9 C399.416673,100.393336 400.479996,101.093329 401.36,102 C402.240004,102.906671 402.919998,104.013327 403.4,105.32 C403.880002,106.626673 404.12,108.086659 404.12,109.7 C404.12,111.326675 403.880002,112.793327 403.4,114.1 C402.919998,115.406673 402.240004,116.519995 401.36,117.44 C400.479996,118.360005 399.416673,119.066664 398.17,119.56 C396.923327,120.053336 395.533341,120.3 394,120.3 C392.466659,120.3 391.07334,120.053336 389.82,119.56 C388.56666,119.066664 387.496671,118.360005 386.61,117.44 C385.723329,116.519995 385.036669,115.406673 384.55,114.1 C384.063331,112.793327 383.82,111.326675 383.82,109.7 C383.82,108.086659 384.063331,106.626673 384.55,105.32 C385.036669,104.013327 385.723329,102.906671 386.61,102 C387.496671,101.093329 388.56666,100.393336 389.82,99.9 C391.07334,99.4066642 392.466659,99.16 394,99.16 Z M394,116.5 C395.706675,116.5 396.969996,115.926672 397.79,114.78 C398.610004,113.633328 399.02,111.953344 399.02,109.74 C399.02,107.526656 398.610004,105.840006 397.79,104.68 C396.969996,103.519994 395.706675,102.94 394,102.94 C392.266658,102.94 390.986671,103.523327 390.16,104.69 C389.333329,105.856672 388.92,107.539989 388.92,109.74 C388.92,111.940011 389.333329,113.616661 390.16,114.77 C390.986671,115.923339 392.266658,116.5 394,116.5 Z M413.24,99.48 L413.24,120 L408.3,120 L408.3,99.48 L413.24,99.48 Z M413.98,93.5 C413.98,93.9266688 413.893334,94.3266648 413.72,94.7 C413.546666,95.0733352 413.316668,95.3999986 413.03,95.68 C412.743332,95.9600014 412.406669,96.1833325 412.02,96.35 C411.633331,96.5166675 411.220002,96.6 410.78,96.6 C410.353331,96.6 409.950002,96.5166675 409.57,96.35 C409.189998,96.1833325 408.860001,95.9600014 408.58,95.68 C408.299999,95.3999986 408.076667,95.0733352 407.91,94.7 C407.743332,94.3266648 407.66,93.9266688 407.66,93.5 C407.66,93.0599978 407.743332,92.6466686 407.91,92.26 C408.076667,91.8733314 408.299999,91.5400014 408.58,91.26 C408.860001,90.9799986 409.189998,90.7566675 409.57,90.59 C409.950002,90.4233325 410.353331,90.34 410.78,90.34 C411.220002,90.34 411.633331,90.4233325 412.02,90.59 C412.406669,90.7566675 412.743332,90.9799986 413.03,91.26 C413.316668,91.5400014 413.546666,91.8733314 413.72,92.26 C413.893334,92.6466686 413.98,93.0599978 413.98,93.5 Z M418.82,120 L418.82,99.48 L421.84,99.48 C422.480003,99.48 422.899999,99.779997 423.1,100.38 L423.44,102 C423.853335,101.573331 424.289998,101.186668 424.75,100.84 C425.210002,100.493332 425.696664,100.193335 426.21,99.94 C426.723336,99.6866654 427.27333,99.493334 427.86,99.36 C428.44667,99.226666 429.086663,99.16 429.78,99.16 C430.900006,99.16 431.893329,99.3499981 432.76,99.73 C433.626671,100.110002 434.349997,100.64333 434.93,101.33 C435.510003,102.01667 435.949998,102.836662 436.25,103.79 C436.550001,104.743338 436.7,105.793328 436.7,106.94 L436.7,120 L431.76,120 L431.76,106.94 C431.76,105.68666 431.470003,104.71667 430.89,104.03 C430.309997,103.34333 429.440006,103 428.28,103 C427.426662,103 426.62667,103.193331 425.88,103.58 C425.13333,103.966669 424.42667,104.49333 423.76,105.16 L423.76,120 L418.82,120 Z M448.52,91.08 L448.52,102.52 C448.52,103.733339 448.460001,104.923327 448.34,106.09 C448.219999,107.256672 448.060001,108.493327 447.86,109.8 L444.52,109.8 C444.319999,108.493327 444.160001,107.256672 444.04,106.09 C443.919999,104.923327 443.86,103.733339 443.86,102.52 L443.86,91.08 L448.52,91.08 Z M443.1,117.28 C443.1,116.866665 443.176666,116.473335 443.33,116.1 C443.483334,115.726665 443.696665,115.406668 443.97,115.14 C444.243335,114.873332 444.566665,114.660001 444.94,114.5 C445.313335,114.339999 445.713331,114.26 446.14,114.26 C446.553335,114.26 446.946665,114.339999 447.32,114.5 C447.693335,114.660001 448.013332,114.873332 448.28,115.14 C448.546668,115.406668 448.759999,115.726665 448.92,116.1 C449.080001,116.473335 449.16,116.866665 449.16,117.28 C449.16,117.706669 449.080001,118.103331 448.92,118.47 C448.759999,118.836668 448.546668,119.153332 448.28,119.42 C448.013332,119.686668 447.693335,119.896666 447.32,120.05 C446.946665,120.203334 446.553335,120.28 446.14,120.28 C445.713331,120.28 445.313335,120.203334 444.94,120.05 C444.566665,119.896666 444.243335,119.686668 443.97,119.42 C443.696665,119.153332 443.483334,118.836668 443.33,118.47 C443.176666,118.103331 443.1,117.706669 443.1,117.28 Z" id="You-found-some-Bitco" fill="#FFFFFF" transform="translate(232.510000, 105.300000) rotate(-6.000000) translate(-232.510000, -105.300000) "></path>
            </g>
        </g>
    </g>
</svg>